<?xml version="1.0" standalone="no"?>
<!DOCTYPE svg PUBLIC "-//W3C//DTD SVG 1.1//EN" "http://www.w3.org/Graphics/SVG/1.1/DTD/svg11.dtd" >
<svg xmlns="http://www.w3.org/2000/svg" xmlns:xlink="http://www.w3.org/1999/xlink" version="1.1">
<metadata>
Created by FontForge 20150318 at Wed Jul  8 02:57:25 2015
 By uniteet7
Copyright (c) 2003 CAI978. All rights reserved.http://www.CAI978.com
</metadata>
<defs>
<font id="025CAI978" horiz-adv-x="1024" >
  <font-face 
    font-family="025CAI978"
    font-weight="400"
    font-stretch="normal"
    units-per-em="2048"
    panose-1="2 8 9 4 4 3 11 2 4 4"
    ascent="1638"
    descent="-410"
    x-height="1094"
    cap-height="1493"
    bbox="-352 -530 2705 1972"
    underline-thickness="338"
    underline-position="-97"
    unicode-range="U+0020-F002"
  />
<missing-glyph horiz-adv-x="1229" 
d="M102 -362v1806h1024v-1806h-1024zM217 -248h795v1577h-795v-1577z" />
    <glyph glyph-name=".notdef" horiz-adv-x="1229" 
d="M102 -362v1806h1024v-1806h-1024zM217 -248h795v1577h-795v-1577z" />
    <glyph glyph-name=".null" horiz-adv-x="0" 
 />
    <glyph glyph-name="nonmarkingreturn" horiz-adv-x="637" 
 />
    <glyph glyph-name="space" unicode=" " horiz-adv-x="637" 
 />
    <glyph glyph-name="exclam" unicode="!" horiz-adv-x="786" 
d="M391 582q-30 0 -60.5 32.5t-70.5 108.5q-61 116 -93 235.5t-32 235.5q0 154 68 239t190 85t189 -85t67 -239q0 -95 -21.5 -192t-64.5 -199q-47 -111 -90 -166t-82 -55zM152 213q0 101 70 171.5t171 70.5q102 0 172 -70.5t70 -171.5t-70 -171.5t-172 -70.5
q-101 0 -171 70.5t-70 171.5z" />
    <glyph glyph-name="quotedbl" unicode="&#x22;" horiz-adv-x="729" 
d="M565 838h-49l-92 467q-3 15 -3.5 22.5t-0.5 13.5q0 55 33.5 89t87.5 34t87.5 -34t33.5 -89q0 -6 -1 -13.5t-4 -23.5zM213 838h-49l-92 466q-3 16 -3.5 23.5t-0.5 13.5q0 55 33 89t87 34t87.5 -34t33.5 -89q0 -6 -0.5 -13.5t-3.5 -23.5z" />
    <glyph glyph-name="numbersign" unicode="#" horiz-adv-x="1575" 
d="M707 836l-78 -220h239l78 220h-239zM649 1470h289l-129 -366h227l129 366h289l-129 -366h256l-100 -270h-252l-76 -213h258l-100 -271h-254l-131 -366h-289l131 366h-227l-131 -366h-289l131 366h-258l100 271h254l74 213h-258l98 270h258z" />
    <glyph glyph-name="dollar" unicode="$" horiz-adv-x="1276" 
d="M469 4q-239 42 -335.5 102.5t-96.5 163.5q0 94 28.5 139.5t88.5 45.5q33 0 68 -21t61 -55q6 -8 18 -25q103 -139 215 -139q46 0 72 20t26 54q0 58 -159 133q-71 33 -113 55q-162 87 -223.5 172t-61.5 211q0 185 136 309t356 136v79q0 37 14.5 47.5t83.5 10.5h66
q59 0 74.5 -11t15.5 -42v-84q196 -36 290.5 -96t94.5 -148q0 -69 -46.5 -114.5t-113.5 -45.5q-77 0 -155 82q-3 3 -5 4q-3 3 -9 10q-101 101 -193 101q-54 0 -88.5 -20t-34.5 -50q0 -67 182 -138l70 -28q239 -98 334.5 -195t95.5 -233q0 -191 -125.5 -303t-358.5 -129v-86
q0 -40 -48.5 -58t-157.5 -18q-31 0 -42 9t-14 46z" />
    <glyph glyph-name="percent" unicode="%" horiz-adv-x="1915" 
d="M1393 461q0 -101 29.5 -170.5t68.5 -69.5q32 0 46.5 31.5t14.5 99.5q0 101 -28.5 171.5t-65.5 70.5q-32 0 -48.5 -33.5t-16.5 -99.5zM1087 420q0 168 111 280.5t272 112.5q170 0 277.5 -115.5t107.5 -300.5q0 -173 -104.5 -285t-265.5 -112q-171 0 -284.5 119.5
t-113.5 300.5zM438 96q0 15 149.5 233.5t280.5 432.5q94 151 226 378q159 273 188 273q30 0 180 -95q5 -3 8 -5q10 -7 15.5 -16.5t5.5 -18.5q0 -22 -56 -87q-13 -16 -20 -24q-86 -101 -218.5 -296t-293.5 -457q-130 -211 -212 -396q-6 -14 -7 -16q-12 -24 -21 -31.5
t-24 -7.5q-17 0 -59.5 22.5t-115.5 70.5q-10 6 -18 18t-8 22zM356 1030q0 -101 29 -170t68 -69q32 0 47.5 32t15.5 99q0 100 -28.5 170.5t-65.5 70.5q-32 0 -49 -33.5t-17 -99.5zM51 991q0 169 109.5 280t271.5 111q171 0 278 -114.5t107 -298.5q0 -175 -104 -287.5
t-264 -112.5q-170 0 -284 120.5t-114 301.5z" />
    <glyph glyph-name="ampersand" unicode="&#x26;" horiz-adv-x="1991" 
d="M362 1008q-23 43 -34 80t-11 73q0 162 125.5 261.5t333.5 99.5q156 0 251 -46.5t95 -119.5q0 -49 -29.5 -75t-84.5 -26q-33 0 -92.5 13.5t-86.5 13.5q-56 0 -91.5 -34.5t-35.5 -88.5q0 -41 23 -77t63 -58q16 -8 46 -19q63 -21 63 -65q0 -67 -44 -122.5t-101 -55.5
q-22 0 -55 10t-44 10q-20 0 -31.5 -32t-11.5 -91q0 -75 29.5 -148.5t83.5 -133.5q52 -57 112 -87t121 -30q88 0 154 51.5t66 116.5q0 45 -29.5 74.5t-73.5 29.5q-25 0 -66 -26.5t-63 -26.5q-31 0 -53.5 32t-22.5 79q0 76 67 145t220 148q57 29 158 78q278 135 278 229
q0 34 -18.5 58t-44.5 24q-16 0 -47.5 -17.5t-48.5 -17.5q-27 0 -42.5 18.5t-15.5 49.5q0 74 85 135t200 61q139 0 221 -86t82 -231q0 -162 -114 -277.5t-351 -193.5q35 -56 52.5 -116.5t17.5 -129.5q0 -88 -50 -177.5t-139 -158.5q-105 -82 -244 -125t-300 -43
q-332 0 -537 173.5t-205 447.5q0 140 69.5 249t200.5 175z" />
    <glyph glyph-name="quotesingle" unicode="'" horiz-adv-x="379" 
d="M213 838h-47l-92 466q-3 16 -3.5 23.5t-0.5 13.5q0 55 33 89t85 34q54 0 87.5 -34t33.5 -89q0 -6 -0.5 -13.5t-3.5 -23.5z" />
    <glyph glyph-name="parenleft" unicode="(" horiz-adv-x="977" 
d="M123 600q0 190 64 358.5t184 292.5q116 121 257 194t251 73q49 0 76.5 -21.5t27.5 -60.5q0 -12 -5 -23t-13 -18q-18 -18 -75 -60t-79 -73q-63 -88 -92 -237t-29 -398q0 -204 21.5 -359t62.5 -252q37 -87 130 -178q8 -8 11 -12q5 -5 14 -13q48 -47 48 -79q0 -31 -23 -48.5
t-63 -17.5q-77 0 -187.5 45.5t-214.5 122.5q-188 139 -277 325t-89 439z" />
    <glyph glyph-name="parenright" unicode=")" horiz-adv-x="977" 
d="M864 588q0 -190 -64 -358.5t-184 -292.5q-116 -121 -256.5 -194t-250.5 -73q-51 0 -78 21t-27 59q0 12 5.5 24.5t12.5 18.5q19 18 75.5 59t78.5 72q63 87 92 236.5t29 398.5q0 204 -21.5 360t-62.5 252q-38 91 -131 183q-6 5 -8 8l-16 16q-48 45 -48 76q0 30 23 47t63 17
q77 0 188.5 -45.5t215.5 -122.5q187 -139 275.5 -324t88.5 -438z" />
    <glyph glyph-name="asterisk" unicode="*" horiz-adv-x="1141" 
d="M672 1176q8 0 25.5 16t39.5 45q30 41 59 58.5t68 17.5q61 0 104.5 -47t43.5 -113q0 -61 -40.5 -102t-101.5 -41q-23 0 -66 13t-67 13q-18 0 -26.5 -5.5t-8.5 -18.5q0 -12 19.5 -24.5t60.5 -26.5q61 -21 91 -56t30 -86q0 -60 -48.5 -106.5t-111.5 -46.5q-57 0 -99 41.5
t-42 99.5q0 11 1 23t1 14q0 40 -8.5 59t-26.5 19q-16 0 -25 -21t-9 -59v-29q0 -64 -40 -105.5t-102 -41.5t-109.5 46t-47.5 105q0 53 28.5 87t89.5 54q43 15 61.5 28t18.5 28q0 13 -6.5 18.5t-24.5 5.5q-23 0 -66.5 -14t-66.5 -14q-60 0 -100.5 40t-40.5 101q0 68 41.5 114
t103.5 46q39 0 68.5 -17t60.5 -59q27 -33 42.5 -46t27.5 -13q10 0 16 5.5t7 14.5q0 23 -40 81t-40 101q0 62 43 102t110 40q68 0 111 -40t43 -102q0 -42 -40 -100t-40 -78q0 -11 8 -17.5t21 -6.5z" />
    <glyph glyph-name="plus" unicode="+" horiz-adv-x="1706" 
d="M713 1221h280v-473h459v-273h-459v-475h-280v475h-459v273h459v473z" />
    <glyph glyph-name="comma" unicode="," horiz-adv-x="637" 
d="M82 252q0 107 65 175.5t166 68.5q113 0 182.5 -91t69.5 -241q0 -105 -31 -201t-98 -199q-48 -73 -82.5 -108t-58.5 -35q-44 0 -76.5 16.5t-32.5 36.5q0 16 24 49q11 14 16 22q37 54 58 108t21 96q0 49 -50 67q-15 5 -24 9q-69 27 -109 88t-40 139z" />
    <glyph glyph-name="hyphen" unicode="-" horiz-adv-x="791" 
d="M74 420q0 60 13.5 121.5t39.5 115.5q2 5 6 13q29 65 78 65q4 0 21 -1q106 -9 217 -9q71 0 143.5 2t73.5 2q28 0 39.5 -12.5t11.5 -42.5q0 -73 -18.5 -140.5t-53.5 -123.5q-25 -40 -42 -49t-75 -9q-29 0 -101 1t-116 1q-72 0 -152 -6q-22 -2 -28 -2q-34 0 -45.5 14.5
t-11.5 59.5z" />
    <glyph glyph-name="period" unicode="." horiz-adv-x="637" 
d="M68 223q0 106 72.5 178t178.5 72t178 -72t72 -178t-72 -179t-178 -73q-105 0 -178 73t-73 179z" />
    <glyph glyph-name="slash" unicode="/" horiz-adv-x="557" 
d="M199 -147q-6 -25 -38 -34t-141 -9q-44 0 -56.5 5t-12.5 19q0 6 0.5 9.5t1.5 5.5l422 1624q6 27 43 37t157 10q20 0 29.5 -7t9.5 -20q0 -6 -1.5 -15.5t-4.5 -21.5z" />
    <glyph glyph-name="zero" unicode="0" horiz-adv-x="1276" 
d="M524 752q0 -171 46 -292.5t104 -121.5q42 0 63 49t21 150q0 175 -44.5 297t-101.5 122q-43 0 -65.5 -51.5t-22.5 -152.5zM39 670q0 149 42 262.5t132 206.5q86 88 197 136t231 48q125 0 236 -50.5t192 -144.5q85 -97 126.5 -218.5t41.5 -276.5q0 -140 -38.5 -254.5
t-117.5 -206.5q-87 -101 -191.5 -151t-230.5 -50q-124 0 -236 49.5t-200 143.5q-92 98 -138 225t-46 281z" />
    <glyph glyph-name="one" unicode="1" horiz-adv-x="1276" 
d="M260 225q48 0 68.5 22t29.5 87q9 63 14 188t5 291q0 107 -21 128.5t-86 21.5q-17 0 -41 -1t-30 -1q-40 0 -60 20.5t-20 60.5q0 45 48 85t152 83q122 51 279 82t293 31q84 0 122 -22t38 -70q0 -59 -72 -92q-25 -11 -37 -19q-22 -13 -30.5 -62t-8.5 -206v-49v-70
q0 -270 10.5 -352.5t36.5 -104.5q43 -35 129 -43q29 -3 42 -6q25 -6 39 -29t14 -61q0 -79 -105 -112t-371 -33q-355 0 -480.5 32.5t-125.5 112.5q0 46 25.5 69t75.5 23q12 0 34 -2t33 -2z" />
    <glyph glyph-name="two" unicode="2" horiz-adv-x="1276" 
d="M774 0h-604q-66 0 -99.5 17.5t-33.5 52.5q0 41 126 173q80 84 128 138q119 136 179 240t60 174q0 38 -31 64t-77 26q-47 0 -119 -55l-6 -5q-3 -2 -11 -8q-62 -47 -100 -47q-57 0 -98 43.5t-41 106.5q0 41 27.5 88t81.5 96q102 93 237.5 140.5t296.5 47.5q220 0 355 -100
t135 -260q0 -85 -38.5 -160t-154.5 -192q-21 -22 -60 -58q-91 -86 -91 -125q0 -25 19.5 -40t53.5 -15q32 0 63.5 10t57.5 29q18 13 47 39q48 43 78 43q46 0 75.5 -50.5t29.5 -133.5q0 -157 -75.5 -274.5t-162.5 -117.5q-24 0 -43 12.5t-41 43.5q-28 38 -57.5 47.5
t-106.5 9.5z" />
    <glyph glyph-name="three" unicode="3" horiz-adv-x="1276" 
d="M502 -211q-220 0 -374.5 60.5t-154.5 138.5q0 69 30 108t83 39q27 0 120 -22.5t159 -22.5q114 0 182.5 50.5t68.5 131.5q0 75 -53.5 121.5t-140.5 46.5q-12 0 -49.5 -3t-63.5 -3q-50 0 -80 43t-30 113q0 78 82 101q28 8 45 14q72 27 111.5 73.5t39.5 104.5q0 57 -39.5 94
t-101.5 37q-39 0 -102.5 -25.5t-90.5 -25.5q-35 0 -61.5 35.5t-26.5 86.5q0 42 14.5 68t51.5 49q99 60 204.5 90.5t217.5 30.5q251 0 397.5 -88t146.5 -238q0 -64 -28.5 -120.5t-81.5 -98.5q-11 -8 -30 -19q-34 -21 -34 -36q1 -18 50 -25q41 -6 65 -14q106 -34 158.5 -114.5
t52.5 -209.5q0 -255 -203.5 -413t-533.5 -158z" />
    <glyph glyph-name="four" unicode="4" horiz-adv-x="1276" 
d="M627 698q0 33 -8.5 43.5t-28.5 10.5t-45 -22t-88 -99q-78 -98 -120 -160.5t-42 -81.5q0 -23 24 -33t80 -10h146q53 0 67.5 13.5t14.5 68.5v270zM152 0q-78 0 -113 38.5t-35 127.5q0 170 336 588q40 51 61 77q228 287 351.5 386.5t230.5 99.5q83 0 112 -31.5t29 -124.5
q0 -150 -10 -397t-10 -342v-16q0 -25 4 -31t18 -6h6q20 2 37 2q38 0 51 -14.5t13 -59.5v-211q0 -36 -10 -53.5t-35 -26.5q-16 -5 -41 -6q-31 0 -31 -39q0 -55 3 -111t3 -59q0 -43 -21.5 -57.5t-107.5 -14.5h-108q-125 0 -178.5 3t-70.5 10q-20 8 -28 22.5t-8 52.5v25v141
q0 16 -5.5 21.5t-19.5 5.5h-423z" />
    <glyph glyph-name="five" unicode="5" horiz-adv-x="1276" 
d="M367 1294h729q68 0 84 -21t16 -104q0 -131 -54.5 -205.5t-150.5 -74.5h-411q-77 0 -98 -16t-21 -56q0 -18 84 -30q68 -9 114 -19q291 -59 417 -165.5t126 -289.5q0 -104 -49 -193.5t-147 -164.5q-103 -79 -244 -124.5t-287 -45.5q-201 0 -309.5 51.5t-108.5 147.5
q0 61 18 91.5t54 30.5q11 0 92.5 -18t149.5 -18q78 0 124 38.5t46 104.5q0 60 -62 105.5t-184 74.5q-24 6 -67 15q-183 40 -183 120q0 94 52.5 279.5t138.5 366.5q39 83 63 101.5t68 18.5z" />
    <glyph glyph-name="six" unicode="6" horiz-adv-x="1276" 
d="M690 307q31 0 46.5 29.5t15.5 87.5q0 100 -38 171t-87 71q-34 0 -52 -31t-18 -88q0 -99 40.5 -169.5t92.5 -70.5zM633 930q54 26 104.5 39.5t96.5 13.5q185 0 294 -116.5t109 -315.5q0 -124 -41 -220.5t-131 -185.5q-93 -91 -199.5 -134.5t-236.5 -43.5
q-259 0 -419.5 178t-160.5 469q0 174 86 353.5t258 363.5q65 69 105.5 95t76.5 26q46 0 100 -17.5t116 -52.5q45 -24 62 -45.5t17 -50.5q0 -34 -64 -102q-15 -16 -24 -25q-53 -57 -90 -113t-59 -116z" />
    <glyph glyph-name="seven" unicode="7" horiz-adv-x="1276" 
d="M526 1294h547q103 0 140.5 -22.5t37.5 -79.5q0 -77 -146 -498.5t-231 -689.5q-14 -45 -37.5 -127.5t-35.5 -105.5q-11 -20 -43.5 -29.5t-87.5 -9.5q-123 0 -218.5 42.5t-95.5 86.5q0 49 152 338q56 107 88 170q111 214 153 306.5t42 119.5t-19.5 42t-54.5 15h-240
q-45 0 -74 -10.5t-53 -34.5q-7 -7 -21 -22q-63 -66 -118 -66q-79 0 -123.5 62t-44.5 171q0 175 60.5 287.5t150.5 112.5q22 0 64 -23q24 -13 36 -18q23 -9 56.5 -13t115.5 -4z" />
    <glyph glyph-name="eight" unicode="8" horiz-adv-x="1276" 
d="M737 936q29 25 43.5 55.5t14.5 65.5q0 54 -35.5 86.5t-95.5 32.5q-45 0 -71 -21.5t-26 -58.5q0 -45 42 -84.5t128 -75.5zM426 536q-11 -25 -15.5 -45t-4.5 -38q0 -91 65 -155.5t156 -64.5q51 0 83.5 26t32.5 67q0 91 -295 202q-15 6 -22 8zM182 684q-70 59 -104.5 133.5
t-34.5 165.5q0 198 155.5 313t426.5 115q277 0 430 -91t153 -255q0 -89 -42 -153.5t-130 -108.5q105 -60 156 -148t51 -209q0 -216 -169 -348.5t-445 -132.5q-135 0 -248.5 36.5t-204.5 109.5q-76 60 -110.5 129t-34.5 159q0 88 38.5 161t112.5 124z" />
    <glyph glyph-name="nine" unicode="9" horiz-adv-x="1276" 
d="M702 604q26 0 42 25t16 65q0 104 -46 184t-104 80q-28 0 -46.5 -28t-18.5 -74q0 -101 49 -176.5t108 -75.5zM600 284q-36 -9 -69.5 -13.5t-65.5 -4.5q-88 0 -162 33.5t-131 99.5q-60 69 -95.5 173.5t-35.5 215.5q0 240 164.5 386.5t435.5 146.5t437.5 -147.5
t166.5 -387.5q0 -224 -103 -454.5t-308 -468.5q-59 -68 -94 -91.5t-72 -23.5q-45 0 -103 20t-114 56q-37 23 -58.5 47t-21.5 43q0 21 45 61.5t67 65.5q56 63 85 124t32 119z" />
    <glyph glyph-name="colon" unicode=":" horiz-adv-x="756" 
d="M127 858q0 107 72 179.5t178 72.5t179 -73t73 -179t-73 -179t-179 -73t-178 73t-72 179zM127 223q0 106 72 178t178 72t179 -72t73 -178t-73 -179t-179 -73t-178 73t-72 179z" />
    <glyph glyph-name="semicolon" unicode=";" horiz-adv-x="756" 
d="M133 252q0 108 64.5 176t164.5 68q114 0 184 -91t70 -241q0 -105 -31 -201t-98 -199q-47 -72 -82.5 -107.5t-60.5 -35.5q-44 0 -76 16.5t-32 36.5q0 16 23 49q11 14 16 22q39 56 60 109.5t21 94.5q0 49 -50 66q-16 6 -26 10q-68 27 -107.5 87.5t-39.5 139.5zM133 862
q0 104 71.5 176t174.5 72q102 0 174 -72t72 -176q0 -103 -71.5 -174.5t-174.5 -71.5q-104 0 -175 71.5t-71 174.5z" />
    <glyph glyph-name="less" unicode="&#x3c;" horiz-adv-x="1706" 
d="M1442 1239v-301l-801 -328l801 -327v-299l-1178 487v281z" />
    <glyph glyph-name="equal" unicode="=" horiz-adv-x="1706" 
d="M254 512h1198v-272h-1198v272zM254 983h1198v-272h-1198v272z" />
    <glyph glyph-name="greater" unicode="&#x3e;" horiz-adv-x="1706" 
d="M264 1239l1178 -487v-281l-1178 -487v299l801 327l-801 328v301z" />
    <glyph glyph-name="question" unicode="?" horiz-adv-x="1167" 
d="M354 211q0 101 70.5 171.5t171.5 70.5t171.5 -70.5t70.5 -171.5t-70.5 -171.5t-171.5 -70.5q-102 0 -172 70t-70 172zM258 926q-93 0 -144 48.5t-51 137.5q0 54 22.5 108t66.5 105q75 91 184.5 141t234.5 50q219 0 375 -119.5t156 -280.5q0 -55 -21 -104.5t-61 -89.5
q-53 -54 -143 -105.5t-105 -71.5q-14 -18 -25.5 -63t-21.5 -59q-19 -29 -48.5 -43.5t-68.5 -14.5q-89 0 -126.5 33.5t-37.5 112.5q0 88 78 223q7 12 11 19q42 74 56.5 116.5t14.5 81.5q0 52 -25 88.5t-59 36.5q-36 0 -50.5 -38t-14.5 -146q0 -62 -59.5 -114t-137.5 -52z" />
    <glyph glyph-name="at" unicode="@" horiz-adv-x="2019" 
d="M1163 305q-58 -94 -128.5 -141t-151.5 -47q-152 0 -241 93t-89 253q0 116 44 219t128 184q76 75 167.5 115.5t182.5 40.5q99 0 154 -43t65 -129l45 149h234l-176 -628q-7 -24 -11 -46t-4 -40q0 -44 18.5 -69.5t49.5 -25.5q27 0 83.5 32.5t102.5 78.5q90 89 135.5 206.5
t45.5 258.5q0 108 -28 202.5t-81 161.5q-85 113 -236 179.5t-321 66.5q-146 0 -281.5 -48.5t-244.5 -139.5q-147 -123 -223 -296t-76 -386q0 -328 199 -517.5t544 -189.5q161 0 309 48t326 159l45 -65q-150 -114 -321 -172t-355 -58q-435 0 -691.5 222.5t-256.5 598.5
q0 180 66 342t192 289q143 144 337 222.5t408 78.5q346 0 558 -191.5t212 -504.5q0 -157 -48 -283t-148 -229q-66 -69 -145.5 -105t-165.5 -36q-101 0 -163.5 52.5t-64.5 137.5zM1139 934q-52 0 -94.5 -32.5t-83.5 -104.5q-64 -109 -103 -236.5t-39 -212.5q0 -69 28.5 -105
t82.5 -36q44 0 85 41t87 133q56 113 91.5 244t35.5 209q0 49 -23 74.5t-67 25.5z" />
    <glyph glyph-name="A" unicode="A" horiz-adv-x="1769" 
d="M602 635h326q-60 145 -103 219t-67 74q-22 0 -54.5 -60.5t-101.5 -232.5zM-33 117q0 38 18 60.5t85 47.5v0q59 19 77 47q21 31 57 107t124 280l30 69q225 517 246 626q1 4 3 13q29 153 179 153q87 0 147 -21t103 -65q61 -64 133.5 -195t221.5 -461q40 -91 102 -241
q96 -233 139 -277q17 -17 53 -27q15 -4 23 -8q26 -12 41.5 -35.5t15.5 -48.5q0 -81 -103.5 -119t-324.5 -38q-251 0 -351.5 30.5t-100.5 104.5q0 30 12.5 51t40.5 37q8 4 24 11q54 23 54 56q0 45 -73.5 64.5t-240.5 19.5q-131 0 -181 -19t-50 -67q0 -23 10.5 -35.5
t50.5 -25.5q47 -16 61.5 -35t14.5 -55q0 -71 -80 -104t-249 -33q-156 0 -234 33t-78 100z" />
    <glyph glyph-name="B" unicode="B" horiz-adv-x="1581" 
d="M1034 0h-823q-93 0 -137.5 26t-44.5 80q0 27 14.5 52.5t24.5 25.5q24 0 56.5 31t41.5 72q13 61 21 213.5t8 355.5v160q0 132 -7.5 181t-25.5 60q-14 9 -47 22q-86 33 -86 97q0 60 47 87.5t149 27.5q39 0 128 -2t141 -2q88 0 219 3t172 3q279 0 408.5 -85.5t129.5 -268.5
q0 -74 -24 -133t-70 -99q-15 -12 -40 -31q-42 -29 -42 -49t50 -32q43 -10 69 -21q83 -36 129.5 -118.5t46.5 -194.5q0 -210 -138.5 -335.5t-369.5 -125.5zM705 590q0 -82 1.5 -153t4.5 -112q5 -64 20.5 -79t61.5 -15q81 0 124.5 56t43.5 162q0 98 -48 145t-147 47
q-38 0 -49.5 -10.5t-11.5 -40.5zM702 1217v-308q0 -29 9 -37t32 -8q84 0 120 44.5t36 148.5q0 116 -36 158t-130 42q-18 0 -25.5 -5.5t-7.5 -18.5q0 -2 1 -7.5t1 -8.5z" />
    <glyph glyph-name="C" unicode="C" horiz-adv-x="1620" 
d="M1316 114q-103 -74 -222 -111.5t-250 -37.5q-160 0 -296 52t-245 155q-116 110 -179 254t-63 301q0 153 60 299t170 258q108 112 250.5 172t300.5 60q119 0 242.5 -41t132.5 -41q12 0 47.5 9t58.5 9q83 0 152 -113.5t69 -255.5q0 -100 -56 -163.5t-142 -63.5
q-95 0 -165 113q-11 19 -18 28q-63 97 -145 148t-174 51q-113 0 -177.5 -75.5t-64.5 -209.5q0 -102 30 -192.5t87 -163.5q69 -86 156.5 -132t181.5 -46q78 0 145.5 26.5t142.5 87.5q7 6 17 16q36 34 63 34q42 0 70.5 -41.5t28.5 -104.5q0 -107 -60.5 -194.5t-130.5 -87.5
q-6 0 -9.5 0.5t-7.5 0.5z" />
    <glyph glyph-name="D" unicode="D" horiz-adv-x="1718" 
d="M31 119q0 28 9 48.5t32 41.5q17 15 52 29.5t42 23.5q17 23 25 224.5t8 637.5q0 68 -7.5 84.5t-50.5 36.5q-45 23 -61.5 47.5t-16.5 63.5q0 73 51 101t218 28q29 0 85.5 -1t84.5 -1q7 0 147.5 1t274.5 1q358 0 552.5 -195t194.5 -555q0 -186 -57 -330t-174 -253
q-94 -87 -225 -126.5t-326 -39.5q-72 0 -274 8q-63 3 -96 4q-40 0 -99.5 1t-79.5 1h-117h-29q-89 7 -126 34.5t-37 84.5zM715 889q0 -180 1.5 -324.5t4.5 -194.5q5 -73 21 -95.5t59 -22.5q158 0 235.5 111t77.5 337q0 267 -82.5 396t-253.5 129q-25 0 -41.5 -7t-17.5 -15
q-2 -8 -3 -60t-1 -254z" />
    <glyph glyph-name="E" unicode="E" horiz-adv-x="1503" 
d="M911 -2h-741q-94 0 -127 22.5t-33 79.5q0 58 71 98q34 20 48 33q35 36 50.5 168.5t15.5 434.5q0 206 -10.5 297t-34.5 116q-8 8 -67.5 39t-59.5 90q0 55 46.5 84t135.5 29q16 0 197.5 -4t347.5 -4q262 0 461 26q19 2 22 2q82 0 132 -83t50 -220q0 -80 -33.5 -127
t-89.5 -47q-59 0 -112 77q-17 25 -27 36q-44 50 -103.5 72t-150.5 22q-115 0 -149 -6.5t-48 -22.5q-12 -14 -19 -70.5t-7 -148.5q0 -87 16.5 -105t81.5 -18q47 0 66.5 15t29.5 61q2 8 5 23q24 129 94 129q73 0 110 -75.5t37 -227.5q0 -186 -39.5 -280.5t-115.5 -94.5
q-68 0 -85 108q-1 6 -2 9q-12 75 -30 92.5t-68 17.5q-57 0 -74.5 -23t-17.5 -114q0 -129 6 -168.5t21 -56.5q15 -18 53.5 -25.5t132.5 -7.5q115 0 191.5 29t123.5 90q18 22 44 64q52 87 112 87q58 0 88.5 -35.5t30.5 -103.5q0 -73 -21 -150t-61 -151q-35 -66 -64.5 -92.5
t-64.5 -26.5q-4 0 -27 5q-159 32 -338 32z" />
    <glyph glyph-name="F" unicode="F" horiz-adv-x="1425" 
d="M39 139q0 72 81 112q21 11 32 17q27 17 38 103.5t11 324.5q0 235 -8 379t-21 164q-14 21 -50 33.5t-43 18.5q-24 20 -32 36t-8 39q0 63 50 94t151 31q9 0 118 -3t209 -3q334 0 636 29q40 4 46 4q68 0 123 -101.5t55 -232.5q0 -69 -30.5 -106.5t-85.5 -37.5q-50 0 -117 74
q-15 16 -23 25q-62 65 -131 90.5t-200 25.5q-56 0 -86.5 -9.5t-36.5 -28.5q-8 -27 -14.5 -102t-6.5 -165q0 -26 13 -33.5t79 -7.5q47 0 68 14.5t31 53.5q2 8 5 22q22 101 95 101t107 -80t34 -254q0 -179 -37 -264.5t-114 -85.5q-30 0 -54.5 20.5t-29.5 48.5q-2 11 -5 29
q-23 143 -118 143q-45 0 -58.5 -11t-13.5 -66v-11q0 -145 12 -219t38 -86q19 -9 54 -16t43 -12q29 -18 42.5 -40.5t13.5 -54.5q0 -87 -97.5 -125.5t-326.5 -38.5q-235 0 -336.5 38t-101.5 124z" />
    <glyph glyph-name="G" unicode="G" horiz-adv-x="1772" 
d="M63 750q0 156 66.5 300t189.5 257q116 105 257 157t311 52q136 0 289 -51q45 -15 57 -15q20 0 63.5 19.5t67.5 19.5q86 0 150.5 -101.5t64.5 -244.5q0 -99 -49 -155t-135 -56q-58 0 -100.5 25t-102.5 106q-66 88 -128.5 125t-141.5 37q-133 0 -217 -99t-84 -256
q0 -259 113 -430.5t276 -171.5q51 0 78.5 34t27.5 97t-99 72q-11 1 -17 2q-47 5 -77 36.5t-30 76.5q0 89 110 134.5t326 45.5q218 0 325 -43.5t107 -132.5q0 -28 -12.5 -54t-32.5 -38q-30 -20 -70 -31.5t-42 -13.5q-10 -10 -18 -46q-2 -9 -3 -14q-19 -71 -45.5 -122
t-69.5 -101q-88 -105 -234 -158t-347 -53q-371 0 -597.5 217.5t-226.5 573.5z" />
    <glyph glyph-name="H" unicode="H" horiz-adv-x="1767" 
d="M37 139q0 71 84 104q18 7 26 11q25 11 37.5 122t12.5 322q0 274 -7.5 391.5t-23.5 137.5q-1 1 -59 29t-58 85q0 75 101 112.5t303 37.5q208 0 295.5 -31.5t87.5 -103.5q0 -35 -14.5 -58.5t-59.5 -50.5q-37 -22 -49.5 -50.5t-12.5 -111.5v-79q0 -67 26.5 -84t127.5 -17
q73 0 120 5t70 16q14 6 19.5 24t5.5 72v27q0 73 -11 122t-30 64q-8 6 -28 17q-62 35 -62 94q0 79 90 112t326 33q206 0 291.5 -31.5t85.5 -105.5q0 -63 -80 -106q-29 -16 -42 -26q-20 -15 -28 -100t-8 -366q0 -238 7 -358.5t22 -139.5q0 -1 53 -31.5t53 -91.5
q0 -78 -91.5 -113.5t-291.5 -35.5q-208 0 -302.5 34.5t-94.5 110.5q0 38 17 65.5t54 49.5q6 3 19 10q32 18 37 35q6 37 10 100t4 133q0 84 -27.5 100.5t-126.5 16.5q-78 0 -128.5 -6.5t-76.5 -20.5q-14 -6 -20 -28t-6 -74q0 -104 11 -173t28 -81l24 -15q72 -45 72 -102
q0 -78 -101 -116.5t-306 -38.5q-186 0 -280.5 38.5t-94.5 114.5z" />
    <glyph glyph-name="I" unicode="I" horiz-adv-x="942" 
d="M53 141q0 62 79 109q28 17 40 26q29 22 40 123t11 379q0 48 1 122t1 101q0 108 -9.5 154.5t-32.5 64.5q-12 9 -37 24q-70 42 -70 97q0 77 101.5 114.5t307.5 37.5q203 0 297.5 -35.5t94.5 -111.5q0 -55 -54.5 -92.5t-56.5 -41.5q-20 -28 -28.5 -194.5t-8.5 -536.5
q0 -105 8 -148t27 -61q12 -11 40 -31q68 -49 68 -104q0 -76 -101 -112.5t-310 -36.5q-194 0 -301 40t-107 113z" />
    <glyph glyph-name="J" unicode="J" horiz-adv-x="1391" 
d="M674 473v576q0 89 -13.5 116.5t-64.5 48.5q-1 1 -4 2q-84 37 -84 105q0 91 95 130.5t323 39.5q234 0 323.5 -33.5t89.5 -116.5q0 -70 -72 -112q-5 -3 -7 -4q-66 -38 -72 -171v-5q-4 -111 -6 -304q-2 -340 -33 -436q-56 -172 -198 -260t-365 -88q-259 0 -415.5 115.5
t-156.5 304.5q0 113 66.5 184.5t171.5 71.5q104 0 172 -65t68 -164q0 -19 -7.5 -57t-7.5 -58q0 -22 15.5 -36.5t39.5 -14.5q67 0 104.5 60.5t37.5 170.5z" />
    <glyph glyph-name="K" unicode="K" horiz-adv-x="1804" 
d="M1610 -16h-377q-45 0 -64.5 10.5t-54.5 54.5q-74 92 -182 238q-141 192 -184 192q-21 0 -31 -19t-10 -57q0 -61 7.5 -99.5t23.5 -56.5q8 -8 29 -24q64 -47 64 -108q0 -78 -84.5 -111t-291.5 -33q-210 0 -305 33.5t-95 106.5q0 53 58 103q20 18 28 28q32 39 45 151t13 432
q0 191 -12 283.5t-37 112.5q-9 6 -27 17q-68 44 -68 97q0 75 103 116.5t293 41.5q189 0 273.5 -33.5t84.5 -107.5q0 -41 -11.5 -62t-45.5 -41q-41 -25 -57.5 -72t-16.5 -143q0 -34 12.5 -51.5t36.5 -17.5q23 0 47 19t60 67q46 63 76 114.5t30 65.5q0 11 -17.5 48.5
t-17.5 70.5q0 75 95.5 109t312.5 34q171 0 245 -31t74 -100q0 -58 -36.5 -87.5t-108.5 -29.5q-9 0 -24.5 1t-22.5 1q-45 0 -84 -18t-86 -58q-79 -65 -122.5 -122t-43.5 -95q0 -48 149 -230.5t380 -408.5q2 -2 10 -11q51 -55 124 -97q14 -9 22.5 -36.5t8.5 -66.5
q0 -70 -36.5 -95t-151.5 -25z" />
    <glyph glyph-name="L" unicode="L" horiz-adv-x="1393" 
d="M885 -2h-715q-60 0 -94.5 34.5t-34.5 94.5t72 105q32 21 45 34q28 31 39.5 99t11.5 288v187q0 217 -6.5 289t-22.5 90q-11 12 -45 22t-45 16q-24 17 -34.5 37.5t-10.5 51.5q0 75 114 116t326 41q208 0 314 -37t106 -110q0 -65 -80 -102q-24 -11 -37 -19
q-27 -18 -35.5 -31.5t-13.5 -44.5q-5 -43 -7.5 -136t-2.5 -273v-164q0 -125 2.5 -186.5t7.5 -83.5q7 -27 42.5 -41.5t95.5 -14.5q112 0 168.5 30t89.5 106q7 16 17 45q29 85 85 85q59 0 100 -48t41 -120q0 -68 -30 -159t-74 -154q-25 -37 -56.5 -56.5t-66.5 -19.5
q-3 0 -20 4q-109 25 -246 25z" />
    <glyph glyph-name="M" unicode="M" horiz-adv-x="1995" 
d="M20 106q0 63 60.5 94.5t64.5 36.5q27 34 41.5 229.5t14.5 534.5q0 122 -14 162t-52 66q-6 4 -19 13q-79 53 -79 112q0 72 79 106.5t242 34.5q93 0 164.5 -10t94.5 -25q17 -12 42.5 -50t100.5 -169q41 -72 100 -185q97 -188 144 -188q49 0 137 189q64 138 112 227
q44 81 72.5 122t50.5 56q29 19 77 27t183 8q172 0 242 -33t70 -108q0 -51 -60 -85q-19 -11 -26 -18q-32 -31 -46 -142t-14 -335q0 -212 11 -350.5t28 -163.5q4 -5 27 -18q80 -45 80 -115q0 -77 -87.5 -109t-310.5 -32q-217 0 -302 33t-85 112q0 57 61 95q25 16 33 26
q22 26 30.5 91.5t8.5 229.5q0 45 -12 67t-37 22q-39 0 -92 -129q-19 -46 -31 -72q-27 -61 -71 -165q-116 -271 -172 -271q-35 0 -76 64t-156 327q-22 51 -54 135q-49 131 -85 131q-26 0 -35.5 -48t-9.5 -228q0 -118 11 -148.5t42 -46.5l14 -7q74 -37 74 -97q0 -66 -66 -93.5
t-227 -27.5q-158 0 -225.5 27.5t-67.5 90.5z" />
    <glyph glyph-name="N" unicode="N" horiz-adv-x="1774" 
d="M203 686q0 249 -11 351.5t-36 153.5q-14 26 -60 46q-15 6 -22 10q-30 17 -46 40t-16 50q0 77 82.5 109.5t286.5 32.5q67 0 105 -6t63 -19q39 -21 93.5 -66.5t176.5 -160.5q14 -14 42 -39q326 -307 380 -307q23 0 35 24t12 70q0 51 2 109v18q0 70 -16.5 102t-61.5 53
q-3 2 -10 5q-61 28 -61 94q0 75 66 105t253 30q167 0 232 -28.5t65 -98.5q0 -40 -14.5 -64.5t-69.5 -52.5q-41 -22 -55 -52t-25 -136q-9 -91 -14 -303q-2 -103 -4 -157q-1 -41 -4 -117q-9 -312 -23 -367q-15 -67 -43 -97t-73 -30q-44 0 -123 56.5t-301 262.5
q-87 80 -216 205q-181 176 -217 176q-37 0 -52 -40.5t-15 -149.5q0 -83 10.5 -149.5t23.5 -83.5q8 -11 62.5 -44.5t54.5 -85.5q0 -74 -75 -110.5t-226 -36.5q-157 0 -235 34.5t-78 104.5q0 50 54 87t61 46q23 34 33 124t10 302z" />
    <glyph glyph-name="O" unicode="O" horiz-adv-x="1731" 
d="M49 745q0 158 67.5 310t186.5 260q111 102 255.5 152.5t326.5 50.5q172 0 320.5 -57.5t258.5 -166.5q107 -106 162 -247.5t55 -307.5q0 -176 -62 -320t-185 -255q-110 -100 -254.5 -152.5t-311.5 -52.5q-127 0 -241.5 32.5t-214.5 96.5q-171 111 -267 285t-96 372z
M606 956q0 -81 23 -181.5t65 -205.5q55 -133 125 -203.5t148 -70.5q74 0 115.5 61.5t41.5 171.5q0 85 -18.5 177t-54.5 184q-63 157 -130 228t-151 71q-74 0 -119 -62.5t-45 -169.5z" />
    <glyph glyph-name="P" unicode="P" horiz-adv-x="1466" 
d="M723 532q0 -16 -1 -43t-1 -38q0 -87 9.5 -132t31.5 -63q12 -9 37 -22q69 -36 69 -95q0 -82 -95 -119.5t-304 -37.5q-222 0 -324 39t-102 124q0 56 61 91.5t68 46.5q18 27 25.5 188t7.5 604q0 90 -15.5 128.5t-55.5 57.5q-12 6 -33 14q-81 33 -81 95q0 59 52 86t164 27
q35 0 84.5 -3t64.5 -3q62 0 219 11t250 11q301 0 449.5 -116t148.5 -351q0 -240 -157 -373t-443 -133q-31 0 -63 1.5t-66 4.5zM707 1006v-95q0 -85 8 -107t35 -22q83 0 130.5 58t47.5 161q0 114 -44 177t-122 63q-33 0 -44 -31t-11 -147v-57z" />
    <glyph glyph-name="Q" unicode="Q" horiz-adv-x="1731" 
d="M1102 -4q101 -36 187.5 -55t150.5 -19q36 0 92 18.5t80 18.5q37 0 55.5 -27.5t18.5 -83.5q0 -92 -146 -175t-332 -83q-100 0 -213.5 29t-261.5 92q-78 34 -206 92q-227 103 -269 103q-14 0 -44.5 -7.5t-47.5 -7.5q-41 0 -66.5 24t-25.5 62q0 62 55 104t137 42
q36 0 74 -8.5t76 -24.5q-175 110 -271 281t-96 374q0 158 68.5 311.5t185.5 258.5q111 100 258 151.5t324 51.5q173 0 322 -57.5t257 -166.5q107 -106 162 -247.5t55 -307.5q0 -287 -156 -487.5t-423 -255.5zM590 958q0 -78 24.5 -181.5t69.5 -215.5q55 -135 130 -207.5
t157 -72.5q78 0 123 63t45 176q0 83 -21 178.5t-61 194.5q-63 156 -134 230.5t-157 74.5q-79 0 -127.5 -65.5t-48.5 -174.5z" />
    <glyph glyph-name="R" unicode="R" horiz-adv-x="1694" 
d="M688 868q24 -6 37 -8t23 -2q80 0 114.5 49.5t34.5 167.5q0 90 -35 133t-108 43q-43 0 -56.5 -28t-13.5 -136v-92q0 -47 1 -74t3 -53zM696 612v-198q0 -94 6 -126.5t21 -43.5q10 -8 32 -21q76 -45 76 -106q0 -74 -85.5 -104.5t-303.5 -30.5t-313.5 33t-95.5 108
q0 59 83 103q13 7 22 12q24 13 39.5 152t15.5 368v76q0 247 -9 321t-32 90q-13 9 -41 23q-78 40 -78 98q0 59 68 89t202 30q18 0 86 -1t119 -1q83 0 216.5 4t184.5 4q262 0 402.5 -99.5t140.5 -285.5q0 -89 -35 -157.5t-104 -114.5q-16 -11 -45 -25q-47 -24 -47 -43
q0 -23 61 -41t90 -39q60 -42 95.5 -110t54.5 -181q2 -13 5 -35q18 -112 45 -122q7 -3 18 -7q98 -37 98 -94q0 -74 -93.5 -120t-248.5 -46q-92 0 -160 18.5t-113 55.5q-80 66 -133 268q-1 5 -2 9q-3 12 -10 39q-66 260 -178 260q-15 0 -28 -2.5t-26 -6.5z" />
    <glyph glyph-name="S" unicode="S" horiz-adv-x="1425" 
d="M676 -41q-175 0 -332.5 46.5t-210.5 105.5q-45 51 -70.5 144t-25.5 208q0 66 24 97.5t76 31.5q65 0 128 -95q21 -32 34 -48q72 -94 154 -141.5t172 -47.5q67 0 109 27t42 69q0 56 -159 111q-71 24 -113 41q-218 84 -326 209.5t-108 294.5q0 217 169.5 358t434.5 141
q98 0 196.5 -21.5t100.5 -21.5q26 0 68 9.5t59 9.5q38 0 69.5 -17.5t65.5 -58.5q54 -64 84.5 -133t30.5 -127q0 -71 -42 -115.5t-108 -44.5q-61 0 -158 94q-31 30 -49 45q-44 41 -101 64t-116 23q-58 0 -90.5 -23t-32.5 -64q0 -79 234 -148q34 -10 50 -15
q238 -71 336.5 -177.5t98.5 -285.5q0 -242 -191.5 -393.5t-502.5 -151.5z" />
    <glyph glyph-name="T" unicode="T" horiz-adv-x="1505" 
d="M1120 1485q15 0 60 14t75 14q34 0 66 -14t55 -41q60 -69 94.5 -155t34.5 -166q0 -93 -42.5 -144t-119.5 -51q-48 0 -91.5 30.5t-77.5 88.5q-11 17 -27 46q-47 83 -82 83q-26 0 -38.5 -20.5t-12.5 -63.5v-70q0 -73 -5 -259.5t-5 -297.5q0 -108 16.5 -152t58.5 -67
q12 -6 32 -15q73 -32 73 -95q0 -87 -110.5 -125.5t-358.5 -38.5q-201 0 -312.5 42.5t-111.5 118.5q0 67 90 104q36 15 51 25q35 26 53.5 178t18.5 414v93q0 142 -13 182.5t-47 40.5q-36 0 -88 -76q-15 -22 -24 -35q-57 -77 -96 -104t-86 -27q-59 0 -97.5 44.5t-38.5 113.5
q0 58 30 135t83 156q41 60 81.5 91t78.5 31q19 0 58 -14t58 -14h717z" />
    <glyph glyph-name="U" unicode="U" horiz-adv-x="1767" 
d="M205 991v23q0 104 -12 136t-47 56q-3 2 -8 5q-77 50 -77 106q0 82 119.5 128t335.5 46q189 0 270.5 -33t81.5 -108q0 -72 -87 -122q-17 -10 -26 -16q-23 -16 -33.5 -136.5t-10.5 -370.5q0 -210 63 -296.5t211 -86.5q79 0 138 24.5t94 71.5q30 42 42.5 136t12.5 339v63
q0 159 -7 214t-24 73q-8 9 -67.5 37.5t-59.5 77.5q0 62 90.5 97.5t249.5 35.5q138 0 211.5 -34.5t73.5 -98.5q0 -61 -74 -104q-16 -9 -23 -13q-47 -31 -57 -162q-1 -13 -2 -20q-6 -99 -11 -274q-10 -379 -63 -500q-70 -160 -231.5 -240t-413.5 -80q-305 0 -482 140.5
t-177 379.5v506z" />
    <glyph glyph-name="V" unicode="V" horiz-adv-x="1667" 
d="M453 545l-139 347q-3 7 -7 16q-115 293 -150 309q-13 6 -40 15q-78 26 -78 85q0 90 100 137t293 47q206 0 297.5 -39t91.5 -127q0 -53 -45 -81.5t-45 -36.5q0 -10 33 -92l6 -15l109 -270q15 -38 30 -57t31 -19q21 0 40 23t48 90q89 202 114 269.5t25 92.5q0 19 -41 37
q-14 6 -22 10q-18 9 -28.5 25.5t-10.5 38.5q0 71 75 111t210 40q185 0 250 -31t65 -112q0 -79 -75 -92q-16 -3 -23 -4q-69 -14 -160 -236q-28 -69 -45 -108l-148 -353q-94 -222 -154 -347.5t-95 -172.5q-37 -48 -69.5 -66t-80.5 -18q-134 0 -310 451q-34 86 -52 133z" />
    <glyph glyph-name="W" unicode="W" horiz-adv-x="2238" 
d="M238 1013q-5 13 -14 36q-52 139 -113 168l-15 6q-71 32 -71 96q0 89 99 135.5t288 46.5q180 0 264 -34t84 -107q0 -50 -30 -84.5t-30 -42.5q0 -14 7 -40.5t20 -59.5l94 -256q12 -35 24.5 -52.5t24.5 -17.5q14 0 23.5 11.5t20.5 40.5l42 116q9 23 13 35.5t4 19.5
q0 9 -16 55l-5 15l-24 71q-22 66 -67 99q-5 4 -7 6q-13 13 -22 36.5t-9 43.5q0 76 88 110.5t287 34.5q172 0 249 -32t77 -103q0 -38 -41 -80t-41 -59q0 -29 31 -109q11 -27 16 -41l55 -143q1 -2 2 -5q48 -122 70 -122q12 0 25 20t38 84l68 176q16 41 25.5 76t9.5 51
q0 33 -36 51q-12 6 -20 11q-25 16 -37 36t-12 48q0 68 71 104.5t202 36.5q164 0 224 -29.5t60 -103.5q0 -76 -83 -115l-5 -2q-78 -34 -128 -168q-8 -22 -13 -35l-213 -552q-22 -57 -59 -157q-140 -378 -252 -378q-65 0 -106 47.5t-95 204.5l-135 397q-1 3 -3 8
q-13 37 -30 37q-9 0 -16 -8t-17 -33l-141 -405q-48 -138 -90.5 -190t-102.5 -52q-43 0 -78.5 26t-66.5 81q-19 33 -76.5 191.5t-97.5 260.5z" />
    <glyph glyph-name="X" unicode="X" horiz-adv-x="1731" 
d="M596 700q-215 289 -297 392.5t-104 117.5q-11 7 -46 14.5t-53 18.5q-24 15 -36.5 37.5t-12.5 50.5q0 85 105.5 122.5t347.5 37.5q273 0 338 -32.5t65 -127.5q0 -35 -33.5 -65t-33.5 -39q0 -13 28 -50t82 -96q51 61 80 108.5t29 70.5q0 7 -46 37.5t-46 70.5q0 65 72.5 94
t236.5 29q189 0 260.5 -29.5t71.5 -103.5q0 -24 -6.5 -42t-20.5 -34q-24 -25 -96 -28q-37 -1 -58 -5q-60 -10 -257 -254q-55 -68 -87 -106q198 -268 323 -429t159 -192q16 -15 51.5 -25.5t44.5 -15.5q28 -13 39.5 -32t11.5 -54q0 -89 -109 -126.5t-380 -37.5
q-220 0 -308 30.5t-88 103.5q0 42 44 77.5t44 55.5q0 22 -39.5 80.5t-119.5 154.5q-69 -86 -111.5 -151t-42.5 -82q0 -14 46 -52.5t46 -76.5q0 -69 -72 -97t-262 -28q-195 0 -268.5 29t-73.5 100q0 27 14 51t38 37q19 11 75 16.5t82 18.5q38 19 130 131.5t243 324.5z" />
    <glyph glyph-name="Y" unicode="Y" horiz-adv-x="1481" 
d="M1108 965q-6 -8 -20 -24q-56 -67 -72 -112q-11 -30 -16 -73t-5 -129v-49q0 -143 11.5 -214.5t36.5 -89.5q10 -7 33 -19q75 -38 75 -103q0 -89 -96.5 -128.5t-313.5 -39.5q-201 0 -307 41t-106 118q0 34 17.5 58t76.5 57q29 16 38 25.5t13 23.5q7 31 10.5 113t3.5 203
q0 63 -2 97.5t-8 54.5q-10 35 -66 106q-13 17 -20 26l-203 264q-38 50 -102 69q-23 6 -32 11q-32 18 -48 43.5t-16 59.5q0 82 84.5 114.5t316.5 32.5q233 0 323.5 -31t90.5 -106q0 -39 -25.5 -74t-25.5 -45q0 -13 11.5 -38t31.5 -54q24 -36 42 -52t33 -16q24 0 65.5 61.5
t41.5 96.5q0 9 -28.5 50.5t-28.5 76.5q0 63 76.5 96t222.5 33q163 0 232 -29t69 -96q0 -38 -20.5 -62.5t-61.5 -35.5q-8 -2 -24 -5q-50 -10 -73 -28q-40 -30 -121 -133l-2 -3z" />
    <glyph glyph-name="Z" unicode="Z" horiz-adv-x="1354" 
d="M223 489l414 623q17 26 26 45.5t9 30.5q0 21 -23.5 30t-89.5 9q-81 0 -123 -18t-67 -62q-9 -15 -23 -47q-48 -109 -137 -109q-55 0 -87 39.5t-32 106.5q0 70 28 145t77 137q37 47 71 68.5t70 21.5q24 0 55 -8t37 -8h727q102 0 143 -24.5t41 -82.5q0 -68 -190 -366
q-72 -113 -113 -178l-276 -445q-20 -30 -27.5 -47t-7.5 -31q0 -19 25.5 -27.5t80.5 -8.5q79 0 124.5 14t66.5 45q13 20 34 62q51 104 120 104q59 0 90.5 -42.5t31.5 -121.5q0 -138 -66 -254.5t-134 -116.5q-9 0 -58.5 13.5t-93.5 13.5h-727q-117 0 -166 27.5t-49 91.5
q0 44 181 314z" />
    <glyph glyph-name="bracketleft" unicode="[" horiz-adv-x="977" 
d="M137 1305q0 90 54.5 139t154.5 49h508q72 0 98.5 -24.5t26.5 -92.5q0 -67 -26 -91t-98 -25q-15 -1 -40 -1q-158 -1 -158 -83v-1147q1 -83 159 -84h38q73 -1 99 -25.5t26 -91.5q0 -71 -27 -94t-141 -23h-465q-100 0 -154.5 49t-54.5 140v1405z" />
    <glyph glyph-name="backslash" unicode="\" horiz-adv-x="569" 
d="M375 -147l-410 1596q-3 12 -5.5 25.5t-2.5 18.5q0 13 10.5 20t30.5 7q120 0 157 -10.5t44 -36.5l422 -1625v-4v-10q0 -14 -13 -19t-57 -5q-108 0 -139 9t-37 34z" />
    <glyph glyph-name="bracketright" unicode="]" horiz-adv-x="977" 
d="M842 -102q0 -91 -54.5 -140t-154.5 -49h-465q-1 0 -7 1q-20 1 -38 1q-72 0 -97.5 24.5t-25.5 92.5t25 91.5t98 25.5h38q160 1 161 84v1147q0 82 -160 83q-26 0 -40 1q-72 1 -97 24.5t-25 91.5q0 71 27 94t141 23h465q100 0 154.5 -49t54.5 -139v-1407z" />
    <glyph glyph-name="asciicircum" unicode="^" horiz-adv-x="2048" 
d="M879 1462h288l465 -565h-131l-479 315l-477 -315h-133z" />
    <glyph glyph-name="underscore" unicode="_" 
d="M0 -201h1024v-282h-1024v282z" />
    <glyph glyph-name="glyph67" unicode="`" 
d="M599 1212l-378 91q-43 10 -57 22.5t-14 38.5q0 61 26 112.5t55 51.5q22 0 61 -13l10 -4l343 -122q69 -25 86 -39t17 -35q0 -51 -22 -82t-58 -31q-15 0 -32 2.5t-37 7.5z" />
    <glyph glyph-name="a" unicode="a" horiz-adv-x="1245" 
d="M635 426q0 35 -8.5 44t-44.5 9q-50 0 -77.5 -34t-27.5 -97q0 -59 21 -90t61 -31q44 0 60 34t16 165zM636 633q1 6 2 17q3 59 3 85q0 102 -21 146.5t-69 44.5q-53 0 -121 -86q-12 -15 -18 -22q-47 -57 -89.5 -82t-91.5 -25q-54 0 -90.5 37.5t-36.5 95.5q0 112 145.5 189
t366.5 77q245 0 371.5 -93.5t126.5 -273.5q0 -47 -3 -126.5t-3 -110.5v-31q0 -126 11 -155t50 -39q30 -8 46 -26.5t16 -45.5q0 -84 -104.5 -159t-239.5 -75q-47 0 -78 10.5t-55 32.5q-13 13 -34 35q-33 37 -48 37q-14 0 -38 -19q-10 -8 -16 -12q-59 -42 -111 -58.5
t-122 -16.5q-164 0 -263 88.5t-99 232.5q0 147 129.5 246.5t320.5 99.5q32 0 72.5 -4.5t90.5 -13.5z" />
    <glyph glyph-name="b" unicode="b" horiz-adv-x="1405" 
d="M637 424q0 -130 19.5 -177.5t68.5 -47.5q59 0 94 70t35 190q0 139 -38.5 217t-106.5 78q-36 0 -54 -25.5t-18 -75.5v-229zM633 967q63 70 142.5 106.5t170.5 36.5q177 0 293.5 -134t116.5 -341q0 -121 -42 -238t-114 -200q-96 -110 -220 -167t-267 -57q-113 0 -208 35
t-179 107q-40 -17 -74 -25t-62 -8q-39 0 -59 15t-20 44q0 5 12 44.5t16 76.5q7 50 10 146.5t3 388.5q0 176 -7 248.5t-22 76.5q-14 5 -41 11q-100 22 -100 92q0 44 36 81t119 76q99 46 206.5 71.5t203.5 25.5q52 0 69 -10.5t17 -61.5v-440z" />
    <glyph glyph-name="c" unicode="c" horiz-adv-x="1169" 
d="M47 539q0 98 28 181.5t85 151.5q94 115 227.5 175.5t292.5 60.5q206 0 334.5 -88.5t128.5 -226.5q0 -93 -62 -156.5t-151 -63.5q-53 0 -94.5 23t-71.5 68q-11 16 -27 51q-37 86 -100 86q-50 0 -81.5 -40t-31.5 -104q0 -112 79 -198t181 -86q60 0 142 32.5t110 32.5
q44 0 75.5 -37t31.5 -90q0 -67 -45.5 -130.5t-126.5 -110.5q-82 -47 -171 -72t-177 -25q-115 0 -218.5 41t-183.5 117q-87 84 -130.5 186t-43.5 222z" />
    <glyph glyph-name="d" unicode="d" horiz-adv-x="1430" 
d="M37 551q0 127 45 235t133 191q71 66 159 101.5t181 35.5q114 0 224 -53q18 -8 22 -8t6 6.5t2 36.5v43q0 37 -2.5 47.5t-7.5 13.5q-15 8 -48 19q-75 26 -75 75q0 43 33 71.5t114 53.5q104 32 217.5 51t198.5 19q35 0 45 -13.5t10 -70.5v-33q0 -15 -1 -89q-7 -373 -7 -738
v-60q0 -111 5.5 -150.5t18.5 -51.5q9 -7 67.5 -30.5t58.5 -70.5q0 -33 -22 -63t-60 -49q-90 -45 -191 -71t-186 -26q-86 0 -116 14t-30 52v45q0 14 -4 23.5t-10 9.5q-7 0 -32 -20q-15 -12 -25 -19q-64 -47 -119 -66.5t-119 -19.5q-92 0 -176.5 39t-155.5 114
q-77 82 -115 183t-38 223zM555 545q0 -120 35.5 -190t93.5 -70q68 0 96.5 81.5t28.5 290.5v56q0 94 -19.5 121.5t-68.5 27.5q-79 0 -122.5 -83.5t-43.5 -233.5z" />
    <glyph glyph-name="e" unicode="e" horiz-adv-x="1169" 
d="M1030 500h-463q-38 0 -50.5 -6.5t-12.5 -22.5q0 -76 77.5 -140.5t178.5 -64.5q75 0 161 45t103 45q37 0 61.5 -30t24.5 -76q0 -41 -34 -87.5t-95 -86.5q-80 -53 -170.5 -80t-189.5 -27q-249 0 -412.5 161t-163.5 402q0 88 27 172.5t80 157.5q82 116 208.5 181t270.5 65
q224 0 369 -128.5t145 -322.5q0 -84 -26.5 -120.5t-88.5 -36.5zM600 705h21q92 0 110.5 12t18.5 59q0 58 -33.5 94.5t-85.5 36.5q-54 0 -93.5 -42.5t-39.5 -102.5q0 -35 12.5 -46t62.5 -11h27z" />
    <glyph glyph-name="f" unicode="f" horiz-adv-x="936" 
d="M459 -27q-185 0 -282 39t-97 113q0 51 77 102l7 4q1 1 4 3q37 23 45 46q10 32 16.5 108.5t6.5 172.5q-1 67 -55 71q-18 2 -28 3q-9 1 -26 2q-66 6 -66 63q0 78 8 117t23 47q17 10 52.5 13t35.5 14q0 2 -42 86.5t-42 165.5q0 151 130 249.5t335 98.5q177 0 294.5 -79.5
t117.5 -192.5q0 -83 -48.5 -130t-133.5 -47q-50 0 -86 18.5t-94 85.5q-2 2 -6 7q-66 76 -111 76q-31 0 -48.5 -19t-17.5 -53q0 -27 12.5 -50.5t42.5 -51.5q34 -32 89 -66.5t69 -46.5q20 -17 32 -43q4 -8 5 -8q11 -7 31.5 -9.5t62.5 -2.5h72q38 0 47.5 -10.5t9.5 -63.5
q0 -107 -12.5 -137.5t-71.5 -30.5h-33q-64 0 -78 -14t-14 -60q0 -130 17.5 -209t50.5 -98q16 -10 51 -24q80 -31 80 -99q0 -81 -106 -120.5t-326 -39.5z" />
    <glyph glyph-name="g" unicode="g" horiz-adv-x="1243" 
d="M332 -22q-3 -9 -4.5 -16.5t-1.5 -16.5q0 -56 73 -100t174 -44q94 0 147.5 27t53.5 74q0 27 -16.5 42t-46.5 15q-18 0 -77.5 -5t-101.5 -5q-58 0 -107 7t-93 22zM483 784q0 -110 33 -171.5t92 -61.5q54 0 80.5 39.5t26.5 120.5q0 113 -32 172t-93 59q-52 0 -79.5 -40.5
t-27.5 -117.5zM221 463q-79 43 -121.5 114.5t-42.5 159.5q0 161 146.5 266t374.5 105q81 0 191 -24.5t138 -24.5q86 0 168.5 50t83.5 50q39 0 59.5 -27.5t20.5 -78.5q0 -58 -28 -108.5t-91 -105.5q3 -17 4.5 -35.5t1.5 -35.5q0 -167 -140.5 -271t-369.5 -104
q-40 0 -84.5 3.5t-93.5 10.5q-14 -7 -21 -18.5t-7 -28.5q0 -35 43.5 -58t113.5 -23q39 0 155.5 14t195.5 14q155 0 236 -68.5t81 -199.5q0 -191 -187 -312.5t-489 -121.5q-238 0 -392.5 87.5t-154.5 215.5q0 58 34 97t104 58q-66 35 -98 81.5t-32 107.5q0 71 51 124t150 87z
" />
    <glyph glyph-name="h" unicode="h" horiz-adv-x="1507" 
d="M647 1366v-399q0 -27 4 -36t15 -9q10 0 35 33q20 27 34 42q52 56 121.5 83.5t155.5 27.5q108 0 193 -51.5t122 -141.5q40 -95 45 -396q1 -80 2 -123q0 -9 1 -26q2 -111 26 -141q7 -8 25 -23q51 -43 51 -91q0 -69 -78 -99t-260 -30q-175 0 -257.5 33t-82.5 102
q0 28 25 63.5t30 45.5q13 26 19 66.5t6 127.5v115q0 117 -33 168t-107 51q-49 0 -73.5 -27.5t-24.5 -81.5q0 -160 3.5 -253.5t10.5 -132.5q4 -17 38 -61.5t34 -80.5q0 -71 -82 -103t-262 -32q-163 0 -261.5 39.5t-98.5 103.5q0 51 56 89q23 16 32 26q23 30 33 105t10 269
v166q0 191 -9 276t-30 101q-11 9 -36 23q-63 35 -63 98q0 37 23 61.5t94 57.5q98 45 214.5 70.5t223.5 25.5q44 0 60 -20t16 -99v-12z" />
    <glyph glyph-name="i" unicode="i" horiz-adv-x="829" 
d="M678 979v-635q0 -40 7.5 -60t34.5 -44q5 -4 15 -13q56 -46 56 -94q0 -75 -90 -113t-269 -38q-182 0 -280.5 40.5t-98.5 114.5q0 51 62 98h1q5 4 12 9q29 23 34 41q8 24 11 82t3 188v45q0 99 -12 135t-46 58q-3 2 -12 7q-61 36 -61 89q0 41 30 69t109 58
q112 43 232.5 68.5t193.5 25.5q41 0 54.5 -12t13.5 -58v-61zM285 1159q-109 0 -165.5 39.5t-56.5 116.5q0 81 104 138.5t257 57.5q114 0 176 -37t62 -106q0 -88 -107.5 -148.5t-269.5 -60.5z" />
    <glyph glyph-name="j" unicode="j" horiz-adv-x="834" 
d="M301 1155q-109 0 -165 39.5t-56 116.5q0 80 103.5 138t256.5 58q115 0 176.5 -37t61.5 -106q0 -88 -107.5 -148.5t-269.5 -60.5zM186 -6v688q0 52 -11 70t-46 34q-43 20 -57.5 41.5t-14.5 59.5q0 39 31 70.5t98 60.5q100 43 205.5 65.5t210.5 22.5q48 0 64 -11.5
t16 -50.5v-1050q0 -197 -96 -294t-291 -97q-117 0 -198 52t-81 122q0 29 16.5 50t39.5 21q12 0 35 -3t32 -3q30 0 45 13.5t15 40.5q0 3 -6.5 35.5t-6.5 62.5z" />
    <glyph glyph-name="k" unicode="k" horiz-adv-x="1536" 
d="M629 1362v-533q0 -19 7.5 -28.5t22.5 -9.5q52 0 116.5 41t64.5 71q0 7 -23.5 35t-23.5 53q0 53 69.5 79t210.5 26q166 0 244 -31.5t78 -97.5q0 -58 -68 -71q-24 -5 -39 -9q-68 -19 -133 -70t-65 -82q0 -34 89 -157.5t248 -309.5q20 -23 61 -53q68 -50 68 -111
q0 -67 -56 -91.5t-290 -24.5h-110q-111 0 -188 109q-5 7 -7 10l-186 266q-2 2 -6 8q-25 37 -43 37q-13 0 -21 -11t-8 -30q0 -1 1 -14t1 -25q0 -44 6 -74t15 -37q6 -5 16 -13q55 -44 55 -91q0 -72 -84 -106.5t-258 -34.5q-183 0 -274.5 35t-91.5 106q0 42 54 76q29 18 40 30
q19 24 27 107.5t8 304.5v317q0 120 -7.5 158t-26.5 50q-17 9 -54 21q-78 25 -78 77q0 38 38.5 70.5t125.5 68.5q101 42 207 66t188 24q47 0 63.5 -22t16.5 -109z" />
    <glyph glyph-name="l" unicode="l" horiz-adv-x="825" 
d="M29 127q0 61 69 92q25 11 35 19q27 20 37 114.5t10 413.5v84q0 148 -9.5 194.5t-33.5 69.5q-14 14 -74.5 43t-60.5 84q0 42 22.5 72.5t79.5 62.5q95 53 223 85t248 32q61 0 82 -17.5t21 -72.5q0 -7 -1 -48q-7 -321 -7 -679q0 -207 11 -304t36 -122q8 -9 32 -25
q60 -40 60 -94q0 -74 -101.5 -112.5t-297.5 -38.5q-194 0 -287.5 36t-93.5 111z" />
    <glyph glyph-name="m" unicode="m" horiz-adv-x="2034" 
d="M1905 303q0 -45 34.5 -94.5t34.5 -77.5q0 -74 -75 -109.5t-232 -35.5q-152 0 -227.5 33.5t-75.5 101.5q0 35 27 83l12 21q13 27 18.5 95t5.5 217q0 128 -20 178.5t-68 50.5t-70 -44.5t-22 -143.5q0 -133 5 -212t16 -113q1 -4 10 -19q31 -52 31 -103q0 -78 -70.5 -111.5
t-232.5 -33.5t-229.5 30.5t-67.5 102.5q0 41 39 97q11 16 16 24q12 19 17 61.5t5 179.5q0 168 -21 226.5t-75 58.5q-43 0 -59.5 -47.5t-16.5 -210.5v-172q0 -60 19.5 -123t19.5 -78q0 -77 -70 -113t-223 -36q-164 0 -238.5 34t-74.5 109q0 40 46 79q18 16 28 25
q18 20 25.5 78.5t7.5 233.5q0 132 -7.5 179t-25.5 67q-8 8 -23 22q-47 43 -47 82q0 48 37.5 80t140.5 69q82 31 165 48.5t138 17.5q32 0 47.5 -9.5t22.5 -33.5q8 -26 11 -86.5t28 -60.5q16 0 37.5 32t34.5 46q53 55 121 83.5t151 28.5q66 0 117.5 -22t87.5 -66
q16 -20 38 -57t34 -37t38 31t43 47q66 59 120 81.5t126 22.5q157 0 236.5 -88t79.5 -262v-457z" />
    <glyph glyph-name="n" unicode="n" horiz-adv-x="1511" 
d="M61 127q0 46 39 77l39 31q12 20 16.5 102t4.5 316v33q0 51 -7 65.5t-47 41.5q-34 22 -48.5 43t-14.5 47q0 37 31 69t92 58q117 51 229 80.5t176 29.5q43 0 63.5 -23t20.5 -71q0 -54 6 -70t21 -16q12 0 29 27q12 20 22 32q42 54 104.5 81.5t143.5 27.5q105 0 192.5 -36.5
t137.5 -100.5q41 -54 59.5 -127.5t18.5 -196.5q0 -89 -3.5 -191.5t-3.5 -115.5q0 -47 8.5 -70t36.5 -53q4 -3 11 -10q41 -39 41 -76q0 -80 -88 -113.5t-308 -33.5q-143 0 -215.5 31.5t-72.5 95.5q0 34 31 66q13 14 18 22q20 31 28.5 90t8.5 235q0 127 -30.5 184.5
t-96.5 57.5q-54 0 -76.5 -42.5t-22.5 -152.5q0 -166 6 -239.5t19 -97.5q3 -6 14 -19q35 -44 35 -90q0 -76 -85.5 -108.5t-287.5 -32.5q-140 0 -217.5 38t-77.5 105z" />
    <glyph glyph-name="o" unicode="o" horiz-adv-x="1309" 
d="M526 674q0 -65 14.5 -144.5t39.5 -152.5q24 -73 54.5 -109.5t67.5 -36.5q42 0 66.5 37t24.5 101q0 193 -54.5 333t-124.5 140q-44 0 -66 -42t-22 -126zM37 522q0 128 51.5 236t153.5 192q92 77 208 117.5t244 40.5q259 0 419.5 -148t160.5 -389q0 -121 -46.5 -229.5
t-133.5 -191.5q-95 -89 -213.5 -134t-257.5 -45q-121 0 -222 37.5t-180 112.5q-89 83 -136.5 187t-47.5 214z" />
    <glyph glyph-name="p" unicode="p" horiz-adv-x="1466" 
d="M676 12q0 -62 13 -90.5t54 -50.5l28 -14q89 -45 89 -107q0 -75 -105 -112t-319 -37q-181 0 -281 38t-100 107q0 59 76 108q25 16 37 25q23 17 32 93t9 327q0 183 -8.5 289.5t-24.5 124.5q-13 15 -47.5 23.5t-45.5 15.5q-27 18 -38.5 36.5t-11.5 45.5q0 36 38.5 76
t106.5 73q114 57 230 90t194 33q34 0 45.5 -13t11.5 -53q1 -38 6.5 -52.5t18.5 -14.5q15 0 48 30q17 16 28 25q43 37 100.5 56.5t124.5 19.5q196 0 316 -145t120 -386q0 -126 -33.5 -230t-101.5 -187q-70 -87 -159 -133t-187 -46q-78 0 -162 40t-88 40q-7 0 -10.5 -10.5
t-3.5 -34.5zM770 793q-46 0 -65.5 -16.5t-26.5 -63.5q-8 -70 -12 -149.5t-4 -164.5q0 -79 22.5 -108t83.5 -29q76 0 115 59t39 175q0 129 -44.5 213t-107.5 84z" />
    <glyph glyph-name="q" unicode="q" horiz-adv-x="1427" 
d="M563 608q0 -157 42 -245.5t116 -88.5q44 0 60 36.5t16 176.5v74q0 177 -24 239t-83 62q-62 0 -94.5 -64.5t-32.5 -189.5zM1286 229q0 -199 10 -263.5t35 -86.5q13 -11 39 -28q72 -48 72 -105q0 -71 -101 -108t-292 -37q-228 0 -336.5 36.5t-108.5 112.5q0 34 15 55.5
t60 44.5q8 4 19 10q93 46 93 165q0 16 -7.5 24t-21.5 8q-8 0 -35 -17q-105 -67 -215 -67q-198 0 -334.5 160.5t-136.5 398.5q0 266 162 421t442 155q98 0 214 -22.5t134 -22.5q29 0 106 25.5t124 25.5q48 0 69 -23t21 -77q0 -11 -4 -68q-23 -350 -23 -717z" />
    <glyph glyph-name="r" unicode="r" horiz-adv-x="1165" 
d="M41 147q0 60 63 104q9 6 13 9q19 14 27.5 24t11.5 22q8 29 13 128.5t5 233.5v32q0 44 -7 57t-34 27q-48 27 -67 49.5t-19 51.5q0 31 27.5 61t79.5 55q94 46 209 73.5t215 27.5q35 0 53 -12t22 -39q3 -20 6 -53q4 -54 23 -54q17 0 29 33q9 23 16 35q29 45 74.5 67.5
t107.5 22.5q124 0 201.5 -73.5t77.5 -190.5q0 -119 -70.5 -196t-179.5 -77q-55 0 -103 22t-79 60q-11 13 -24.5 44.5t-31.5 31.5q-21 0 -29.5 -48t-8.5 -183q0 -145 14 -186.5t54 -62.5q6 -3 19 -9q85 -42 85 -105q0 -78 -89.5 -111.5t-302.5 -33.5q-199 0 -300 41t-101 122
z" />
    <glyph glyph-name="s" unicode="s" horiz-adv-x="1012" 
d="M979 334q0 -158 -121 -258.5t-315 -100.5q-72 0 -146.5 18.5t-79.5 18.5q-15 0 -47 -12t-49 -12q-62 0 -130 94.5t-68 196.5q0 62 22 93t66 31q58 0 129 -75q9 -10 14 -15q49 -51 89 -76.5t73 -25.5q23 0 39 13.5t16 31.5q0 53 -101 98q-35 15 -55 25q-131 65 -199.5 158
t-68.5 204q0 148 123.5 254.5t296.5 106.5q42 0 102.5 -13.5t77.5 -13.5q22 0 59.5 16.5t53.5 16.5q63 0 130.5 -89t67.5 -181q0 -54 -32.5 -86.5t-85.5 -32.5q-30 0 -57 11.5t-56 37.5q-14 13 -39 38q-66 68 -115 68q-25 0 -43 -16t-18 -39q0 -43 122 -101q37 -17 58 -28
q157 -79 222 -161t65 -195z" />
    <glyph glyph-name="t" unicode="t" horiz-adv-x="981" 
d="M172 852q-10 0 -28 1q-136 3 -136 89q0 67 86 125q23 15 37 25l6 4q343 239 441 239q58 0 77 -25t19 -134v-95h227q50 0 60 -10t10 -47v-90q0 -51 -12.5 -65.5t-71.5 -16.5l-160 -6h-7q-61 -3 -61 -51v-377q0 -62 27 -92.5t82 -30.5q26 0 69.5 20.5t65.5 20.5
q30 0 50 -32.5t20 -84.5q0 -90 -129 -168t-297 -78q-184 0 -279.5 97t-95.5 282v500z" />
    <glyph glyph-name="u" unicode="u" horiz-adv-x="1505" 
d="M147 387v283q0 59 -10.5 81.5t-39.5 40.5q-6 4 -14 9q-58 36 -58 88q0 41 29 69t108 58q111 43 230 68.5t190 25.5q41 0 55 -14t14 -54q0 -10 -12 -192.5t-12 -353.5q0 -125 27 -174.5t91 -49.5q79 0 109.5 55.5t30.5 207.5v135q0 61 -10.5 82.5t-39.5 40.5q-3 2 -11 7
q-58 36 -58 89q0 41 28.5 69.5t104.5 57.5q108 42 225 68t185 26q43 0 55 -16t12 -105q0 -111 -7 -318.5t-7 -301.5q0 -76 45 -104q3 -2 4 -3q2 -1 3 -2q56 -36 56 -82q0 -79 -146 -134.5t-368 -55.5q-46 0 -56 7t-13 29l-3 36q-3 67 -38 67q-20 0 -56 -30q-11 -9 -16 -13
q-69 -53 -132.5 -74.5t-141.5 -21.5q-180 0 -266.5 97.5t-86.5 301.5z" />
    <glyph glyph-name="v" unicode="v" horiz-adv-x="1391" 
d="M705 -29q-123 0 -456 702q-24 49 -36 75l-4 8q-36 75 -80 94q-12 5 -36 14q-83 30 -83 97q0 75 89.5 108t299.5 33q220 0 297.5 -27t77.5 -96q0 -47 -36 -80.5t-36 -54.5q0 -32 39 -116q2 -4 2 -5q20 -46 36 -61t40 -15q21 0 38 17.5t38 60.5q23 50 35 85t12 54
q0 12 -30.5 48t-30.5 71q0 61 67.5 89t216.5 28q128 0 180 -23.5t52 -79.5q0 -38 -15.5 -59.5t-56.5 -40.5q-8 -4 -24 -10q-59 -22 -89 -81q-7 -13 -40 -83q-113 -245 -222 -459l-16 -31q-133 -262 -229 -262z" />
    <glyph glyph-name="w" unicode="w" horiz-adv-x="2032" 
d="M678 -29q-72 0 -269 396q-117 234 -194 378q-22 44 -45.5 68t-56.5 39q-7 3 -19 8q-80 33 -80 92q0 68 105.5 109t283.5 41q159 0 233.5 -33t74.5 -102q0 -24 -16.5 -53.5t-16.5 -39.5q0 -16 10 -43t37 -81q28 -59 46 -81t36 -22q17 0 50.5 52t33.5 85q0 22 -19 53
t-47 50q-30 21 -41.5 39.5t-11.5 44.5q0 65 92.5 96t290.5 31q144 0 210.5 -27.5t66.5 -87.5q0 -35 -33 -77t-33 -64q0 -18 8.5 -45.5t26.5 -63.5q22 -46 42 -68t40 -22q11 0 24 11.5t25 31.5q45 75 62.5 114t17.5 60q0 23 -28 62.5t-28 64.5q0 57 65 85t196 28
q122 0 173.5 -22t51.5 -72q0 -32 -13.5 -57t-32.5 -32q-10 -4 -31 -11q-72 -24 -105 -84q-6 -12 -32 -67q-129 -270 -263 -528q-9 -16 -24 -45q-106 -205 -171 -205q-63 0 -195 230q-5 9 -8 15q-25 44 -63 116q-63 121 -90 121q-30 0 -87 -124q-30 -66 -50 -106
q-80 -160 -119.5 -209t-79.5 -49z" />
    <glyph glyph-name="x" unicode="x" horiz-adv-x="1352" 
d="M-14 98q0 29 9 46t32 30q14 9 53.5 19.5t54.5 25.5q23 25 88 130l19 30l28 45q97 155 97 176q0 12 -21.5 44.5t-69.5 92.5q-38 49 -66 79.5t-40 37.5q-9 5 -46 11t-58 20q-19 12 -27 30.5t-8 47.5q0 72 109 107.5t329 35.5q207 0 278.5 -24.5t71.5 -86.5q0 -35 -19.5 -70
t-19.5 -38q0 -30 24.5 -64.5t45.5 -34.5q15 0 47.5 41.5t32.5 65.5q0 6 -19.5 38t-19.5 56q0 54 58.5 85.5t158.5 31.5q109 0 166 -27t57 -80q0 -44 -61.5 -81t-83.5 -62q-73 -79 -135 -178t-62 -115q0 -33 65 -135t148 -180q19 -19 59 -36q58 -26 58 -81q0 -80 -96 -113.5
t-328 -33.5q-219 0 -292 26t-73 92q0 43 40 77t40 46q0 46 -34.5 95t-63.5 49q-22 0 -64 -63.5t-42 -100.5q0 -10 19 -40t19 -56q0 -65 -48 -90t-189 -25q-129 0 -175 23t-46 81z" />
    <glyph glyph-name="y" unicode="y" horiz-adv-x="1352" 
d="M362 330l-157 341q-5 11 -13 30q-37 88 -86 112q-5 3 -18 9q-76 37 -76 102q0 82 105.5 126t306.5 44q190 0 261 -30t71 -103q0 -43 -34 -73.5t-34 -43.5q0 -16 10 -47t31 -84q21 -52 41 -72t49 -20q25 0 44.5 19.5t41.5 70.5q18 37 28.5 73t10.5 50q0 24 -41 63.5
t-41 71.5q0 59 67.5 91t192.5 32q119 0 176.5 -31t57.5 -94q0 -44 -18 -68.5t-83 -48.5q-82 -32 -139 -181l-2 -6q-29 -79 -111.5 -343.5t-156.5 -399.5q-92 -165 -204.5 -242t-258.5 -77q-153 0 -246.5 79.5t-93.5 206.5q0 85 56.5 145t133.5 60q56 0 98.5 -27t65.5 -77
q14 -29 25 -79q15 -63 43 -63q24 0 37.5 18.5t13.5 51.5q0 79 -151 408z" />
    <glyph glyph-name="z" unicode="z" horiz-adv-x="1159" 
d="M629 0h-277q-23 0 -73.5 -2t-77.5 -2q-70 0 -102.5 24t-32.5 76q0 32 15 70t50 92l219 352q11 18 30 49q79 128 79 150q0 19 -14 27t-50 8q-55 0 -85 -18.5t-60 -81.5l-5 -10q-34 -70 -98 -70q-44 0 -76 36t-32 86q0 51 17 109.5t48 112.5q30 53 60.5 76.5t68.5 23.5
q3 0 14 -3q93 -24 224 -24h223q109 0 220 2h28q72 0 106.5 -21.5t34.5 -66.5q0 -25 -19 -71.5t-56 -114.5l-240 -426q-22 -40 -30.5 -62t-8.5 -36q0 -19 14.5 -28t44.5 -9q46 0 76.5 16.5t57.5 54.5q8 12 21 37q36 68 81 68q54 0 86.5 -37t32.5 -100q0 -116 -68 -216
t-143 -100q-2 0 -12 3q-109 26 -291 26z" />
    <glyph glyph-name="braceleft" unicode="{" 
d="M856 1516v-72q-100 -3 -137 -53.5t-37 -208.5v-125q0 -227 -47 -308t-170 -114q123 -35 170 -115t47 -305v-127q0 -158 36.5 -208t137.5 -54v-70q-244 0 -333 72.5t-89 271.5v176q0 172 -54 235.5t-202 78.5v90q148 14 202 78t54 235v176q0 201 89.5 274t332.5 73z" />
    <glyph glyph-name="bar" unicode="|" 
d="M373 1565h280v-2048h-280v2048z" />
    <glyph glyph-name="braceright" unicode="}" 
d="M168 1516q243 0 332.5 -73.5t89.5 -273.5v-176q0 -171 54 -235t202 -78v-90q-148 -15 -202 -78.5t-54 -235.5v-176q0 -198 -89 -271t-333 -73v70q100 3 137 54t37 208v127q0 225 47 305t170 115q-123 33 -170 114t-47 308v125q0 156 -37.5 207.5t-136.5 54.5v72z" />
    <glyph glyph-name="asciitilde" unicode="~" horiz-adv-x="1706" 
d="M1530 842v-299q-102 -69 -192 -101t-179 -32q-54 0 -111.5 11.5t-154.5 45.5q-124 42 -194.5 56t-137.5 14q-84 0 -176 -38t-207 -120v299q119 75 216.5 109t191.5 34q58 0 123 -12t155 -41q22 -7 64 -22q152 -54 235 -54q86 0 175 36.5t192 113.5z" />
    <glyph glyph-name="nonbreakingspace" unicode="&#xa0;" horiz-adv-x="1276" 
 />
    <glyph glyph-name="exclamdown" unicode="&#xa1;" horiz-adv-x="786" 
d="M393 907q31 0 61.5 -32.5t69.5 -108.5q62 -116 93.5 -235.5t31.5 -235.5q0 -154 -67 -239t-189 -85t-190 85t-68 239q0 92 22 189t66 202q49 112 90.5 166.5t79.5 54.5zM635 1276q0 -101 -70 -171.5t-172 -70.5q-101 0 -171 70.5t-70 171.5t70 171.5t171 70.5
q102 0 172 -70.5t70 -171.5z" />
    <glyph glyph-name="cent" unicode="&#xa2;" horiz-adv-x="1276" 
d="M496 147q-193 58 -302.5 201t-109.5 336q0 203 110 340t328 205v59q0 61 37 73.5t166 12.5q31 0 43 -9.5t12 -33.5v-84q200 -28 311 -118t111 -222q0 -93 -62.5 -158t-150.5 -65q-56 0 -102.5 29t-75.5 84q-10 17 -22 56q-31 95 -99 95q-53 0 -86 -43.5t-33 -113.5
q0 -122 76 -205.5t187 -83.5q41 0 111.5 21.5t103.5 21.5q43 0 72.5 -36t29.5 -89q0 -100 -102.5 -179.5t-276.5 -109.5v-104q0 -31 -24.5 -41.5t-145.5 -10.5q-69 0 -87.5 11.5t-18.5 60.5v100z" />
    <glyph glyph-name="sterling" unicode="&#xa3;" horiz-adv-x="1276" 
d="M358 205q-18 27 -44.5 40t-63.5 13q-35 0 -57.5 -22.5t-22.5 -57.5q0 -31 21 -52.5t53 -21.5q43 0 73.5 27t40.5 74zM381 430v8q0 20 -11 50.5t-38 82.5h-164q-72 0 -87 16.5t-15 74.5q0 67 14.5 88.5t83.5 21.5q15 0 33 -0.5t56 -3.5q-15 42 -22.5 82.5t-7.5 81.5
q0 176 134.5 283.5t355.5 107.5q208 0 335.5 -80.5t127.5 -208.5q0 -70 -42.5 -123t-97.5 -53q-36 0 -65 46q-9 14 -15 22q-19 25 -53.5 39t-79.5 14q-76 0 -115.5 -36.5t-39.5 -106.5q0 -14 1.5 -29.5t4.5 -32.5q50 -3 124 -4q158 -3 158 -80q0 -79 -15 -98t-87 -19h-78
h-74v-22q0 -34 -4 -67.5t-12 -65.5q29 -13 82 -39q110 -55 162 -55q49 0 91.5 19t78.5 59q3 3 8 9q30 35 59 35q38 0 59 -35t21 -100q0 -152 -123.5 -243t-332.5 -91q-63 0 -132.5 25t-150.5 76q-56 -46 -115 -68t-123 -22q-103 0 -163 50t-60 136q0 99 89.5 168t244.5 88z
" />
    <glyph glyph-name="currency" unicode="&#xa4;" horiz-adv-x="1241" 
d="M623 1126q-100 0 -171 -71t-71 -170q0 -100 70.5 -171t171.5 -71q99 0 170 71.5t71 170.5q0 98 -71.5 169.5t-169.5 71.5zM186 1452l201 -199q51 35 108 51.5t126 16.5t127.5 -16.5t109.5 -51.5l201 199l133 -133l-199 -205q33 -52 48.5 -108.5t15.5 -120.5t-16 -121
t-48 -109l199 -202l-133 -136l-201 201q-52 -35 -110.5 -52t-124.5 -17q-68 0 -126 17t-110 52l-201 -201l-135 136l199 202q-32 50 -48 107t-16 125q0 64 16 120t48 107l-199 205z" />
    <glyph glyph-name="yen" unicode="&#xa5;" horiz-adv-x="1276" 
d="M420 535h-295q-59 0 -84 13.5t-25 45.5q0 34 21.5 46.5t87.5 12.5h289q-10 33 -29 64t-45 59h-215q-59 0 -84 14t-25 46q0 33 21.5 46t87.5 13h123q-12 16 -31 45q-72 105 -127 123q-51 17 -71.5 40t-20.5 60q0 71 70.5 99t267.5 28t273.5 -27t76.5 -92q0 -32 -21.5 -62
t-21.5 -40q0 -34 37 -84.5t63 -50.5q19 0 56 52.5t37 82.5q0 7 -26 42.5t-26 66.5q0 54 64 83t186 29q140 0 199 -25t59 -83q0 -33 -16.5 -53t-52.5 -31q-9 -3 -24 -6q-41 -8 -58 -23q-22 -17 -46.5 -45t-56.5 -72l-41 -57h146q57 0 82.5 -14t25.5 -45q0 -34 -21.5 -47
t-86.5 -13h-244q-23 -34 -35.5 -65t-13.5 -57l293 -1q59 0 83.5 -13.5t24.5 -45.5q0 -34 -21.5 -46.5t-86.5 -12.5h-299q4 -177 13 -232t30 -70q9 -6 28 -16q64 -33 64 -92q0 -73 -81.5 -106t-264.5 -33q-168 0 -259 34.5t-91 98.5q0 56 78 98l3 2q33 18 45.5 49t12.5 105
q0 16 -1 59.5t-1 71.5v31z" />
    <glyph glyph-name="brokenbar" unicode="&#xa6;" 
d="M373 408h280v-758h-280v758zM373 1432h280v-758h-280v758z" />
    <glyph glyph-name="section" unicode="&#xa7;" horiz-adv-x="1141" 
d="M383 768q-53 0 -90 -33.5t-37 -81.5q0 -40 27 -72.5t92 -68.5q110 -59 200.5 -92t143.5 -33q60 0 96.5 30t36.5 79q0 44 -28.5 78t-104.5 75q-97 53 -194 86t-142 33zM924 260q72 -76 106.5 -146.5t34.5 -144.5q0 -193 -137.5 -298t-390.5 -105q-198 0 -318.5 71
t-120.5 185q0 67 53 118.5t125 51.5q56 0 92 -27t65 -94q4 -9 10 -24q42 -105 153 -105q72 0 115 35.5t43 95.5q0 64 -47 107t-230 110q-297 109 -393 205.5t-96 251.5q0 121 60.5 217t174.5 154q-71 51 -107 111t-36 128q0 158 140 259.5t368 101.5q203 0 318.5 -63.5
t115.5 -172.5q0 -61 -41.5 -104t-99.5 -43t-94 25t-64 87q-29 63 -67 88t-103 25q-67 0 -105 -31.5t-38 -85.5q0 -55 47 -95t221 -110q26 -10 76 -29q213 -81 286 -155q52 -53 78.5 -121.5t26.5 -148.5q0 -115 -56.5 -197.5t-164.5 -126.5z" />
    <glyph glyph-name="dieresis" unicode="&#xa8;" 
d="M604 1339q0 59 39.5 98.5t97.5 39.5q59 0 98.5 -39.5t39.5 -98.5q0 -58 -39.5 -97.5t-98.5 -39.5q-57 0 -97 40t-40 97zM156 1339q0 58 40 99t97 41q59 0 98 -40t39 -100q0 -58 -39.5 -97.5t-97.5 -39.5q-57 0 -97 40.5t-40 96.5z" />
    <glyph glyph-name="copyright" unicode="&#xa9;" horiz-adv-x="1683" 
d="M1130 1108h54l6 -336h-57q-34 132 -101 201t-162 69q-103 0 -155.5 -90.5t-52.5 -267.5q0 -181 58.5 -277t168.5 -96q72 0 138 44.5t124 131.5l55 -34q-67 -113 -157.5 -167.5t-208.5 -54.5q-192 0 -319.5 126t-127.5 315q0 190 127.5 315t321.5 125q87 0 161 -32.5
t76 -32.5q20 0 31.5 13t19.5 48zM842 1313q-129 0 -246 -48.5t-205 -138.5q-90 -91 -137 -205.5t-47 -242.5q0 -129 48 -244.5t138 -204.5q92 -90 206 -137t243 -47q127 0 240.5 47t203.5 137q90 92 139.5 209t49.5 240q0 127 -49 245.5t-138 204.5q-89 88 -206 136.5
t-240 48.5zM844 1438q148 0 287.5 -58t244.5 -163q106 -105 164.5 -246.5t58.5 -292.5q0 -150 -57.5 -288.5t-165.5 -248.5q-106 -107 -243.5 -164t-290.5 -57q-154 0 -289 56t-246 165q-108 107 -165.5 245t-57.5 292q0 151 57 289.5t164 246.5q106 108 246 166t293 58z
" />
    <glyph glyph-name="ordfeminine" unicode="&#xaa;" horiz-adv-x="934" 
d="M477 1020q0 24 -6.5 30t-34.5 7q-37 0 -57.5 -24t-20.5 -68q0 -42 15.5 -63t46.5 -21q33 0 45 24t12 115zM477 1164q1 5 1 15q3 39 3 56q0 71 -15.5 102t-51.5 31q-42 0 -93 -61q-7 -9 -12 -15q-36 -39 -67.5 -56t-67.5 -17q-41 0 -68.5 26.5t-27.5 65.5q0 78 109 132
t276 54q183 0 278 -65t95 -191q0 -34 -2.5 -89t-2.5 -77v-22q0 -86 8 -106.5t38 -28.5q22 -7 34.5 -20t12.5 -32q0 -57 -78 -107t-180 -50q-43 0 -64 5.5t-37 18.5l-23 23q-27 28 -38 28t-29 -14q-7 -6 -10 -8q-49 -31 -87.5 -42t-88.5 -11q-123 0 -198 62t-75 163
q0 103 97.5 173.5t240.5 70.5q27 0 58 -4t65 -10z" />
    <glyph glyph-name="guillemotleft" unicode="&#xab;" horiz-adv-x="1143" 
d="M918 543q105 -186 143.5 -269t38.5 -120q0 -36 -17.5 -55t-50.5 -19q-42 0 -93.5 35.5t-184.5 173.5q-17 17 -48 49q-151 154 -151 207q0 45 187 237l18 19q110 114 172 159.5t104 45.5q30 0 48 -19t18 -51q0 -56 -148 -326q-24 -44 -36 -67zM399 543
q103 -181 143 -266.5t40 -122.5q0 -36 -17.5 -55t-50.5 -19q-42 0 -93.5 35.5t-184.5 173.5q-17 17 -48 49q-151 154 -151 207q0 45 187 237l18 19q110 114 172 159.5t104 45.5q30 0 48 -19t18 -51q0 -56 -148 -326q-24 -44 -37 -67z" />
    <glyph glyph-name="logicalnot" unicode="&#xac;" horiz-adv-x="1706" 
d="M254 868h1198v-501h-272v235h-926v266z" />
    <glyph glyph-name="sfthyphen" unicode="&#xad;" horiz-adv-x="791" 
d="M74 420q0 60 13.5 121.5t39.5 115.5q2 5 6 13q29 65 78 65q4 0 21 -1q106 -9 217 -9q71 0 143.5 2t73.5 2q28 0 39.5 -12.5t11.5 -42.5q0 -73 -18.5 -140.5t-53.5 -123.5q-25 -40 -42 -49t-75 -9q-29 0 -101 1t-116 1q-72 0 -152 -6q-22 -2 -28 -2q-34 0 -45.5 14.5
t-11.5 59.5z" />
    <glyph glyph-name="registered" unicode="&#xae;" horiz-adv-x="1683" 
d="M787 729q6 -1 13 -1.5t19 -0.5q72 0 109 43t37 127q0 64 -32 103.5t-85 39.5q-32 0 -47 -14t-15 -45zM461 1102h409q149 0 239.5 -56.5t90.5 -146.5q0 -89 -64.5 -139t-207.5 -72q112 -17 170.5 -78.5t58.5 -160.5v-48q0 -29 9 -44t26 -15q25 0 38 30.5t13 88.5v12h62
v-33q0 -89 -49 -135.5t-144 -46.5q-173 0 -187 219q-1 13 -1 19q-7 91 -36.5 131.5t-90.5 40.5h-11v-242q0 -44 15.5 -61.5t58.5 -26.5v-59h-399v59q50 5 69 24t19 64v528q0 45 -17.5 62.5t-70.5 23.5v62zM842 1313q-129 0 -246 -48.5t-205 -138.5q-90 -91 -137 -205.5
t-47 -242.5q0 -129 48 -244.5t138 -204.5q93 -91 206 -137.5t241 -46.5t242 47.5t204 136.5q90 92 139.5 209t49.5 240q0 127 -49 245.5t-138 204.5q-89 88 -206 136.5t-240 48.5zM842 1438q155 0 299.5 -62.5t251.5 -175.5q98 -104 152 -241t54 -281q0 -119 -37 -232.5
t-108 -212.5q-108 -149 -268.5 -231t-345.5 -82q-112 0 -218 32t-198 93q-162 107 -251 272.5t-89 360.5q0 151 57 289.5t164 246.5q106 108 245.5 166t291.5 58z" />
    <glyph glyph-name="macron" unicode="&#xaf;" 
d="M272 1264q-19 0 -26.5 8.5t-7.5 34.5v100q0 24 7 32t27 9h488q21 0 28.5 -8.5t8.5 -32.5v-100q0 -25 -8.5 -34t-28.5 -9h-488z" />
    <glyph glyph-name="degree" unicode="&#xb0;" horiz-adv-x="674" 
d="M336 1303q-62 0 -106 -44.5t-44 -107.5q0 -64 44 -109t108 -45q62 0 106.5 46t44.5 108t-45 107t-108 45zM338 1473q134 0 227.5 -94.5t93.5 -229.5q0 -132 -94.5 -227t-228.5 -95t-228 93.5t-94 228.5q0 134 95.5 229t228.5 95z" />
    <glyph glyph-name="plusminus" unicode="&#xb1;" horiz-adv-x="1706" 
d="M254 231h1198v-272h-1198v272zM713 1262h280v-310h459v-272h-459v-309h-280v309h-459v272h459v310z" />
    <glyph glyph-name="twosuperior" unicode="&#xb2;" horiz-adv-x="842" 
d="M510 518h-397q-43 0 -65.5 10.5t-22.5 30.5q0 25 83 105q53 51 85 84q78 81 117.5 143.5t39.5 103.5q0 22 -20.5 38t-50.5 16q-29 0 -72 -29q-7 -4 -10 -6l-1 -1q-47 -32 -73 -32q-38 0 -65 26t-27 62q0 26 18 53.5t53 57.5q68 56 157.5 85t195.5 29q145 0 234 -60
t89 -157q0 -51 -25.5 -96t-101.5 -115q-14 -13 -41 -36q-59 -51 -59 -74q0 -15 13.5 -24t35.5 -9t43 6.5t36 17.5q12 7 38.5 28.5t44.5 21.5q31 0 50 -30.5t19 -80.5q0 -94 -49.5 -164.5t-107.5 -70.5q-16 0 -28.5 7t-27.5 25q-18 24 -37.5 29.5t-70.5 5.5z" />
    <glyph glyph-name="threesuperior" unicode="&#xb3;" horiz-adv-x="842" 
d="M332 391q-146 0 -248 36t-102 83q0 43 20 66.5t55 23.5q19 0 79.5 -14.5t103.5 -14.5q75 0 121.5 31t46.5 80q0 45 -36 72.5t-93 27.5q-8 0 -32.5 -2t-41.5 -2q-33 0 -53.5 26t-20.5 68q0 48 54 60q20 5 30 8q49 17 74.5 45t25.5 64q0 34 -26.5 55.5t-67.5 21.5
q-26 0 -67.5 -15t-59.5 -15q-23 0 -40 21.5t-17 51.5q0 26 9.5 41.5t33.5 28.5q64 37 134 55.5t144 18.5q165 0 262 -53.5t97 -143.5q0 -39 -18.5 -73t-53.5 -58q-6 -4 -19 -11q-24 -13 -24 -22q0 -11 35 -16q27 -4 40 -8q70 -20 105 -68t35 -125q0 -154 -133.5 -249
t-351.5 -95z" />
    <glyph glyph-name="grave" unicode="&#xb4;" 
d="M446 1212q-20 -5 -38 -7.5t-33 -2.5q-36 0 -57 31t-21 82q0 21 17 35t85 39l342 122q3 1 10 4q39 13 60 13q30 0 57 -51.5t27 -112.5q0 -26 -14.5 -38.5t-57.5 -22.5z" />
    <glyph glyph-name="mu" unicode="&#xb5;" horiz-adv-x="1270" 
d="M268 165q-17 -113 -31 -252.5t-18 -163.5q-15 -103 -48 -140t-105 -37q-63 0 -100.5 38.5t-37.5 104.5q0 48 69.5 269t106.5 395l107 506h336l-117 -543q-7 -31 -10.5 -59.5t-3.5 -51.5q0 -47 23.5 -73.5t66.5 -26.5q56 0 90.5 51.5t62.5 179.5l115 523h334l-111 -514
q-4 -19 -6 -38t-2 -36q0 -43 20.5 -66.5t57.5 -23.5q54 0 104 84l2 3q22 37 34.5 46.5t29.5 9.5q15 0 25 -11.5t10 -29.5q0 -22 -15 -69.5t-38 -89.5q-48 -87 -111.5 -130t-142.5 -43q-89 0 -138 49.5t-55 145.5q-41 -96 -109.5 -143t-166.5 -47q-99 0 -158.5 48t-69.5 135z
" />
    <glyph glyph-name="paragraph" unicode="&#xb6;" 
d="M1014 1479v-142h-101v-1337h-202v1337h-140v-1337h-202v784q-163 8 -261 103t-98 243q0 157 106.5 253t282.5 96h615z" />
    <glyph glyph-name="glyph195" unicode="&#xb7;" horiz-adv-x="637" 
d="M68 647q0 106 73 179t178 73q106 0 178 -72.5t72 -179.5q0 -106 -72 -179t-178 -73q-105 0 -178 73t-73 179z" />
    <glyph glyph-name="cedilla" unicode="&#xb8;" 
d="M451 0h120q-3 -28 -4.5 -51.5t-1.5 -44.5q19 4 39 6t41 2q89 0 141 -44.5t52 -119.5q0 -96 -76 -152.5t-205 -56.5t-213 32.5t-84 80.5q0 29 18.5 48t47.5 19q19 0 87 -22.5t119 -22.5q50 0 74.5 16t24.5 48t-30 44.5t-128 12.5q-26 0 -34.5 10.5t-8.5 40.5q0 13 5.5 54
t15.5 100z" />
    <glyph glyph-name="onesuperior" unicode="&#xb9;" horiz-adv-x="842" 
d="M172 653q32 0 45.5 13.5t20.5 52.5q5 39 8.5 115t3.5 172q0 64 -13.5 77t-56.5 13q-11 0 -27 -1t-20 -1q-26 0 -39.5 12.5t-13.5 36.5q0 26 31 50.5t100 51.5q85 31 188.5 49.5t190.5 18.5q54 0 79 -13.5t25 -42.5q0 -36 -48 -56q-16 -7 -23 -11q-14 -7 -19.5 -34
t-5.5 -126v-31v-41q0 -169 7 -215t24 -59q29 -21 84 -25q19 -2 29 -4q18 -5 29 -19.5t11 -35.5q0 -46 -71.5 -66t-247.5 -20q-237 0 -317 19t-80 67q0 29 15 42t48 13q7 0 21.5 -1t21.5 -1z" />
    <glyph glyph-name="ordmasculine" unicode="&#xba;" horiz-adv-x="981" 
d="M395 1192q0 -44 10.5 -99t28.5 -108q18 -51 41 -76.5t51 -25.5q32 0 50 25.5t18 70.5q0 136 -40.5 234t-92.5 98q-33 0 -49.5 -29.5t-16.5 -89.5zM29 1087q0 90 38.5 165t114.5 134q69 54 156 82.5t182 28.5q195 0 315.5 -104.5t120.5 -272.5q0 -83 -34.5 -159
t-100.5 -136q-71 -62 -160 -93.5t-194 -31.5q-90 0 -166 26.5t-135 78.5q-66 58 -101.5 131t-35.5 151z" />
    <glyph glyph-name="guillemotright" unicode="&#xbb;" horiz-adv-x="1143" 
d="M735 543q-106 185 -144 268t-38 121q0 35 18 53.5t52 18.5q74 0 269 -202l7 -7q19 -20 55 -56q146 -149 146 -200q0 -44 -174 -223l-31 -31q-110 -114 -172.5 -159.5t-104.5 -45.5q-30 0 -48.5 18.5t-18.5 48.5q0 58 155 342zM225 543q-103 180 -142.5 265.5t-39.5 123.5
q0 35 17 53.5t51 18.5q42 0 93.5 -36t184.5 -173q17 -18 48 -49q151 -154 151 -207q0 -44 -174 -223l-31 -31q-110 -114 -172.5 -159.5t-104.5 -45.5q-30 0 -48.5 18.5t-18.5 48.5q0 58 155 340z" />
    <glyph glyph-name="onequarter" unicode="&#xbc;" horiz-adv-x="1950" 
d="M1540 391q0 19 -5.5 25t-18.5 6q-12 0 -27 -11.5t-57 -58.5q-47 -51 -74 -87t-27 -48t14 -17t52 -5h92q33 0 42 7.5t9 37.5v151zM1241 0q-49 0 -71.5 21.5t-22.5 70.5q0 95 207 325q28 31 43 48q148 163 224 217.5t142 54.5q53 0 71.5 -17t18.5 -69q0 -85 -6 -223.5
t-6 -191.5v-9q0 -15 2.5 -17.5t11.5 -2.5h27q24 0 31.5 -8t7.5 -33v-117q0 -21 -6 -30.5t-23 -14.5q-9 -3 -25 -4q-20 0 -20 -23q0 -30 2 -61t2 -33q0 -24 -14 -32.5t-65 -8.5h-70q-72 0 -109 2t-46 6q-13 5 -18 12.5t-5 28.5v15v80q-1 8 -4.5 11t-12.5 3h-266zM451 41
q0 15 149 233.5t281 432.5q93 151 225 378q159 273 188 273q30 0 180 -95q5 -3 8 -5q9 -6 15 -16t6 -19q0 -23 -55 -87q-13 -15 -20 -23q-89 -105 -223 -301t-292 -454q-129 -211 -209 -394q-6 -14 -7 -16q-13 -26 -22 -33t-24 -7q-16 0 -59 22.5t-115 69.5q-11 7 -18.5 19
t-7.5 22zM164 696q31 0 43.5 12t17.5 47q6 31 9.5 98.5t3.5 170.5q0 60 -13.5 72t-54.5 12h-45q-25 0 -37 11t-12 34q0 25 29.5 47.5t95.5 46.5q79 29 178 46.5t182 17.5q52 0 76.5 -12.5t24.5 -38.5q0 -34 -43 -52q-17 -7 -25 -12q-14 -8 -19.5 -36t-5.5 -113v-27v-41
q0 -145 6.5 -193.5t22.5 -60.5q29 -21 81 -25q19 -2 28 -4q15 -3 23.5 -15.5t8.5 -33.5q0 -45 -64.5 -63.5t-234.5 -18.5q-225 0 -304 18.5t-79 63.5q0 25 16.5 38t47.5 13q8 0 22 -1t21 -1z" />
    <glyph glyph-name="onehalf" unicode="&#xbd;" horiz-adv-x="1950" 
d="M1632 0h-381q-41 0 -62.5 10t-21.5 29q0 23 77 94q52 48 83 80q75 75 113.5 133.5t38.5 97.5q0 22 -19.5 37t-48.5 15t-75 -30l-5 -3q-25 -19 -39.5 -25t-29.5 -6q-37 0 -62.5 24t-25.5 58q0 24 17 50t52 54q64 52 149.5 78.5t186.5 26.5q139 0 224 -55.5t85 -145.5
q0 -47 -24.5 -90t-95.5 -108q-16 -14 -42 -35q-55 -45 -55 -66q0 -14 12.5 -22t34.5 -8t41 5t35 15q11 7 29 22q30 25 49 25q29 0 47 -28.5t18 -75.5q0 -88 -47 -153.5t-102 -65.5q-14 0 -26 6.5t-25 23.5q-19 22 -38 27.5t-67 5.5zM451 41q0 15 149 233.5t281 432.5
q93 151 225 378q159 273 188 273q30 0 180 -95q5 -3 8 -5q9 -6 15 -16t6 -19q0 -23 -55 -87q-13 -15 -20 -23q-89 -105 -223 -301t-292 -454q-129 -211 -209 -394q-6 -14 -7 -16q-13 -26 -22 -33t-24 -7q-16 0 -59 22.5t-115 69.5q-11 7 -18.5 19t-7.5 22zM164 696
q31 0 43.5 12t17.5 47q6 31 9.5 98.5t3.5 170.5q0 60 -13.5 72t-54.5 12h-45q-25 0 -37 11t-12 34q0 25 29.5 47.5t95.5 46.5q79 29 178 46.5t182 17.5q52 0 76.5 -12.5t24.5 -38.5q0 -34 -43 -52q-17 -7 -25 -12q-14 -8 -19.5 -36t-5.5 -113v-27v-41q0 -145 6.5 -193.5
t22.5 -60.5q29 -21 81 -25q19 -2 28 -4q15 -3 23.5 -15.5t8.5 -33.5q0 -45 -64.5 -63.5t-234.5 -18.5q-225 0 -304 18.5t-79 63.5q0 25 16.5 38t47.5 13q8 0 22 -1t21 -1z" />
    <glyph glyph-name="threequarters" unicode="&#xbe;" horiz-adv-x="1950" 
d="M1540 391q0 19 -5.5 25t-18.5 6q-12 0 -27 -11.5t-57 -58.5q-47 -51 -74 -87t-27 -48t14 -17t52 -5h92q33 0 42 7.5t9 37.5v151zM1241 0q-49 0 -71.5 21.5t-22.5 70.5q0 95 207 325q28 31 43 48q148 163 224 217.5t142 54.5q53 0 71.5 -17t18.5 -69q0 -85 -6 -223.5
t-6 -191.5v-9q0 -15 2.5 -17.5t11.5 -2.5h27q24 0 31.5 -8t7.5 -33v-117q0 -21 -6 -30.5t-23 -14.5q-9 -3 -25 -4q-20 0 -20 -23q0 -30 2 -61t2 -33q0 -24 -14 -32.5t-65 -8.5h-70q-72 0 -109 2t-46 6q-13 5 -18 12.5t-5 28.5v15v80q-1 8 -4.5 11t-12.5 3h-266zM451 41
q0 15 149 233.5t281 432.5q93 151 225 378q159 273 188 273q30 0 180 -95q5 -3 8 -5q9 -6 15 -16t6 -19q0 -23 -55 -87q-13 -15 -20 -23q-89 -105 -223 -301t-292 -454q-129 -211 -209 -394q-6 -14 -7 -16q-13 -26 -22 -33t-24 -7q-16 0 -59 22.5t-115 69.5q-11 7 -18.5 19
t-7.5 22zM315 451q-139 0 -235 34t-96 78q0 38 18.5 60t50.5 22q18 0 77 -12t99 -12q73 0 116.5 27.5t43.5 72.5q0 42 -34 68t-89 26q-7 0 -31 -1t-40 -1q-32 0 -51 23.5t-19 62.5q0 44 53 58q16 4 27 8q45 15 70.5 41t25.5 57q0 32 -25 53t-65 21q-24 0 -63.5 -14.5
t-57.5 -14.5q-23 0 -39 20t-16 50q0 23 9 37.5t32 27.5q61 34 128 51t138 17q158 0 251 -49.5t93 -133.5q0 -36 -18 -67.5t-52 -54.5q-7 -5 -19 -11q-22 -12 -22 -20q0 -10 28.5 -14t44.5 -9q65 -18 97.5 -62.5t32.5 -117.5q0 -144 -127 -232.5t-336 -88.5z" />
    <glyph glyph-name="questiondown" unicode="&#xbf;" horiz-adv-x="1167" 
d="M813 1266q0 -102 -70 -172t-172 -70q-101 0 -171 70t-70 172q0 101 70 171t171 70q103 0 172.5 -69.5t69.5 -171.5zM909 551q94 0 144.5 -48.5t50.5 -137.5q0 -54 -22.5 -108.5t-65.5 -104.5q-76 -92 -184.5 -141.5t-233.5 -49.5q-219 0 -375.5 119.5t-156.5 279.5
q0 56 20.5 105.5t60.5 89.5q54 53 144.5 104t105.5 70q14 18 25.5 64t22.5 62q18 27 47.5 41.5t68.5 14.5q89 0 126.5 -33t37.5 -112q0 -86 -76 -217q-9 -16 -14 -25q-43 -74 -57.5 -116.5t-14.5 -81.5q0 -53 25 -89t59 -36q37 0 52.5 39.5t15.5 144.5q0 62 58.5 114
t135.5 52z" />
    <glyph glyph-name="Agrave" unicode="&#xc0;" horiz-adv-x="1769" 
d="M602 635h326q-60 145 -103 219t-67 74q-22 0 -54.5 -60.5t-101.5 -232.5zM-33 117q0 38 18 60.5t85 47.5v0q59 19 77 47q21 31 57 107t124 280l30 69q225 517 246 626q1 4 3 13q29 153 179 153q87 0 147 -21t103 -65q61 -64 133.5 -195t221.5 -461q40 -91 102 -241
q96 -233 139 -277q17 -17 53 -27q15 -4 23 -8q26 -12 41.5 -35.5t15.5 -48.5q0 -81 -103.5 -119t-324.5 -38q-251 0 -351.5 30.5t-100.5 104.5q0 30 12.5 51t40.5 37q8 4 24 11q54 23 54 56q0 45 -73.5 64.5t-240.5 19.5q-131 0 -181 -19t-50 -67q0 -23 10.5 -35.5
t50.5 -25.5q47 -16 61.5 -35t14.5 -55q0 -71 -80 -104t-249 -33q-156 0 -234 33t-78 100zM951 1607l-378 91q-43 10 -57 22.5t-14 38.5q0 61 26 112.5t55 51.5q22 0 61 -13l10 -4l343 -122q69 -25 86 -39t17 -35q0 -51 -22 -82t-58 -31q-15 0 -32 2.5t-37 7.5z" />
    <glyph glyph-name="Aacute" unicode="&#xc1;" horiz-adv-x="1769" 
d="M602 635h326q-60 145 -103 219t-67 74q-22 0 -54.5 -60.5t-101.5 -232.5zM-33 117q0 38 18 60.5t85 47.5v0q59 19 77 47q21 31 57 107t124 280l30 69q225 517 246 626q1 4 3 13q29 153 179 153q87 0 147 -21t103 -65q61 -64 133.5 -195t221.5 -461q40 -91 102 -241
q96 -233 139 -277q17 -17 53 -27q15 -4 23 -8q26 -12 41.5 -35.5t15.5 -48.5q0 -81 -103.5 -119t-324.5 -38q-251 0 -351.5 30.5t-100.5 104.5q0 30 12.5 51t40.5 37q8 4 24 11q54 23 54 56q0 45 -73.5 64.5t-240.5 19.5q-131 0 -181 -19t-50 -67q0 -23 10.5 -35.5
t50.5 -25.5q47 -16 61.5 -35t14.5 -55q0 -71 -80 -104t-249 -33q-156 0 -234 33t-78 100zM798 1607q-20 -5 -38 -7.5t-33 -2.5q-36 0 -57 31t-21 82q0 21 17 35t85 39l342 122q3 1 10 4q39 13 60 13q30 0 57 -51.5t27 -112.5q0 -26 -14.5 -38.5t-57.5 -22.5z" />
    <glyph glyph-name="Acircumflex" unicode="&#xc2;" horiz-adv-x="1769" 
d="M602 635h326q-60 145 -103 219t-67 74q-22 0 -54.5 -60.5t-101.5 -232.5zM-33 117q0 38 18 60.5t85 47.5v0q59 19 77 47q21 31 57 107t124 280l30 69q225 517 246 626q1 4 3 13q29 153 179 153q87 0 147 -21t103 -65q61 -64 133.5 -195t221.5 -461q40 -91 102 -241
q96 -233 139 -277q17 -17 53 -27q15 -4 23 -8q26 -12 41.5 -35.5t15.5 -48.5q0 -81 -103.5 -119t-324.5 -38q-251 0 -351.5 30.5t-100.5 104.5q0 30 12.5 51t40.5 37q8 4 24 11q54 23 54 56q0 45 -73.5 64.5t-240.5 19.5q-131 0 -181 -19t-50 -67q0 -23 10.5 -35.5
t50.5 -25.5q47 -16 61.5 -35t14.5 -55q0 -71 -80 -104t-249 -33q-156 0 -234 33t-78 100zM876 1765q-28 -30 -71 -78q-70 -76 -83 -82q-8 -3 -35 -5.5t-63 -2.5q-59 0 -80.5 7.5t-21.5 25.5q0 11 15 29l3 3l189 220q37 43 60 52t87 9q56 0 75.5 -8.5t45.5 -38.5l205 -237
q7 -9 10.5 -18t3.5 -17q0 -15 -23 -21t-89 -6h-25q-42 0 -60.5 9t-35.5 30z" />
    <glyph glyph-name="Atilde" unicode="&#xc3;" horiz-adv-x="1769" 
d="M602 635h326q-60 145 -103 219t-67 74q-22 0 -54.5 -60.5t-101.5 -232.5zM-33 117q0 38 18 60.5t85 47.5v0q59 19 77 47q21 31 57 107t124 280l30 69q225 517 246 626q1 4 3 13q29 153 179 153q87 0 147 -21t103 -65q61 -64 133.5 -195t221.5 -461q40 -91 102 -241
q96 -233 139 -277q17 -17 53 -27q15 -4 23 -8q26 -12 41.5 -35.5t15.5 -48.5q0 -81 -103.5 -119t-324.5 -38q-251 0 -351.5 30.5t-100.5 104.5q0 30 12.5 51t40.5 37q8 4 24 11q54 23 54 56q0 45 -73.5 64.5t-240.5 19.5q-131 0 -181 -19t-50 -67q0 -23 10.5 -35.5
t50.5 -25.5q47 -16 61.5 -35t14.5 -55q0 -71 -80 -104t-249 -33q-156 0 -234 33t-78 100zM1011 1628q-63 0 -175 41t-158 41q-34 0 -55.5 -16.5t-43.5 -65.5q-8 -20 -16.5 -25.5t-26.5 -5.5q-24 0 -41.5 11.5t-17.5 27.5q0 22 16.5 64t42.5 84q41 63 83.5 93.5t90.5 30.5
q43 0 157.5 -41.5t182.5 -41.5q43 0 66.5 15t42.5 60q7 18 16 24.5t25 6.5q36 0 47.5 -8.5t11.5 -32.5q0 -94 -76 -178t-172 -84z" />
    <glyph glyph-name="Adieresis" unicode="&#xc4;" horiz-adv-x="1769" 
d="M602 635h326q-60 145 -103 219t-67 74q-22 0 -54.5 -60.5t-101.5 -232.5zM-33 117q0 38 18 60.5t85 47.5v0q59 19 77 47q21 31 57 107t124 280l30 69q225 517 246 626q1 4 3 13q29 153 179 153q87 0 147 -21t103 -65q61 -64 133.5 -195t221.5 -461q40 -91 102 -241
q96 -233 139 -277q17 -17 53 -27q15 -4 23 -8q26 -12 41.5 -35.5t15.5 -48.5q0 -81 -103.5 -119t-324.5 -38q-251 0 -351.5 30.5t-100.5 104.5q0 30 12.5 51t40.5 37q8 4 24 11q54 23 54 56q0 45 -73.5 64.5t-240.5 19.5q-131 0 -181 -19t-50 -67q0 -23 10.5 -35.5
t50.5 -25.5q47 -16 61.5 -35t14.5 -55q0 -71 -80 -104t-249 -33q-156 0 -234 33t-78 100zM956 1734q0 59 39.5 98.5t97.5 39.5q59 0 98.5 -39.5t39.5 -98.5q0 -58 -39.5 -97.5t-98.5 -39.5q-57 0 -97 40t-40 97zM508 1734q0 58 40 99t97 41q59 0 98 -40t39 -100
q0 -58 -39.5 -97.5t-97.5 -39.5q-57 0 -97 40.5t-40 96.5z" />
    <glyph glyph-name="Aring" unicode="&#xc5;" horiz-adv-x="1769" 
d="M596 1720q0 106 73 179t179 73t179 -73t73 -179t-73 -179t-179 -73t-179 73t-73 179zM748 1722q0 -41 29.5 -71.5t70.5 -30.5t70.5 30.5t29.5 71.5q0 42 -29.5 71.5t-70.5 29.5q-42 0 -71 -29.5t-29 -71.5zM602 594h326q-62 140 -103.5 207t-66.5 67q-21 0 -50.5 -49.5
t-105.5 -224.5zM-33 109q0 36 18 57t85 43v0q59 18 77 45q30 41 146 291q37 79 57 123l22 46q211 453 232 554q1 4 3 13q28 142 179 142q87 0 147.5 -19t102.5 -61q62 -60 134.5 -183t220.5 -431q41 -87 104 -231q92 -214 135 -254q16 -14 44.5 -22.5t33.5 -10.5
q26 -12 41.5 -34t15.5 -46q0 -75 -102 -110t-326 -35q-255 0 -353.5 28t-98.5 97q0 29 12.5 48.5t40.5 33.5q9 4 27 11q51 19 51 52q0 42 -74 61t-244 19q-131 0 -179 -18t-48 -62q0 -24 11.5 -37t49.5 -24q50 -15 63 -32.5t13 -49.5q0 -67 -78 -97t-251 -30q-158 0 -235 30
t-77 93z" />
    <glyph glyph-name="AE" unicode="&#xc6;" horiz-adv-x="2359" 
d="M672 635q36 2 77.5 3t122.5 1t119.5 -1t70.5 -3q4 156 5.5 258t1.5 154q0 110 -9 148t-32 38q-17 0 -77 -98t-279 -500zM1757 0h-774q-48 0 -76 26.5t-28 73.5q0 32 12.5 52.5t56.5 46.5q43 25 65.5 55.5t22.5 62.5q0 27 -47 37.5t-196 10.5q-180 0 -242 -20.5t-62 -72.5
q0 -23 11 -35.5t51 -25.5q47 -16 61.5 -35t14.5 -55q0 -71 -80 -104t-250 -33q-156 0 -234.5 33t-78.5 100q0 27 12.5 48.5t40.5 39.5q7 4 37.5 13.5t50.5 19.5q32 15 64 70q4 7 6 10q14 24 119 217t202 364q34 60 91 151q75 121 75 150q0 24 -13.5 41t-58.5 39
q-48 24 -61.5 44t-13.5 52q0 55 47.5 84t136.5 29q12 0 70 -1q335 -7 675 -7q330 0 584 24q25 2 29 2q82 0 132 -82t50 -219q0 -79 -33 -126.5t-88 -47.5q-58 0 -117 81q-17 23 -26 34q-45 49 -102.5 70.5t-147.5 21.5q-116 0 -150.5 -6.5t-48.5 -22.5q-12 -13 -18 -68
t-6 -151q0 -87 16 -105t82 -18q47 0 66.5 15t29.5 61q2 8 5 23q24 129 94 129q73 0 109 -75t36 -228q0 -187 -38.5 -281t-115.5 -94q-39 0 -57 20t-31 97q-12 75 -30 92.5t-68 17.5q-57 0 -74.5 -23t-17.5 -108q0 -115 6 -164t20 -67q15 -19 51 -26t138 -7q114 0 189.5 28.5
t123.5 90.5q18 22 43 64q52 87 113 87q58 0 88.5 -36.5t30.5 -106.5t-21.5 -147t-60.5 -150q-39 -69 -66 -94t-61 -25q-5 0 -28 5q-158 34 -337 34z" />
    <glyph glyph-name="Ccedilla" unicode="&#xc7;" horiz-adv-x="1620" 
d="M1316 114q-103 -74 -222 -111.5t-250 -37.5q-160 0 -296 52t-245 155q-116 110 -179 254t-63 301q0 153 60 299t170 258q108 112 250.5 172t300.5 60q119 0 242.5 -41t132.5 -41q12 0 47.5 9t58.5 9q83 0 152 -113.5t69 -255.5q0 -100 -56 -163.5t-142 -63.5
q-95 0 -165 113q-11 19 -18 28q-63 97 -145 148t-174 51q-113 0 -177.5 -75.5t-64.5 -209.5q0 -102 30 -192.5t87 -163.5q69 -86 156.5 -132t181.5 -46q78 0 145.5 26.5t142.5 87.5q7 6 17 16q36 34 63 34q42 0 70.5 -41.5t28.5 -104.5q0 -107 -60.5 -194.5t-130.5 -87.5
q-6 0 -9.5 0.5t-7.5 0.5zM762 0h120q-3 -28 -4.5 -51.5t-1.5 -44.5q19 4 39 6t41 2q89 0 141 -44.5t52 -119.5q0 -96 -76 -152.5t-205 -56.5t-213 32.5t-84 80.5q0 29 18.5 48t47.5 19q19 0 87 -22.5t119 -22.5q50 0 74.5 16t24.5 48t-30 44.5t-128 12.5q-26 0 -34.5 10.5
t-8.5 40.5q0 13 5.5 54t15.5 100z" />
    <glyph glyph-name="Egrave" unicode="&#xc8;" horiz-adv-x="1503" 
d="M911 -2h-741q-94 0 -127 22.5t-33 79.5q0 58 71 98q34 20 48 33q35 36 50.5 168.5t15.5 434.5q0 206 -10.5 297t-34.5 116q-8 8 -67.5 39t-59.5 90q0 55 46.5 84t135.5 29q16 0 197.5 -4t347.5 -4q262 0 461 26q19 2 22 2q82 0 132 -83t50 -220q0 -80 -33.5 -127
t-89.5 -47q-59 0 -112 77q-17 25 -27 36q-44 50 -103.5 72t-150.5 22q-115 0 -149 -6.5t-48 -22.5q-12 -14 -19 -70.5t-7 -148.5q0 -87 16.5 -105t81.5 -18q47 0 66.5 15t29.5 61q2 8 5 23q24 129 94 129q73 0 110 -75.5t37 -227.5q0 -186 -39.5 -280.5t-115.5 -94.5
q-68 0 -85 108q-1 6 -2 9q-12 75 -30 92.5t-68 17.5q-57 0 -74.5 -23t-17.5 -114q0 -129 6 -168.5t21 -56.5q15 -18 53.5 -25.5t132.5 -7.5q115 0 191.5 29t123.5 90q18 22 44 64q52 87 112 87q58 0 88.5 -35.5t30.5 -103.5q0 -73 -21 -150t-61 -151q-35 -66 -64.5 -92.5
t-64.5 -26.5q-4 0 -27 5q-159 32 -338 32zM818 1607l-378 91q-43 10 -57 22.5t-14 38.5q0 61 26 112.5t55 51.5q22 0 61 -13l10 -4l343 -122q69 -25 86 -39t17 -35q0 -51 -22 -82t-58 -31q-15 0 -32 2.5t-37 7.5z" />
    <glyph glyph-name="Eacute" unicode="&#xc9;" horiz-adv-x="1503" 
d="M911 -2h-741q-94 0 -127 22.5t-33 79.5q0 58 71 98q34 20 48 33q35 36 50.5 168.5t15.5 434.5q0 206 -10.5 297t-34.5 116q-8 8 -67.5 39t-59.5 90q0 55 46.5 84t135.5 29q16 0 197.5 -4t347.5 -4q262 0 461 26q19 2 22 2q82 0 132 -83t50 -220q0 -80 -33.5 -127
t-89.5 -47q-59 0 -112 77q-17 25 -27 36q-44 50 -103.5 72t-150.5 22q-115 0 -149 -6.5t-48 -22.5q-12 -14 -19 -70.5t-7 -148.5q0 -87 16.5 -105t81.5 -18q47 0 66.5 15t29.5 61q2 8 5 23q24 129 94 129q73 0 110 -75.5t37 -227.5q0 -186 -39.5 -280.5t-115.5 -94.5
q-68 0 -85 108q-1 6 -2 9q-12 75 -30 92.5t-68 17.5q-57 0 -74.5 -23t-17.5 -114q0 -129 6 -168.5t21 -56.5q15 -18 53.5 -25.5t132.5 -7.5q115 0 191.5 29t123.5 90q18 22 44 64q52 87 112 87q58 0 88.5 -35.5t30.5 -103.5q0 -73 -21 -150t-61 -151q-35 -66 -64.5 -92.5
t-64.5 -26.5q-4 0 -27 5q-159 32 -338 32zM665 1607q-20 -5 -38 -7.5t-33 -2.5q-36 0 -57 31t-21 82q0 21 17 35t85 39l342 122q3 1 10 4q39 13 60 13q30 0 57 -51.5t27 -112.5q0 -26 -14.5 -38.5t-57.5 -22.5z" />
    <glyph glyph-name="Ecircumflex" unicode="&#xca;" horiz-adv-x="1503" 
d="M911 -2h-741q-94 0 -127 22.5t-33 79.5q0 58 71 98q34 20 48 33q35 36 50.5 168.5t15.5 434.5q0 206 -10.5 297t-34.5 116q-8 8 -67.5 39t-59.5 90q0 55 46.5 84t135.5 29q16 0 197.5 -4t347.5 -4q262 0 461 26q19 2 22 2q82 0 132 -83t50 -220q0 -80 -33.5 -127
t-89.5 -47q-59 0 -112 77q-17 25 -27 36q-44 50 -103.5 72t-150.5 22q-115 0 -149 -6.5t-48 -22.5q-12 -14 -19 -70.5t-7 -148.5q0 -87 16.5 -105t81.5 -18q47 0 66.5 15t29.5 61q2 8 5 23q24 129 94 129q73 0 110 -75.5t37 -227.5q0 -186 -39.5 -280.5t-115.5 -94.5
q-68 0 -85 108q-1 6 -2 9q-12 75 -30 92.5t-68 17.5q-57 0 -74.5 -23t-17.5 -114q0 -129 6 -168.5t21 -56.5q15 -18 53.5 -25.5t132.5 -7.5q115 0 191.5 29t123.5 90q18 22 44 64q52 87 112 87q58 0 88.5 -35.5t30.5 -103.5q0 -73 -21 -150t-61 -151q-35 -66 -64.5 -92.5
t-64.5 -26.5q-4 0 -27 5q-159 32 -338 32zM743 1765q-28 -30 -71 -78q-70 -76 -83 -82q-8 -3 -35 -5.5t-63 -2.5q-59 0 -80.5 7.5t-21.5 25.5q0 11 15 29l3 3l189 220q37 43 60 52t87 9q56 0 75.5 -8.5t45.5 -38.5l205 -237q7 -9 10.5 -18t3.5 -17q0 -15 -23 -21t-89 -6h-25
q-42 0 -60.5 9t-35.5 30z" />
    <glyph glyph-name="Edieresis" unicode="&#xcb;" horiz-adv-x="1503" 
d="M911 -2h-741q-94 0 -127 22.5t-33 79.5q0 58 71 98q34 20 48 33q35 36 50.5 168.5t15.5 434.5q0 206 -10.5 297t-34.5 116q-8 8 -67.5 39t-59.5 90q0 55 46.5 84t135.5 29q16 0 197.5 -4t347.5 -4q262 0 461 26q19 2 22 2q82 0 132 -83t50 -220q0 -80 -33.5 -127
t-89.5 -47q-59 0 -112 77q-17 25 -27 36q-44 50 -103.5 72t-150.5 22q-115 0 -149 -6.5t-48 -22.5q-12 -14 -19 -70.5t-7 -148.5q0 -87 16.5 -105t81.5 -18q47 0 66.5 15t29.5 61q2 8 5 23q24 129 94 129q73 0 110 -75.5t37 -227.5q0 -186 -39.5 -280.5t-115.5 -94.5
q-68 0 -85 108q-1 6 -2 9q-12 75 -30 92.5t-68 17.5q-57 0 -74.5 -23t-17.5 -114q0 -129 6 -168.5t21 -56.5q15 -18 53.5 -25.5t132.5 -7.5q115 0 191.5 29t123.5 90q18 22 44 64q52 87 112 87q58 0 88.5 -35.5t30.5 -103.5q0 -73 -21 -150t-61 -151q-35 -66 -64.5 -92.5
t-64.5 -26.5q-4 0 -27 5q-159 32 -338 32zM823 1734q0 59 39.5 98.5t97.5 39.5q59 0 98.5 -39.5t39.5 -98.5q0 -58 -39.5 -97.5t-98.5 -39.5q-57 0 -97 40t-40 97zM375 1734q0 58 40 99t97 41q59 0 98 -40t39 -100q0 -58 -39.5 -97.5t-97.5 -39.5q-57 0 -97 40.5t-40 96.5z
" />
    <glyph glyph-name="Igrave" unicode="&#xcc;" horiz-adv-x="942" 
d="M53 141q0 62 79 109q28 17 40 26q29 22 40 123t11 379q0 48 1 122t1 101q0 108 -9.5 154.5t-32.5 64.5q-12 9 -37 24q-70 42 -70 97q0 77 101.5 114.5t307.5 37.5q203 0 297.5 -35.5t94.5 -111.5q0 -55 -54.5 -92.5t-56.5 -41.5q-20 -28 -28.5 -194.5t-8.5 -536.5
q0 -105 8 -148t27 -61q12 -11 40 -31q68 -49 68 -104q0 -76 -101 -112.5t-310 -36.5q-194 0 -301 40t-107 113zM538 1607l-378 91q-43 10 -57 22.5t-14 38.5q0 61 26 112.5t55 51.5q22 0 61 -13l10 -4l343 -122q69 -25 86 -39t17 -35q0 -51 -22 -82t-58 -31q-15 0 -32 2.5
t-37 7.5z" />
    <glyph glyph-name="Iacute" unicode="&#xcd;" horiz-adv-x="942" 
d="M53 141q0 62 79 109q28 17 40 26q29 22 40 123t11 379q0 48 1 122t1 101q0 108 -9.5 154.5t-32.5 64.5q-12 9 -37 24q-70 42 -70 97q0 77 101.5 114.5t307.5 37.5q203 0 297.5 -35.5t94.5 -111.5q0 -55 -54.5 -92.5t-56.5 -41.5q-20 -28 -28.5 -194.5t-8.5 -536.5
q0 -105 8 -148t27 -61q12 -11 40 -31q68 -49 68 -104q0 -76 -101 -112.5t-310 -36.5q-194 0 -301 40t-107 113zM385 1607q-20 -5 -38 -7.5t-33 -2.5q-36 0 -57 31t-21 82q0 21 17 35t85 39l342 122q3 1 10 4q39 13 60 13q30 0 57 -51.5t27 -112.5q0 -26 -14.5 -38.5
t-57.5 -22.5z" />
    <glyph glyph-name="Icircumflex" unicode="&#xce;" horiz-adv-x="942" 
d="M53 141q0 62 79 109q28 17 40 26q29 22 40 123t11 379q0 48 1 122t1 101q0 108 -9.5 154.5t-32.5 64.5q-12 9 -37 24q-70 42 -70 97q0 77 101.5 114.5t307.5 37.5q203 0 297.5 -35.5t94.5 -111.5q0 -55 -54.5 -92.5t-56.5 -41.5q-20 -28 -28.5 -194.5t-8.5 -536.5
q0 -105 8 -148t27 -61q12 -11 40 -31q68 -49 68 -104q0 -76 -101 -112.5t-310 -36.5q-194 0 -301 40t-107 113zM463 1765q-28 -30 -71 -78q-70 -76 -83 -82q-8 -3 -35 -5.5t-63 -2.5q-59 0 -80.5 7.5t-21.5 25.5q0 11 15 29l3 3l189 220q37 43 60 52t87 9q56 0 75.5 -8.5
t45.5 -38.5l205 -237q7 -9 10.5 -18t3.5 -17q0 -15 -23 -21t-89 -6h-25q-42 0 -60.5 9t-35.5 30z" />
    <glyph glyph-name="Idieresis" unicode="&#xcf;" horiz-adv-x="942" 
d="M53 141q0 62 79 109q28 17 40 26q29 22 40 123t11 379q0 48 1 122t1 101q0 108 -9.5 154.5t-32.5 64.5q-12 9 -37 24q-70 42 -70 97q0 77 101.5 114.5t307.5 37.5q203 0 297.5 -35.5t94.5 -111.5q0 -55 -54.5 -92.5t-56.5 -41.5q-20 -28 -28.5 -194.5t-8.5 -536.5
q0 -105 8 -148t27 -61q12 -11 40 -31q68 -49 68 -104q0 -76 -101 -112.5t-310 -36.5q-194 0 -301 40t-107 113zM543 1734q0 59 39.5 98.5t97.5 39.5q59 0 98.5 -39.5t39.5 -98.5q0 -58 -39.5 -97.5t-98.5 -39.5q-57 0 -97 40t-40 97zM95 1734q0 58 40 99t97 41q59 0 98 -40
t39 -100q0 -58 -39.5 -97.5t-97.5 -39.5q-57 0 -97 40.5t-40 96.5z" />
    <glyph glyph-name="Eth" unicode="&#xd0;" horiz-adv-x="1729" 
d="M205 657h-37q-80 0 -119 29.5t-39 89.5q0 57 41.5 88t116.5 31h39v219v33q0 50 -8 64.5t-47 33.5q-45 23 -61.5 47.5t-16.5 63.5q0 73 50.5 101t217.5 28q29 0 85 -1t83 -1q8 0 149 1t275 1q358 0 551.5 -195t193.5 -555q0 -186 -57 -330t-174 -253q-94 -87 -224 -126.5
t-325 -39.5q-72 0 -274 8q-63 3 -96 4q-40 0 -99 1t-80 1h-117h-29q-88 7 -125.5 34.5t-37.5 84.5q0 29 9 49.5t30 40.5q17 15 53 30t43 23q12 17 19.5 121.5t9.5 273.5zM725 657v-102v-31q0 -189 17 -230.5t69 -41.5q158 0 234.5 111t76.5 337q0 267 -82.5 396t-253.5 129
q-39 0 -51 -15t-12 -69q0 -13 1 -61t1 -85v-100h39q80 0 120 -29.5t40 -89.5q0 -56 -42 -87.5t-118 -31.5h-39z" />
    <glyph glyph-name="Ntilde" unicode="&#xd1;" horiz-adv-x="1774" 
d="M203 686q0 249 -11 351.5t-36 153.5q-14 26 -60 46q-15 6 -22 10q-30 17 -46 40t-16 50q0 77 82.5 109.5t286.5 32.5q67 0 105 -6t63 -19q39 -21 93.5 -66.5t176.5 -160.5q14 -14 42 -39q326 -307 380 -307q23 0 35 24t12 70q0 51 2 109v18q0 70 -16.5 102t-61.5 53
q-3 2 -10 5q-61 28 -61 94q0 75 66 105t253 30q167 0 232 -28.5t65 -98.5q0 -40 -14.5 -64.5t-69.5 -52.5q-41 -22 -55 -52t-25 -136q-9 -91 -14 -303q-2 -103 -4 -157q-1 -41 -4 -117q-9 -312 -23 -367q-15 -67 -43 -97t-73 -30q-44 0 -123 56.5t-301 262.5
q-87 80 -216 205q-181 176 -217 176q-37 0 -52 -40.5t-15 -149.5q0 -83 10.5 -149.5t23.5 -83.5q8 -11 62.5 -44.5t54.5 -85.5q0 -74 -75 -110.5t-226 -36.5q-157 0 -235 34.5t-78 104.5q0 50 54 87t61 46q23 34 33 124t10 302zM1013 1628q-63 0 -175 41t-158 41
q-34 0 -55.5 -16.5t-43.5 -65.5q-8 -20 -16.5 -25.5t-26.5 -5.5q-24 0 -41.5 11.5t-17.5 27.5q0 22 16.5 64t42.5 84q41 63 83.5 93.5t90.5 30.5q43 0 157.5 -41.5t182.5 -41.5q43 0 66.5 15t42.5 60q7 18 16 24.5t25 6.5q36 0 47.5 -8.5t11.5 -32.5q0 -94 -76 -178
t-172 -84z" />
    <glyph glyph-name="Ograve" unicode="&#xd2;" horiz-adv-x="1731" 
d="M49 745q0 158 67.5 310t186.5 260q111 102 255.5 152.5t326.5 50.5q172 0 320.5 -57.5t258.5 -166.5q107 -106 162 -247.5t55 -307.5q0 -176 -62 -320t-185 -255q-110 -100 -254.5 -152.5t-311.5 -52.5q-127 0 -241.5 32.5t-214.5 96.5q-171 111 -267 285t-96 372z
M606 956q0 -81 23 -181.5t65 -205.5q55 -133 125 -203.5t148 -70.5q74 0 115.5 61.5t41.5 171.5q0 85 -18.5 177t-54.5 184q-63 157 -130 228t-151 71q-74 0 -119 -62.5t-45 -169.5zM931 1607l-378 91q-43 10 -57 22.5t-14 38.5q0 61 26 112.5t55 51.5q22 0 61 -13l10 -4
l343 -122q69 -25 86 -39t17 -35q0 -51 -22 -82t-58 -31q-15 0 -32 2.5t-37 7.5z" />
    <glyph glyph-name="Oacute" unicode="&#xd3;" horiz-adv-x="1731" 
d="M49 745q0 158 67.5 310t186.5 260q111 102 255.5 152.5t326.5 50.5q172 0 320.5 -57.5t258.5 -166.5q107 -106 162 -247.5t55 -307.5q0 -176 -62 -320t-185 -255q-110 -100 -254.5 -152.5t-311.5 -52.5q-127 0 -241.5 32.5t-214.5 96.5q-171 111 -267 285t-96 372z
M606 956q0 -81 23 -181.5t65 -205.5q55 -133 125 -203.5t148 -70.5q74 0 115.5 61.5t41.5 171.5q0 85 -18.5 177t-54.5 184q-63 157 -130 228t-151 71q-74 0 -119 -62.5t-45 -169.5zM778 1607q-20 -5 -38 -7.5t-33 -2.5q-36 0 -57 31t-21 82q0 21 17 35t85 39l342 122
q3 1 10 4q39 13 60 13q30 0 57 -51.5t27 -112.5q0 -26 -14.5 -38.5t-57.5 -22.5z" />
    <glyph glyph-name="Ocircumflex" unicode="&#xd4;" horiz-adv-x="1731" 
d="M49 745q0 158 67.5 310t186.5 260q111 102 255.5 152.5t326.5 50.5q172 0 320.5 -57.5t258.5 -166.5q107 -106 162 -247.5t55 -307.5q0 -176 -62 -320t-185 -255q-110 -100 -254.5 -152.5t-311.5 -52.5q-127 0 -241.5 32.5t-214.5 96.5q-171 111 -267 285t-96 372z
M606 956q0 -81 23 -181.5t65 -205.5q55 -133 125 -203.5t148 -70.5q74 0 115.5 61.5t41.5 171.5q0 85 -18.5 177t-54.5 184q-63 157 -130 228t-151 71q-74 0 -119 -62.5t-45 -169.5zM856 1765q-28 -30 -71 -78q-70 -76 -83 -82q-8 -3 -35 -5.5t-63 -2.5q-59 0 -80.5 7.5
t-21.5 25.5q0 11 15 29l3 3l189 220q37 43 60 52t87 9q56 0 75.5 -8.5t45.5 -38.5l205 -237q7 -9 10.5 -18t3.5 -17q0 -15 -23 -21t-89 -6h-25q-42 0 -60.5 9t-35.5 30z" />
    <glyph glyph-name="Otilde" unicode="&#xd5;" horiz-adv-x="1731" 
d="M49 745q0 158 67.5 310t186.5 260q111 102 255.5 152.5t326.5 50.5q172 0 320.5 -57.5t258.5 -166.5q107 -106 162 -247.5t55 -307.5q0 -176 -62 -320t-185 -255q-110 -100 -254.5 -152.5t-311.5 -52.5q-127 0 -241.5 32.5t-214.5 96.5q-171 111 -267 285t-96 372z
M606 956q0 -81 23 -181.5t65 -205.5q55 -133 125 -203.5t148 -70.5q74 0 115.5 61.5t41.5 171.5q0 85 -18.5 177t-54.5 184q-63 157 -130 228t-151 71q-74 0 -119 -62.5t-45 -169.5zM991 1628q-63 0 -175 41t-158 41q-34 0 -55.5 -16.5t-43.5 -65.5q-8 -20 -16.5 -25.5
t-26.5 -5.5q-24 0 -41.5 11.5t-17.5 27.5q0 22 16.5 64t42.5 84q41 63 83.5 93.5t90.5 30.5q43 0 157.5 -41.5t182.5 -41.5q43 0 66.5 15t42.5 60q7 18 16 24.5t25 6.5q36 0 47.5 -8.5t11.5 -32.5q0 -94 -76 -178t-172 -84z" />
    <glyph glyph-name="Odieresis" unicode="&#xd6;" horiz-adv-x="1731" 
d="M49 745q0 158 67.5 310t186.5 260q111 102 255.5 152.5t326.5 50.5q172 0 320.5 -57.5t258.5 -166.5q107 -106 162 -247.5t55 -307.5q0 -176 -62 -320t-185 -255q-110 -100 -254.5 -152.5t-311.5 -52.5q-127 0 -241.5 32.5t-214.5 96.5q-171 111 -267 285t-96 372z
M606 956q0 -81 23 -181.5t65 -205.5q55 -133 125 -203.5t148 -70.5q74 0 115.5 61.5t41.5 171.5q0 85 -18.5 177t-54.5 184q-63 157 -130 228t-151 71q-74 0 -119 -62.5t-45 -169.5zM936 1734q0 59 39.5 98.5t97.5 39.5q59 0 98.5 -39.5t39.5 -98.5q0 -58 -39.5 -97.5
t-98.5 -39.5q-57 0 -97 40t-40 97zM488 1734q0 58 40 99t97 41q59 0 98 -40t39 -100q0 -58 -39.5 -97.5t-97.5 -39.5q-57 0 -97 40.5t-40 96.5z" />
    <glyph glyph-name="multiply" unicode="&#xd7;" horiz-adv-x="1706" 
d="M446 1231l428 -428l429 428l192 -193l-428 -428l428 -428l-192 -190l-429 428l-428 -428l-190 190l428 428l-428 428z" />
    <glyph glyph-name="Oslash" unicode="&#xd8;" horiz-adv-x="1731" 
d="M473 53l-154 -231q-21 -33 -41.5 -47.5t-46.5 -14.5q-38 0 -68 30t-30 67q0 14 7.5 31.5t23.5 39.5l158 228q-135 122 -204 271t-69 318q0 158 68 310t186 260q109 99 252 151t309 52q92 0 184.5 -17t186.5 -51l121 184q21 32 41 46t47 14q38 0 68 -29t30 -66
q0 -14 -7.5 -31.5t-23.5 -39.5l-116 -170q143 -117 214.5 -272t71.5 -347q0 -176 -62 -320t-185 -255q-112 -101 -256 -153t-312 -52q-111 0 -208.5 23.5t-184.5 70.5zM1057 915l-324 -462q53 -81 109 -120.5t119 -39.5q83 0 131.5 65.5t48.5 180.5q0 87 -21.5 182
t-62.5 194zM975 1067q-40 61 -89.5 91t-111.5 30q-80 0 -130 -67t-50 -179q0 -66 16 -149t47 -179z" />
    <glyph glyph-name="Ugrave" unicode="&#xd9;" horiz-adv-x="1767" 
d="M205 991v23q0 104 -12 136t-47 56q-3 2 -8 5q-77 50 -77 106q0 82 119.5 128t335.5 46q189 0 270.5 -33t81.5 -108q0 -72 -87 -122q-17 -10 -26 -16q-23 -16 -33.5 -136.5t-10.5 -370.5q0 -210 63 -296.5t211 -86.5q79 0 138 24.5t94 71.5q30 42 42.5 136t12.5 339v63
q0 159 -7 214t-24 73q-8 9 -67.5 37.5t-59.5 77.5q0 62 90.5 97.5t249.5 35.5q138 0 211.5 -34.5t73.5 -98.5q0 -61 -74 -104q-16 -9 -23 -13q-47 -31 -57 -162q-1 -13 -2 -20q-6 -99 -11 -274q-10 -379 -63 -500q-70 -160 -231.5 -240t-413.5 -80q-305 0 -482 140.5
t-177 379.5v506zM984 1607l-378 91q-43 10 -57 22.5t-14 38.5q0 61 26 112.5t55 51.5q22 0 61 -13l10 -4l343 -122q69 -25 86 -39t17 -35q0 -51 -22 -82t-58 -31q-15 0 -32 2.5t-37 7.5z" />
    <glyph glyph-name="Uacute" unicode="&#xda;" horiz-adv-x="1767" 
d="M205 991v23q0 104 -12 136t-47 56q-3 2 -8 5q-77 50 -77 106q0 82 119.5 128t335.5 46q189 0 270.5 -33t81.5 -108q0 -72 -87 -122q-17 -10 -26 -16q-23 -16 -33.5 -136.5t-10.5 -370.5q0 -210 63 -296.5t211 -86.5q79 0 138 24.5t94 71.5q30 42 42.5 136t12.5 339v63
q0 159 -7 214t-24 73q-8 9 -67.5 37.5t-59.5 77.5q0 62 90.5 97.5t249.5 35.5q138 0 211.5 -34.5t73.5 -98.5q0 -61 -74 -104q-16 -9 -23 -13q-47 -31 -57 -162q-1 -13 -2 -20q-6 -99 -11 -274q-10 -379 -63 -500q-70 -160 -231.5 -240t-413.5 -80q-305 0 -482 140.5
t-177 379.5v506zM831 1607q-20 -5 -38 -7.5t-33 -2.5q-36 0 -57 31t-21 82q0 21 17 35t85 39l342 122q3 1 10 4q39 13 60 13q30 0 57 -51.5t27 -112.5q0 -26 -14.5 -38.5t-57.5 -22.5z" />
    <glyph glyph-name="Ucircumflex" unicode="&#xdb;" horiz-adv-x="1767" 
d="M205 991v23q0 104 -12 136t-47 56q-3 2 -8 5q-77 50 -77 106q0 82 119.5 128t335.5 46q189 0 270.5 -33t81.5 -108q0 -72 -87 -122q-17 -10 -26 -16q-23 -16 -33.5 -136.5t-10.5 -370.5q0 -210 63 -296.5t211 -86.5q79 0 138 24.5t94 71.5q30 42 42.5 136t12.5 339v63
q0 159 -7 214t-24 73q-8 9 -67.5 37.5t-59.5 77.5q0 62 90.5 97.5t249.5 35.5q138 0 211.5 -34.5t73.5 -98.5q0 -61 -74 -104q-16 -9 -23 -13q-47 -31 -57 -162q-1 -13 -2 -20q-6 -99 -11 -274q-10 -379 -63 -500q-70 -160 -231.5 -240t-413.5 -80q-305 0 -482 140.5
t-177 379.5v506zM909 1765q-28 -30 -71 -78q-70 -76 -83 -82q-8 -3 -35 -5.5t-63 -2.5q-59 0 -80.5 7.5t-21.5 25.5q0 11 15 29l3 3l189 220q37 43 60 52t87 9q56 0 75.5 -8.5t45.5 -38.5l205 -237q7 -9 10.5 -18t3.5 -17q0 -15 -23 -21t-89 -6h-25q-42 0 -60.5 9t-35.5 30z
" />
    <glyph glyph-name="Udieresis" unicode="&#xdc;" horiz-adv-x="1767" 
d="M205 991v23q0 104 -12 136t-47 56q-3 2 -8 5q-77 50 -77 106q0 82 119.5 128t335.5 46q189 0 270.5 -33t81.5 -108q0 -72 -87 -122q-17 -10 -26 -16q-23 -16 -33.5 -136.5t-10.5 -370.5q0 -210 63 -296.5t211 -86.5q79 0 138 24.5t94 71.5q30 42 42.5 136t12.5 339v63
q0 159 -7 214t-24 73q-8 9 -67.5 37.5t-59.5 77.5q0 62 90.5 97.5t249.5 35.5q138 0 211.5 -34.5t73.5 -98.5q0 -61 -74 -104q-16 -9 -23 -13q-47 -31 -57 -162q-1 -13 -2 -20q-6 -99 -11 -274q-10 -379 -63 -500q-70 -160 -231.5 -240t-413.5 -80q-305 0 -482 140.5
t-177 379.5v506zM989 1734q0 59 39.5 98.5t97.5 39.5q59 0 98.5 -39.5t39.5 -98.5q0 -58 -39.5 -97.5t-98.5 -39.5q-57 0 -97 40t-40 97zM541 1734q0 58 40 99t97 41q59 0 98 -40t39 -100q0 -58 -39.5 -97.5t-97.5 -39.5q-57 0 -97 40.5t-40 96.5z" />
    <glyph glyph-name="Yacute" unicode="&#xdd;" horiz-adv-x="1481" 
d="M1108 965q-6 -8 -20 -24q-56 -67 -72 -112q-11 -30 -16 -73t-5 -129v-49q0 -143 11.5 -214.5t36.5 -89.5q10 -7 33 -19q75 -38 75 -103q0 -89 -96.5 -128.5t-313.5 -39.5q-201 0 -307 41t-106 118q0 34 17.5 58t76.5 57q29 16 38 25.5t13 23.5q7 31 10.5 113t3.5 203
q0 63 -2 97.5t-8 54.5q-10 35 -66 106q-13 17 -20 26l-203 264q-38 50 -102 69q-23 6 -32 11q-32 18 -48 43.5t-16 59.5q0 82 84.5 114.5t316.5 32.5q233 0 323.5 -31t90.5 -106q0 -39 -25.5 -74t-25.5 -45q0 -13 11.5 -38t31.5 -54q24 -36 42 -52t33 -16q24 0 65.5 61.5
t41.5 96.5q0 9 -28.5 50.5t-28.5 76.5q0 63 76.5 96t222.5 33q163 0 232 -29t69 -96q0 -38 -20.5 -62.5t-61.5 -35.5q-8 -2 -24 -5q-50 -10 -73 -28q-40 -30 -121 -133l-2 -3zM653 1607q-20 -5 -38 -7.5t-33 -2.5q-36 0 -57 31t-21 82q0 21 17 35t85 39l342 122q3 1 10 4
q39 13 60 13q30 0 57 -51.5t27 -112.5q0 -26 -14.5 -38.5t-57.5 -22.5z" />
    <glyph glyph-name="Thorn" unicode="&#xde;" horiz-adv-x="1466" 
d="M729 329q4 -61 87 -105q6 -3 9 -5q20 -11 31.5 -32.5t11.5 -47.5q0 -82 -95 -119.5t-304 -37.5q-220 0 -323 39.5t-103 123.5q0 56 61 91.5t68 46.5q18 27 25.5 187.5t7.5 604.5q0 91 -15.5 129.5t-55.5 56.5q-12 6 -33 14q-81 33 -81 95q0 70 82 96.5t353 26.5
t353.5 -26.5t82.5 -96.5q0 -37 -17 -57.5t-77 -44.5l-4 -2q-64 -26 -64 -72q35 3 69 4.5t66 1.5q292 0 440 -106t148 -316q0 -215 -156.5 -334.5t-439.5 -119.5q-31 0 -63 1.5t-64 3.5zM707 750v-68q0 -88 7 -108.5t29 -20.5q88 0 136.5 52t48.5 147q0 102 -44 158.5
t-122 56.5q-33 0 -44 -28.5t-11 -135.5v-53z" />
    <glyph glyph-name="germandbls" unicode="&#xdf;" horiz-adv-x="1427" 
d="M147 723l-4 233v37q0 123 14.5 196.5t47.5 123.5q60 91 175 137.5t282 46.5q253 0 391.5 -98.5t138.5 -278.5q0 -69 -25 -124.5t-75 -98.5q-7 -5 -20 -13q-21 -13 -21 -26q0 -17 40.5 -25.5t65.5 -19.5q105 -45 156 -133t51 -221q0 -215 -115.5 -339t-314.5 -124
q-119 0 -198 49.5t-79 120.5q0 62 73 90q22 9 31 14q58 31 90 92t32 142q0 68 -19.5 122t-58.5 93q-23 22 -82 49.5t-59 69.5q0 40 52 67q17 9 26 15q30 21 44.5 58.5t14.5 94.5q0 85 -35 137t-92 52q-44 0 -62 -20t-18 -71v-12l14 -868q0 -16 1 -45.5t1 -44.5
q0 -126 -58.5 -171.5t-240.5 -45.5q-158 0 -236.5 37.5t-78.5 113.5q0 54 47 84.5t53 38.5q26 33 38.5 129.5t12.5 259.5v76z" />
    <glyph glyph-name="agrave" unicode="&#xe0;" horiz-adv-x="1245" 
d="M635 426q0 35 -8.5 44t-44.5 9q-50 0 -77.5 -34t-27.5 -97q0 -59 21 -90t61 -31q44 0 60 34t16 165zM636 633q1 6 2 17q3 59 3 85q0 102 -21 146.5t-69 44.5q-53 0 -121 -86q-12 -15 -18 -22q-47 -57 -89.5 -82t-91.5 -25q-54 0 -90.5 37.5t-36.5 95.5q0 112 145.5 189
t366.5 77q245 0 371.5 -93.5t126.5 -273.5q0 -47 -3 -126.5t-3 -110.5v-31q0 -126 11 -155t50 -39q30 -8 46 -26.5t16 -45.5q0 -84 -104.5 -159t-239.5 -75q-47 0 -78 10.5t-55 32.5q-13 13 -34 35q-33 37 -48 37q-14 0 -38 -19q-10 -8 -16 -12q-59 -42 -111 -58.5
t-122 -16.5q-164 0 -263 88.5t-99 232.5q0 147 129.5 246.5t320.5 99.5q32 0 72.5 -4.5t90.5 -13.5zM710 1212l-378 91q-43 10 -57 22.5t-14 38.5q0 61 26 112.5t55 51.5q22 0 61 -13l10 -4l343 -122q69 -25 86 -39t17 -35q0 -51 -22 -82t-58 -31q-15 0 -32 2.5t-37 7.5z
" />
    <glyph glyph-name="aacute" unicode="&#xe1;" horiz-adv-x="1245" 
d="M635 426q0 35 -8.5 44t-44.5 9q-50 0 -77.5 -34t-27.5 -97q0 -59 21 -90t61 -31q44 0 60 34t16 165zM636 633q1 6 2 17q3 59 3 85q0 102 -21 146.5t-69 44.5q-53 0 -121 -86q-12 -15 -18 -22q-47 -57 -89.5 -82t-91.5 -25q-54 0 -90.5 37.5t-36.5 95.5q0 112 145.5 189
t366.5 77q245 0 371.5 -93.5t126.5 -273.5q0 -47 -3 -126.5t-3 -110.5v-31q0 -126 11 -155t50 -39q30 -8 46 -26.5t16 -45.5q0 -84 -104.5 -159t-239.5 -75q-47 0 -78 10.5t-55 32.5q-13 13 -34 35q-33 37 -48 37q-14 0 -38 -19q-10 -8 -16 -12q-59 -42 -111 -58.5
t-122 -16.5q-164 0 -263 88.5t-99 232.5q0 147 129.5 246.5t320.5 99.5q32 0 72.5 -4.5t90.5 -13.5zM557 1212q-20 -5 -38 -7.5t-33 -2.5q-36 0 -57 31t-21 82q0 21 17 35t85 39l342 122q3 1 10 4q39 13 60 13q30 0 57 -51.5t27 -112.5q0 -26 -14.5 -38.5t-57.5 -22.5z" />
    <glyph glyph-name="acircumflex" unicode="&#xe2;" horiz-adv-x="1245" 
d="M635 426q0 35 -8.5 44t-44.5 9q-50 0 -77.5 -34t-27.5 -97q0 -59 21 -90t61 -31q44 0 60 34t16 165zM636 633q1 6 2 17q3 59 3 85q0 102 -21 146.5t-69 44.5q-53 0 -121 -86q-12 -15 -18 -22q-47 -57 -89.5 -82t-91.5 -25q-54 0 -90.5 37.5t-36.5 95.5q0 112 145.5 189
t366.5 77q245 0 371.5 -93.5t126.5 -273.5q0 -47 -3 -126.5t-3 -110.5v-31q0 -126 11 -155t50 -39q30 -8 46 -26.5t16 -45.5q0 -84 -104.5 -159t-239.5 -75q-47 0 -78 10.5t-55 32.5q-13 13 -34 35q-33 37 -48 37q-14 0 -38 -19q-10 -8 -16 -12q-59 -42 -111 -58.5
t-122 -16.5q-164 0 -263 88.5t-99 232.5q0 147 129.5 246.5t320.5 99.5q32 0 72.5 -4.5t90.5 -13.5zM635 1370q-28 -30 -71 -78q-70 -76 -83 -82q-8 -3 -35 -5.5t-63 -2.5q-59 0 -80.5 7.5t-21.5 25.5q0 11 15 29l3 3l189 220q37 43 60 52t87 9q56 0 75.5 -8.5t45.5 -38.5
l205 -237q7 -9 10.5 -18t3.5 -17q0 -15 -23 -21t-89 -6h-25q-42 0 -60.5 9t-35.5 30z" />
    <glyph glyph-name="atilde" unicode="&#xe3;" horiz-adv-x="1245" 
d="M635 426q0 35 -8.5 44t-44.5 9q-50 0 -77.5 -34t-27.5 -97q0 -59 21 -90t61 -31q44 0 60 34t16 165zM636 633q1 6 2 17q3 59 3 85q0 102 -21 146.5t-69 44.5q-53 0 -121 -86q-12 -15 -18 -22q-47 -57 -89.5 -82t-91.5 -25q-54 0 -90.5 37.5t-36.5 95.5q0 112 145.5 189
t366.5 77q245 0 371.5 -93.5t126.5 -273.5q0 -47 -3 -126.5t-3 -110.5v-31q0 -126 11 -155t50 -39q30 -8 46 -26.5t16 -45.5q0 -84 -104.5 -159t-239.5 -75q-47 0 -78 10.5t-55 32.5q-13 13 -34 35q-33 37 -48 37q-14 0 -38 -19q-10 -8 -16 -12q-59 -42 -111 -58.5
t-122 -16.5q-164 0 -263 88.5t-99 232.5q0 147 129.5 246.5t320.5 99.5q32 0 72.5 -4.5t90.5 -13.5zM770 1233q-63 0 -175 41t-158 41q-34 0 -55.5 -16.5t-43.5 -65.5q-8 -20 -16.5 -25.5t-26.5 -5.5q-24 0 -41.5 11.5t-17.5 27.5q0 22 16.5 64t42.5 84q41 63 83.5 93.5
t90.5 30.5q43 0 157.5 -41.5t182.5 -41.5q43 0 66.5 15t42.5 60q7 18 16 24.5t25 6.5q36 0 47.5 -8.5t11.5 -32.5q0 -94 -76 -178t-172 -84z" />
    <glyph glyph-name="adieresis" unicode="&#xe4;" horiz-adv-x="1245" 
d="M635 426q0 35 -8.5 44t-44.5 9q-50 0 -77.5 -34t-27.5 -97q0 -59 21 -90t61 -31q44 0 60 34t16 165zM636 633q1 6 2 17q3 59 3 85q0 102 -21 146.5t-69 44.5q-53 0 -121 -86q-12 -15 -18 -22q-47 -57 -89.5 -82t-91.5 -25q-54 0 -90.5 37.5t-36.5 95.5q0 112 145.5 189
t366.5 77q245 0 371.5 -93.5t126.5 -273.5q0 -47 -3 -126.5t-3 -110.5v-31q0 -126 11 -155t50 -39q30 -8 46 -26.5t16 -45.5q0 -84 -104.5 -159t-239.5 -75q-47 0 -78 10.5t-55 32.5q-13 13 -34 35q-33 37 -48 37q-14 0 -38 -19q-10 -8 -16 -12q-59 -42 -111 -58.5
t-122 -16.5q-164 0 -263 88.5t-99 232.5q0 147 129.5 246.5t320.5 99.5q32 0 72.5 -4.5t90.5 -13.5zM715 1339q0 59 39.5 98.5t97.5 39.5q59 0 98.5 -39.5t39.5 -98.5q0 -58 -39.5 -97.5t-98.5 -39.5q-57 0 -97 40t-40 97zM267 1339q0 58 40 99t97 41q59 0 98 -40t39 -100
q0 -58 -39.5 -97.5t-97.5 -39.5q-57 0 -97 40.5t-40 96.5z" />
    <glyph glyph-name="aring" unicode="&#xe5;" horiz-adv-x="1245" 
d="M516 1460q0 -48 33 -81t82 -33q47 0 80.5 33.5t33.5 80.5q0 48 -33.5 81.5t-80.5 33.5q-48 0 -81.5 -33.5t-33.5 -81.5zM346 1460q0 120 82 202.5t201 82.5q120 0 203 -82.5t83 -202.5t-82.5 -202t-203.5 -82q-120 0 -201.5 82t-81.5 202zM635 426q0 35 -8.5 44t-44.5 9
q-50 0 -77.5 -34t-27.5 -97q0 -59 21 -90t61 -31q44 0 60 34t16 165zM636 633q1 6 2 17q3 59 3 85q0 102 -21 146.5t-69 44.5q-53 0 -121 -86q-12 -15 -18 -22q-47 -57 -89.5 -82t-91.5 -25q-54 0 -90.5 37.5t-36.5 95.5q0 112 145.5 189t366.5 77q245 0 371.5 -93.5
t126.5 -273.5q0 -47 -3 -126.5t-3 -110.5v-31q0 -126 11 -155t50 -39q30 -8 46 -26.5t16 -45.5q0 -84 -104.5 -159t-239.5 -75q-47 0 -78 10.5t-55 32.5q-13 13 -34 35q-33 37 -48 37q-14 0 -38 -19q-10 -8 -16 -12q-59 -42 -111 -58.5t-122 -16.5q-164 0 -263 88.5
t-99 232.5q0 147 129.5 246.5t320.5 99.5q32 0 72.5 -4.5t90.5 -13.5z" />
    <glyph glyph-name="ae" unicode="&#xe6;" horiz-adv-x="1741" 
d="M636 633q1 6 2 17q3 59 3 85q0 102 -21 146.5t-69 44.5q-53 0 -121 -86q-12 -15 -18 -22q-47 -57 -89.5 -82t-91.5 -25q-54 0 -90.5 37.5t-36.5 95.5q0 115 149.5 189.5t389.5 74.5q92 0 157.5 -19.5t114.5 -60.5q68 41 138.5 60.5t148.5 19.5q223 0 368.5 -129
t145.5 -322q0 -85 -26 -121t-88 -36h-463q-36 0 -50 -6.5t-14 -22.5q0 -76 77.5 -140.5t178.5 -64.5q75 0 161 45t103 45q37 0 61.5 -30t24.5 -76q0 -40 -34.5 -87t-94.5 -87q-82 -55 -175 -81t-203 -26q-127 0 -210.5 32.5t-158.5 109.5q-93 -65 -196 -96t-224 -31
q-164 0 -263 88t-99 231q0 151 125.5 249.5t320.5 98.5q35 0 77 -4.5t90 -13.5zM635 426q0 37 -9.5 47t-50.5 10q-51 0 -79.5 -36.5t-28.5 -102.5q0 -64 22 -96.5t66 -32.5q46 0 63 36t17 175zM1171 707h37q79 0 96 11.5t17 57.5q0 59 -33.5 96t-85.5 37q-53 0 -93 -43.5
t-40 -103.5q0 -33 11.5 -44t56.5 -11h34z" />
    <glyph glyph-name="ccedilla" unicode="&#xe7;" horiz-adv-x="1169" 
d="M47 539q0 98 28 181.5t85 151.5q94 115 227.5 175.5t292.5 60.5q206 0 334.5 -88.5t128.5 -226.5q0 -93 -62 -156.5t-151 -63.5q-53 0 -94.5 23t-71.5 68q-11 16 -27 51q-37 86 -100 86q-50 0 -81.5 -40t-31.5 -104q0 -112 79 -198t181 -86q60 0 142 32.5t110 32.5
q44 0 75.5 -37t31.5 -90q0 -67 -45.5 -130.5t-126.5 -110.5q-82 -47 -171 -72t-177 -25q-115 0 -218.5 41t-183.5 117q-87 84 -130.5 186t-43.5 222zM533 0h120q-3 -28 -4.5 -51.5t-1.5 -44.5q19 4 39 6t41 2q89 0 141 -44.5t52 -119.5q0 -96 -76 -152.5t-205 -56.5
t-213 32.5t-84 80.5q0 29 18.5 48t47.5 19q19 0 87 -22.5t119 -22.5q50 0 74.5 16t24.5 48t-30 44.5t-128 12.5q-26 0 -34.5 10.5t-8.5 40.5q0 13 5.5 54t15.5 100z" />
    <glyph glyph-name="egrave" unicode="&#xe8;" horiz-adv-x="1169" 
d="M1030 500h-463q-38 0 -50.5 -6.5t-12.5 -22.5q0 -76 77.5 -140.5t178.5 -64.5q75 0 161 45t103 45q37 0 61.5 -30t24.5 -76q0 -41 -34 -87.5t-95 -86.5q-80 -53 -170.5 -80t-189.5 -27q-249 0 -412.5 161t-163.5 402q0 88 27 172.5t80 157.5q82 116 208.5 181t270.5 65
q224 0 369 -128.5t145 -322.5q0 -84 -26.5 -120.5t-88.5 -36.5zM600 705h21q92 0 110.5 12t18.5 59q0 58 -33.5 94.5t-85.5 36.5q-54 0 -93.5 -42.5t-39.5 -102.5q0 -35 12.5 -46t62.5 -11h27zM673 1212l-378 91q-43 10 -57 22.5t-14 38.5q0 61 26 112.5t55 51.5
q22 0 61 -13l10 -4l343 -122q69 -25 86 -39t17 -35q0 -51 -22 -82t-58 -31q-15 0 -32 2.5t-37 7.5z" />
    <glyph glyph-name="eacute" unicode="&#xe9;" horiz-adv-x="1169" 
d="M1030 500h-463q-38 0 -50.5 -6.5t-12.5 -22.5q0 -76 77.5 -140.5t178.5 -64.5q75 0 161 45t103 45q37 0 61.5 -30t24.5 -76q0 -41 -34 -87.5t-95 -86.5q-80 -53 -170.5 -80t-189.5 -27q-249 0 -412.5 161t-163.5 402q0 88 27 172.5t80 157.5q82 116 208.5 181t270.5 65
q224 0 369 -128.5t145 -322.5q0 -84 -26.5 -120.5t-88.5 -36.5zM600 705h21q92 0 110.5 12t18.5 59q0 58 -33.5 94.5t-85.5 36.5q-54 0 -93.5 -42.5t-39.5 -102.5q0 -35 12.5 -46t62.5 -11h27zM520 1212q-20 -5 -38 -7.5t-33 -2.5q-36 0 -57 31t-21 82q0 21 17 35t85 39
l342 122q3 1 10 4q39 13 60 13q30 0 57 -51.5t27 -112.5q0 -26 -14.5 -38.5t-57.5 -22.5z" />
    <glyph glyph-name="ecircumflex" unicode="&#xea;" horiz-adv-x="1169" 
d="M1030 500h-463q-38 0 -50.5 -6.5t-12.5 -22.5q0 -76 77.5 -140.5t178.5 -64.5q75 0 161 45t103 45q37 0 61.5 -30t24.5 -76q0 -41 -34 -87.5t-95 -86.5q-80 -53 -170.5 -80t-189.5 -27q-249 0 -412.5 161t-163.5 402q0 88 27 172.5t80 157.5q82 116 208.5 181t270.5 65
q224 0 369 -128.5t145 -322.5q0 -84 -26.5 -120.5t-88.5 -36.5zM600 705h21q92 0 110.5 12t18.5 59q0 58 -33.5 94.5t-85.5 36.5q-54 0 -93.5 -42.5t-39.5 -102.5q0 -35 12.5 -46t62.5 -11h27zM598 1370q-28 -30 -71 -78q-70 -76 -83 -82q-8 -3 -35 -5.5t-63 -2.5
q-59 0 -80.5 7.5t-21.5 25.5q0 11 15 29l3 3l189 220q37 43 60 52t87 9q56 0 75.5 -8.5t45.5 -38.5l205 -237q7 -9 10.5 -18t3.5 -17q0 -15 -23 -21t-89 -6h-25q-42 0 -60.5 9t-35.5 30z" />
    <glyph glyph-name="edieresis" unicode="&#xeb;" horiz-adv-x="1169" 
d="M1030 500h-463q-38 0 -50.5 -6.5t-12.5 -22.5q0 -76 77.5 -140.5t178.5 -64.5q75 0 161 45t103 45q37 0 61.5 -30t24.5 -76q0 -41 -34 -87.5t-95 -86.5q-80 -53 -170.5 -80t-189.5 -27q-249 0 -412.5 161t-163.5 402q0 88 27 172.5t80 157.5q82 116 208.5 181t270.5 65
q224 0 369 -128.5t145 -322.5q0 -84 -26.5 -120.5t-88.5 -36.5zM600 705h21q92 0 110.5 12t18.5 59q0 58 -33.5 94.5t-85.5 36.5q-54 0 -93.5 -42.5t-39.5 -102.5q0 -35 12.5 -46t62.5 -11h27zM678 1339q0 59 39.5 98.5t97.5 39.5q59 0 98.5 -39.5t39.5 -98.5
q0 -58 -39.5 -97.5t-98.5 -39.5q-57 0 -97 40t-40 97zM230 1339q0 58 40 99t97 41q59 0 98 -40t39 -100q0 -58 -39.5 -97.5t-97.5 -39.5q-57 0 -97 40.5t-40 96.5z" />
    <glyph glyph-name="igrave" unicode="&#xec;" horiz-adv-x="829" 
d="M678 344q0 -45 9 -63.5t33 -40.5q5 -4 15 -13q56 -46 56 -94q0 -75 -90 -113t-269 -38q-182 0 -280.5 40.5t-98.5 114.5q0 51 62 98h1q5 4 12 9q29 23 34 41q8 24 11 82t3 188v45q0 99 -12 135t-46 58q-3 2 -12 7q-61 36 -61 89q0 41 30 69t109 58q112 43 232.5 68.5
t193.5 25.5q41 0 54.5 -12t13.5 -58v-61v-635zM503 1212l-378 91q-43 10 -57 22.5t-14 38.5q0 61 26 112.5t55 51.5q22 0 61 -13l10 -4l343 -122q69 -25 86 -39t17 -35q0 -51 -22 -82t-58 -31q-15 0 -32 2.5t-37 7.5z" />
    <glyph glyph-name="iacute" unicode="&#xed;" horiz-adv-x="829" 
d="M678 344q0 -45 9 -63.5t33 -40.5q5 -4 15 -13q56 -46 56 -94q0 -75 -90 -113t-269 -38q-182 0 -280.5 40.5t-98.5 114.5q0 51 62 98h1q5 4 12 9q29 23 34 41q8 24 11 82t3 188v45q0 99 -12 135t-46 58q-3 2 -12 7q-61 36 -61 89q0 41 30 69t109 58q112 43 232.5 68.5
t193.5 25.5q41 0 54.5 -12t13.5 -58v-61v-635zM350 1212q-20 -5 -38 -7.5t-33 -2.5q-36 0 -57 31t-21 82q0 21 17 35t85 39l342 122q3 1 10 4q39 13 60 13q30 0 57 -51.5t27 -112.5q0 -26 -14.5 -38.5t-57.5 -22.5z" />
    <glyph glyph-name="icircumflex" unicode="&#xee;" horiz-adv-x="829" 
d="M678 344q0 -45 9 -63.5t33 -40.5q5 -4 15 -13q56 -46 56 -94q0 -75 -90 -113t-269 -38q-182 0 -280.5 40.5t-98.5 114.5q0 51 62 98h1q5 4 12 9q29 23 34 41q8 24 11 82t3 188v45q0 99 -12 135t-46 58q-3 2 -12 7q-61 36 -61 89q0 41 30 69t109 58q112 43 232.5 68.5
t193.5 25.5q41 0 54.5 -12t13.5 -58v-61v-635zM428 1370q-28 -30 -71 -78q-70 -76 -83 -82q-8 -3 -35 -5.5t-63 -2.5q-59 0 -80.5 7.5t-21.5 25.5q0 11 15 29l3 3l189 220q37 43 60 52t87 9q56 0 75.5 -8.5t45.5 -38.5l205 -237q7 -9 10.5 -18t3.5 -17q0 -15 -23 -21t-89 -6
h-25q-42 0 -60.5 9t-35.5 30z" />
    <glyph glyph-name="idieresis" unicode="&#xef;" horiz-adv-x="829" 
d="M678 344q0 -45 9 -63.5t33 -40.5q5 -4 15 -13q56 -46 56 -94q0 -75 -90 -113t-269 -38q-182 0 -280.5 40.5t-98.5 114.5q0 51 62 98h1q5 4 12 9q29 23 34 41q8 24 11 82t3 188v45q0 99 -12 135t-46 58q-3 2 -12 7q-61 36 -61 89q0 41 30 69t109 58q112 43 232.5 68.5
t193.5 25.5q41 0 54.5 -12t13.5 -58v-61v-635zM508 1339q0 59 39.5 98.5t97.5 39.5q59 0 98.5 -39.5t39.5 -98.5q0 -58 -39.5 -97.5t-98.5 -39.5q-57 0 -97 40t-40 97zM60 1339q0 58 40 99t97 41q59 0 98 -40t39 -100q0 -58 -39.5 -97.5t-97.5 -39.5q-57 0 -97 40.5
t-40 96.5z" />
    <glyph glyph-name="eth" unicode="&#xf0;" horiz-adv-x="1214" 
d="M571 758q-39 0 -60.5 -38.5t-21.5 -109.5q0 -163 51 -287t111 -124q38 0 60 33t22 92q0 177 -49.5 305.5t-112.5 128.5zM645 954l-147 220l-242 -121q-36 -19 -57 -27t-33 -8q-23 0 -38 14.5t-15 36.5q0 27 25.5 51.5t88.5 57.5l64 34l121 60q-34 35 -91 85
q-71 62 -71 89q0 30 24 48.5t64 18.5q59 0 137.5 -33.5t161.5 -95.5l199 99q30 16 53.5 24.5t38.5 8.5q22 0 38.5 -15.5t16.5 -36.5q0 -27 -24.5 -51t-90.5 -57l-114 -58q217 -206 319.5 -390.5t102.5 -368.5q0 -256 -167.5 -417t-430.5 -161q-108 0 -200.5 34.5
t-166.5 102.5q-82 76 -126 171.5t-44 197.5q0 144 70.5 260t199.5 182q54 27 111.5 40.5t120.5 13.5q27 0 52 -2t50 -7z" />
    <glyph glyph-name="ntilde" unicode="&#xf1;" horiz-adv-x="1511" 
d="M61 127q0 46 39 77l39 31q12 20 16.5 102t4.5 316v33q0 51 -7 65.5t-47 41.5q-34 22 -48.5 43t-14.5 47q0 37 31 69t92 58q117 51 229 80.5t176 29.5q43 0 63.5 -23t20.5 -71q0 -54 6 -70t21 -16q12 0 29 27q12 20 22 32q42 54 104.5 81.5t143.5 27.5q105 0 192.5 -36.5
t137.5 -100.5q41 -54 59.5 -127.5t18.5 -196.5q0 -89 -3.5 -191.5t-3.5 -115.5q0 -47 8.5 -70t36.5 -53q4 -3 11 -10q41 -39 41 -76q0 -80 -88 -113.5t-308 -33.5q-143 0 -215.5 31.5t-72.5 95.5q0 34 31 66q13 14 18 22q20 31 28.5 90t8.5 235q0 127 -30.5 184.5
t-96.5 57.5q-54 0 -76.5 -42.5t-22.5 -152.5q0 -166 6 -239.5t19 -97.5q3 -6 14 -19q35 -44 35 -90q0 -76 -85.5 -108.5t-287.5 -32.5q-140 0 -217.5 38t-77.5 105zM903 1233q-63 0 -175 41t-158 41q-34 0 -55.5 -16.5t-43.5 -65.5q-8 -20 -16.5 -25.5t-26.5 -5.5
q-24 0 -41.5 11.5t-17.5 27.5q0 22 16.5 64t42.5 84q41 63 83.5 93.5t90.5 30.5q43 0 157.5 -41.5t182.5 -41.5q43 0 66.5 15t42.5 60q7 18 16 24.5t25 6.5q36 0 47.5 -8.5t11.5 -32.5q0 -94 -76 -178t-172 -84z" />
    <glyph glyph-name="ograve" unicode="&#xf2;" horiz-adv-x="1309" 
d="M526 674q0 -65 14.5 -144.5t39.5 -152.5q24 -73 54.5 -109.5t67.5 -36.5q42 0 66.5 37t24.5 101q0 193 -54.5 333t-124.5 140q-44 0 -66 -42t-22 -126zM37 522q0 128 51.5 236t153.5 192q92 77 208 117.5t244 40.5q259 0 419.5 -148t160.5 -389q0 -121 -46.5 -229.5
t-133.5 -191.5q-95 -89 -213.5 -134t-257.5 -45q-121 0 -222 37.5t-180 112.5q-89 83 -136.5 187t-47.5 214zM742 1212l-378 91q-43 10 -57 22.5t-14 38.5q0 61 26 112.5t55 51.5q22 0 61 -13l10 -4l343 -122q69 -25 86 -39t17 -35q0 -51 -22 -82t-58 -31q-15 0 -32 2.5
t-37 7.5z" />
    <glyph glyph-name="oacute" unicode="&#xf3;" horiz-adv-x="1309" 
d="M526 674q0 -65 14.5 -144.5t39.5 -152.5q24 -73 54.5 -109.5t67.5 -36.5q42 0 66.5 37t24.5 101q0 193 -54.5 333t-124.5 140q-44 0 -66 -42t-22 -126zM37 522q0 128 51.5 236t153.5 192q92 77 208 117.5t244 40.5q259 0 419.5 -148t160.5 -389q0 -121 -46.5 -229.5
t-133.5 -191.5q-95 -89 -213.5 -134t-257.5 -45q-121 0 -222 37.5t-180 112.5q-89 83 -136.5 187t-47.5 214zM589 1212q-20 -5 -38 -7.5t-33 -2.5q-36 0 -57 31t-21 82q0 21 17 35t85 39l342 122q3 1 10 4q39 13 60 13q30 0 57 -51.5t27 -112.5q0 -26 -14.5 -38.5
t-57.5 -22.5z" />
    <glyph glyph-name="ocircumflex" unicode="&#xf4;" horiz-adv-x="1309" 
d="M526 674q0 -65 14.5 -144.5t39.5 -152.5q24 -73 54.5 -109.5t67.5 -36.5q42 0 66.5 37t24.5 101q0 193 -54.5 333t-124.5 140q-44 0 -66 -42t-22 -126zM37 522q0 128 51.5 236t153.5 192q92 77 208 117.5t244 40.5q259 0 419.5 -148t160.5 -389q0 -121 -46.5 -229.5
t-133.5 -191.5q-95 -89 -213.5 -134t-257.5 -45q-121 0 -222 37.5t-180 112.5q-89 83 -136.5 187t-47.5 214zM667 1370q-28 -30 -71 -78q-70 -76 -83 -82q-8 -3 -35 -5.5t-63 -2.5q-59 0 -80.5 7.5t-21.5 25.5q0 11 15 29l3 3l189 220q37 43 60 52t87 9q56 0 75.5 -8.5
t45.5 -38.5l205 -237q7 -9 10.5 -18t3.5 -17q0 -15 -23 -21t-89 -6h-25q-42 0 -60.5 9t-35.5 30z" />
    <glyph glyph-name="otilde" unicode="&#xf5;" horiz-adv-x="1309" 
d="M526 674q0 -65 14.5 -144.5t39.5 -152.5q24 -73 54.5 -109.5t67.5 -36.5q42 0 66.5 37t24.5 101q0 193 -54.5 333t-124.5 140q-44 0 -66 -42t-22 -126zM37 522q0 128 51.5 236t153.5 192q92 77 208 117.5t244 40.5q259 0 419.5 -148t160.5 -389q0 -121 -46.5 -229.5
t-133.5 -191.5q-95 -89 -213.5 -134t-257.5 -45q-121 0 -222 37.5t-180 112.5q-89 83 -136.5 187t-47.5 214zM802 1233q-63 0 -175 41t-158 41q-34 0 -55.5 -16.5t-43.5 -65.5q-8 -20 -16.5 -25.5t-26.5 -5.5q-24 0 -41.5 11.5t-17.5 27.5q0 22 16.5 64t42.5 84
q41 63 83.5 93.5t90.5 30.5q43 0 157.5 -41.5t182.5 -41.5q43 0 66.5 15t42.5 60q7 18 16 24.5t25 6.5q36 0 47.5 -8.5t11.5 -32.5q0 -94 -76 -178t-172 -84z" />
    <glyph glyph-name="odieresis" unicode="&#xf6;" horiz-adv-x="1309" 
d="M526 674q0 -65 14.5 -144.5t39.5 -152.5q24 -73 54.5 -109.5t67.5 -36.5q42 0 66.5 37t24.5 101q0 193 -54.5 333t-124.5 140q-44 0 -66 -42t-22 -126zM37 522q0 128 51.5 236t153.5 192q92 77 208 117.5t244 40.5q259 0 419.5 -148t160.5 -389q0 -121 -46.5 -229.5
t-133.5 -191.5q-95 -89 -213.5 -134t-257.5 -45q-121 0 -222 37.5t-180 112.5q-89 83 -136.5 187t-47.5 214zM747 1339q0 59 39.5 98.5t97.5 39.5q59 0 98.5 -39.5t39.5 -98.5q0 -58 -39.5 -97.5t-98.5 -39.5q-57 0 -97 40t-40 97zM299 1339q0 58 40 99t97 41q59 0 98 -40
t39 -100q0 -58 -39.5 -97.5t-97.5 -39.5q-57 0 -97 40.5t-40 96.5z" />
    <glyph glyph-name="divide" unicode="&#xf7;" horiz-adv-x="1706" 
d="M854 371q74 0 128 -54t54 -129q0 -74 -54 -128t-130 -54t-129 53t-53 129q0 77 53.5 130t130.5 53zM254 748h1198v-273h-1198v273zM854 1217q74 0 128 -55t54 -130q0 -74 -54 -128t-130 -54t-129 53t-53 129q0 77 54 131t130 54z" />
    <glyph glyph-name="oslash" unicode="&#xf8;" horiz-adv-x="1309" 
d="M395 12l-108 -155q-22 -32 -41.5 -45t-44.5 -13q-39 0 -70 29t-31 66q0 13 6.5 27.5t28.5 45.5l98 142q-94 83 -145 191t-51 222q0 127 51.5 234.5t153.5 193.5q90 76 205.5 117t240.5 41q60 0 118.5 -9.5t115.5 -29.5l90 129q23 33 42 46t44 13q38 0 68 -29.5t30 -66.5
q0 -23 -29 -68l-4 -6l-73 -108q93 -73 138.5 -174t45.5 -234q0 -121 -46.5 -229.5t-133.5 -191.5q-93 -89 -212 -134t-259 -45q-68 0 -124.5 10.5t-103.5 30.5zM535 485l188 267q-23 47 -49.5 70.5t-57.5 23.5q-53 0 -79.5 -40t-26.5 -122q0 -39 6 -89t19 -110zM776 582
l-186 -263q23 -46 52.5 -70t64.5 -24q45 0 71.5 39t26.5 107q0 39 -7 90.5t-22 120.5z" />
    <glyph glyph-name="ugrave" unicode="&#xf9;" horiz-adv-x="1505" 
d="M147 387v283q0 59 -10.5 81.5t-39.5 40.5q-6 4 -14 9q-58 36 -58 88q0 41 29 69t108 58q111 43 230 68.5t190 25.5q41 0 55 -14t14 -54q0 -10 -12 -192.5t-12 -353.5q0 -125 27 -174.5t91 -49.5q79 0 109.5 55.5t30.5 207.5v135q0 61 -10.5 82.5t-39.5 40.5q-3 2 -11 7
q-58 36 -58 89q0 41 28.5 69.5t104.5 57.5q108 42 225 68t185 26q43 0 55 -16t12 -105q0 -111 -7 -318.5t-7 -301.5q0 -76 45 -104q3 -2 4 -3q2 -1 3 -2q56 -36 56 -82q0 -79 -146 -134.5t-368 -55.5q-46 0 -56 7t-13 29l-3 36q-3 67 -38 67q-20 0 -56 -30q-11 -9 -16 -13
q-69 -53 -132.5 -74.5t-141.5 -21.5q-180 0 -266.5 97.5t-86.5 301.5zM841 1212l-378 91q-43 10 -57 22.5t-14 38.5q0 61 26 112.5t55 51.5q22 0 61 -13l10 -4l343 -122q69 -25 86 -39t17 -35q0 -51 -22 -82t-58 -31q-15 0 -32 2.5t-37 7.5z" />
    <glyph glyph-name="uacute" unicode="&#xfa;" horiz-adv-x="1505" 
d="M147 387v283q0 59 -10.5 81.5t-39.5 40.5q-6 4 -14 9q-58 36 -58 88q0 41 29 69t108 58q111 43 230 68.5t190 25.5q41 0 55 -14t14 -54q0 -10 -12 -192.5t-12 -353.5q0 -125 27 -174.5t91 -49.5q79 0 109.5 55.5t30.5 207.5v135q0 61 -10.5 82.5t-39.5 40.5q-3 2 -11 7
q-58 36 -58 89q0 41 28.5 69.5t104.5 57.5q108 42 225 68t185 26q43 0 55 -16t12 -105q0 -111 -7 -318.5t-7 -301.5q0 -76 45 -104q3 -2 4 -3q2 -1 3 -2q56 -36 56 -82q0 -79 -146 -134.5t-368 -55.5q-46 0 -56 7t-13 29l-3 36q-3 67 -38 67q-20 0 -56 -30q-11 -9 -16 -13
q-69 -53 -132.5 -74.5t-141.5 -21.5q-180 0 -266.5 97.5t-86.5 301.5zM688 1212q-20 -5 -38 -7.5t-33 -2.5q-36 0 -57 31t-21 82q0 21 17 35t85 39l342 122q3 1 10 4q39 13 60 13q30 0 57 -51.5t27 -112.5q0 -26 -14.5 -38.5t-57.5 -22.5z" />
    <glyph glyph-name="ucircumflex" unicode="&#xfb;" horiz-adv-x="1505" 
d="M147 387v283q0 59 -10.5 81.5t-39.5 40.5q-6 4 -14 9q-58 36 -58 88q0 41 29 69t108 58q111 43 230 68.5t190 25.5q41 0 55 -14t14 -54q0 -10 -12 -192.5t-12 -353.5q0 -125 27 -174.5t91 -49.5q79 0 109.5 55.5t30.5 207.5v135q0 61 -10.5 82.5t-39.5 40.5q-3 2 -11 7
q-58 36 -58 89q0 41 28.5 69.5t104.5 57.5q108 42 225 68t185 26q43 0 55 -16t12 -105q0 -111 -7 -318.5t-7 -301.5q0 -76 45 -104q3 -2 4 -3q2 -1 3 -2q56 -36 56 -82q0 -79 -146 -134.5t-368 -55.5q-46 0 -56 7t-13 29l-3 36q-3 67 -38 67q-20 0 -56 -30q-11 -9 -16 -13
q-69 -53 -132.5 -74.5t-141.5 -21.5q-180 0 -266.5 97.5t-86.5 301.5zM766 1370q-28 -30 -71 -78q-70 -76 -83 -82q-8 -3 -35 -5.5t-63 -2.5q-59 0 -80.5 7.5t-21.5 25.5q0 11 15 29l3 3l189 220q37 43 60 52t87 9q56 0 75.5 -8.5t45.5 -38.5l205 -237q7 -9 10.5 -18
t3.5 -17q0 -15 -23 -21t-89 -6h-25q-42 0 -60.5 9t-35.5 30z" />
    <glyph glyph-name="udieresis" unicode="&#xfc;" horiz-adv-x="1505" 
d="M147 387v283q0 59 -10.5 81.5t-39.5 40.5q-6 4 -14 9q-58 36 -58 88q0 41 29 69t108 58q111 43 230 68.5t190 25.5q41 0 55 -14t14 -54q0 -10 -12 -192.5t-12 -353.5q0 -125 27 -174.5t91 -49.5q79 0 109.5 55.5t30.5 207.5v135q0 61 -10.5 82.5t-39.5 40.5q-3 2 -11 7
q-58 36 -58 89q0 41 28.5 69.5t104.5 57.5q108 42 225 68t185 26q43 0 55 -16t12 -105q0 -111 -7 -318.5t-7 -301.5q0 -76 45 -104q3 -2 4 -3q2 -1 3 -2q56 -36 56 -82q0 -79 -146 -134.5t-368 -55.5q-46 0 -56 7t-13 29l-3 36q-3 67 -38 67q-20 0 -56 -30q-11 -9 -16 -13
q-69 -53 -132.5 -74.5t-141.5 -21.5q-180 0 -266.5 97.5t-86.5 301.5zM846 1339q0 59 39.5 98.5t97.5 39.5q59 0 98.5 -39.5t39.5 -98.5q0 -58 -39.5 -97.5t-98.5 -39.5q-57 0 -97 40t-40 97zM398 1339q0 58 40 99t97 41q59 0 98 -40t39 -100q0 -58 -39.5 -97.5t-97.5 -39.5
q-57 0 -97 40.5t-40 96.5z" />
    <glyph glyph-name="yacute" unicode="&#xfd;" horiz-adv-x="1352" 
d="M362 330l-157 341q-5 11 -13 30q-37 88 -86 112q-5 3 -18 9q-76 37 -76 102q0 82 105.5 126t306.5 44q190 0 261 -30t71 -103q0 -43 -34 -73.5t-34 -43.5q0 -16 10 -47t31 -84q21 -52 41 -72t49 -20q25 0 44.5 19.5t41.5 70.5q18 37 28.5 73t10.5 50q0 24 -41 63.5
t-41 71.5q0 59 67.5 91t192.5 32q119 0 176.5 -31t57.5 -94q0 -44 -18 -68.5t-83 -48.5q-82 -32 -139 -181l-2 -6q-29 -79 -111.5 -343.5t-156.5 -399.5q-92 -165 -204.5 -242t-258.5 -77q-153 0 -246.5 79.5t-93.5 206.5q0 85 56.5 145t133.5 60q56 0 98.5 -27t65.5 -77
q14 -29 25 -79q15 -63 43 -63q24 0 37.5 18.5t13.5 51.5q0 79 -151 408zM610 1212q-20 -5 -38 -7.5t-33 -2.5q-36 0 -57 31t-21 82q0 21 17 35t85 39l342 122q3 1 10 4q39 13 60 13q30 0 57 -51.5t27 -112.5q0 -26 -14.5 -38.5t-57.5 -22.5z" />
    <glyph glyph-name="thorn" unicode="&#xfe;" horiz-adv-x="1466" 
d="M676 12q0 -63 13 -91t54 -50l28 -14q89 -45 89 -107q0 -76 -104.5 -112.5t-319.5 -36.5q-197 0 -296 38t-99 113q0 53 77 103q25 16 35 24q23 17 32.5 106.5t9.5 352.5v246q0 50 1 131.5t1 111.5q0 143 -10.5 203.5t-34.5 83.5q-15 14 -76.5 42.5t-61.5 84.5
q0 42 25 74.5t80 62.5q91 51 217.5 83t238.5 32q61 0 82 -17.5t21 -72.5q0 -21 -4 -127.5t-4 -192.5q0 -76 2.5 -93t9.5 -17q17 0 59 38q11 10 17 15q44 38 102.5 58t124.5 20q195 0 315.5 -145.5t120.5 -385.5q0 -126 -34 -231.5t-101 -185.5q-72 -87 -160.5 -133
t-185.5 -46q-78 0 -162 40t-88 40q-7 0 -10.5 -10.5t-3.5 -34.5zM766 793q-43 0 -62.5 -17.5t-25.5 -62.5q-8 -62 -12 -143.5t-4 -170.5q0 -78 23 -107.5t83 -29.5q76 0 115 59t39 175q0 130 -45 213.5t-111 83.5z" />
    <glyph glyph-name="ydieresis" unicode="&#xff;" horiz-adv-x="1352" 
d="M362 330l-157 341q-5 11 -13 30q-37 88 -86 112q-5 3 -18 9q-76 37 -76 102q0 82 105.5 126t306.5 44q190 0 261 -30t71 -103q0 -43 -34 -73.5t-34 -43.5q0 -16 10 -47t31 -84q21 -52 41 -72t49 -20q25 0 44.5 19.5t41.5 70.5q18 37 28.5 73t10.5 50q0 24 -41 63.5
t-41 71.5q0 59 67.5 91t192.5 32q119 0 176.5 -31t57.5 -94q0 -44 -18 -68.5t-83 -48.5q-82 -32 -139 -181l-2 -6q-29 -79 -111.5 -343.5t-156.5 -399.5q-92 -165 -204.5 -242t-258.5 -77q-153 0 -246.5 79.5t-93.5 206.5q0 85 56.5 145t133.5 60q56 0 98.5 -27t65.5 -77
q14 -29 25 -79q15 -63 43 -63q24 0 37.5 18.5t13.5 51.5q0 79 -151 408zM768 1339q0 59 39.5 98.5t97.5 39.5q59 0 98.5 -39.5t39.5 -98.5q0 -58 -39.5 -97.5t-98.5 -39.5q-57 0 -97 40t-40 97zM320 1339q0 58 40 99t97 41q59 0 98 -40t39 -100q0 -58 -39.5 -97.5
t-97.5 -39.5q-57 0 -97 40.5t-40 96.5z" />
    <glyph glyph-name="Cacute" unicode="&#x106;" horiz-adv-x="1620" 
d="M1316 114q-103 -74 -222 -111.5t-250 -37.5q-160 0 -296 52t-245 155q-116 110 -179 254t-63 301q0 153 60 299t170 258q108 112 250.5 172t300.5 60q119 0 242.5 -41t132.5 -41q12 0 47.5 9t58.5 9q83 0 152 -113.5t69 -255.5q0 -100 -56 -163.5t-142 -63.5
q-95 0 -165 113q-11 19 -18 28q-63 97 -145 148t-174 51q-113 0 -177.5 -75.5t-64.5 -209.5q0 -102 30 -192.5t87 -163.5q69 -86 156.5 -132t181.5 -46q78 0 145.5 26.5t142.5 87.5q7 6 17 16q36 34 63 34q42 0 70.5 -41.5t28.5 -104.5q0 -107 -60.5 -194.5t-130.5 -87.5
q-6 0 -9.5 0.5t-7.5 0.5zM751 1607q-20 -5 -38 -7.5t-33 -2.5q-36 0 -57 31t-21 82q0 21 17 35t85 39l342 122q3 1 10 4q39 13 60 13q30 0 57 -51.5t27 -112.5q0 -26 -14.5 -38.5t-57.5 -22.5z" />
    <glyph glyph-name="cacute" unicode="&#x107;" horiz-adv-x="1169" 
d="M47 539q0 98 28 181.5t85 151.5q94 115 227.5 175.5t292.5 60.5q206 0 334.5 -88.5t128.5 -226.5q0 -93 -62 -156.5t-151 -63.5q-53 0 -94.5 23t-71.5 68q-11 16 -27 51q-37 86 -100 86q-50 0 -81.5 -40t-31.5 -104q0 -112 79 -198t181 -86q60 0 142 32.5t110 32.5
q44 0 75.5 -37t31.5 -90q0 -67 -45.5 -130.5t-126.5 -110.5q-82 -47 -171 -72t-177 -25q-115 0 -218.5 41t-183.5 117q-87 84 -130.5 186t-43.5 222zM593 1212q-20 -5 -38 -7.5t-33 -2.5q-36 0 -57 31t-21 82q0 21 17 35t85 39l342 122q3 1 10 4q39 13 60 13q30 0 57 -51.5
t27 -112.5q0 -26 -14.5 -38.5t-57.5 -22.5z" />
    <glyph glyph-name="Ccaron" unicode="&#x10c;" horiz-adv-x="1620" 
d="M1316 114q-103 -74 -222 -111.5t-250 -37.5q-160 0 -296 52t-245 155q-116 110 -179 254t-63 301q0 153 60 299t170 258q108 112 250.5 172t300.5 60q119 0 242.5 -41t132.5 -41q12 0 47.5 9t58.5 9q83 0 152 -113.5t69 -255.5q0 -100 -56 -163.5t-142 -63.5
q-95 0 -165 113q-11 19 -18 28q-63 97 -145 148t-174 51q-113 0 -177.5 -75.5t-64.5 -209.5q0 -102 30 -192.5t87 -163.5q69 -86 156.5 -132t181.5 -46q78 0 145.5 26.5t142.5 87.5q7 6 17 16q36 34 63 34q42 0 70.5 -41.5t28.5 -104.5q0 -107 -60.5 -194.5t-130.5 -87.5
q-6 0 -9.5 0.5t-7.5 0.5zM815 1777q23 25 60 66q80 86 94 92q9 4 35.5 6t62.5 2q58 0 79 -7t21 -25q0 -8 -3 -14.5t-13 -18.5l-189 -219q-37 -44 -60 -53t-87 -9q-57 0 -77.5 9t-45.5 38l-203 238q-6 8 -10 18t-4 19q0 14 21 19t92 5h24q42 0 61 -8.5t35 -30.5z" />
    <glyph glyph-name="ccaron" unicode="&#x10d;" horiz-adv-x="1169" 
d="M47 539q0 98 28 181.5t85 151.5q94 115 227.5 175.5t292.5 60.5q206 0 334.5 -88.5t128.5 -226.5q0 -93 -62 -156.5t-151 -63.5q-53 0 -94.5 23t-71.5 68q-11 16 -27 51q-37 86 -100 86q-50 0 -81.5 -40t-31.5 -104q0 -112 79 -198t181 -86q60 0 142 32.5t110 32.5
q44 0 75.5 -37t31.5 -90q0 -67 -45.5 -130.5t-126.5 -110.5q-82 -47 -171 -72t-177 -25q-115 0 -218.5 41t-183.5 117q-87 84 -130.5 186t-43.5 222zM657 1382q23 25 60 66q80 86 94 92q9 4 35.5 6t62.5 2q58 0 79 -7t21 -25q0 -8 -3 -14.5t-13 -18.5l-189 -219
q-37 -44 -60 -53t-87 -9q-57 0 -77.5 9t-45.5 38l-203 238q-6 8 -10 18t-4 19q0 14 21 19t92 5h24q42 0 61 -8.5t35 -30.5z" />
    <glyph glyph-name="dcroat" unicode="&#x111;" horiz-adv-x="1440" 
d="M811 1075h-133q-105 0 -132.5 16t-27.5 56q0 39 31.5 54.5t128.5 15.5h131v6q0 22 -65.5 43.5t-65.5 64.5q0 32 33 56t112 49q100 30 219 49.5t197 19.5q38 0 46.5 -13.5t8.5 -90.5q0 -51 -0.5 -95t-1.5 -89h29q60 0 84.5 -16t24.5 -54t-32.5 -55t-107.5 -17v-53
q-4 -320 -4 -461v-86q0 -114 7.5 -149.5t26.5 -48.5q10 -7 37 -16q79 -27 79 -79q0 -39 -28.5 -70.5t-86.5 -56.5q-88 -39 -179 -60.5t-165 -21.5q-83 0 -114.5 14t-31.5 52v45q0 14 -4 23.5t-10 9.5q-7 0 -37 -24q-128 -101 -258 -101q-198 0 -333.5 143t-135.5 361
q0 208 149.5 356.5t352.5 148.5q112 0 224 -52q18 -9 22 -9q6 1 8 12.5t2 63.5v59zM561 504q0 -100 34 -159.5t89 -59.5q65 0 95 77.5t30 247.5v56q0 67 -20.5 93.5t-67.5 26.5q-75 0 -117.5 -74.5t-42.5 -207.5z" />
    <glyph glyph-name="Gbreve" unicode="&#x11e;" horiz-adv-x="1772" 
d="M63 750q0 156 66.5 300t189.5 257q116 105 257 157t311 52q136 0 289 -51q45 -15 57 -15q20 0 63.5 19.5t67.5 19.5q86 0 150.5 -101.5t64.5 -244.5q0 -99 -49 -155t-135 -56q-58 0 -100.5 25t-102.5 106q-66 88 -128.5 125t-141.5 37q-133 0 -217 -99t-84 -256
q0 -259 113 -430.5t276 -171.5q51 0 78.5 34t27.5 97t-99 72q-11 1 -17 2q-47 5 -77 36.5t-30 76.5q0 89 110 134.5t326 45.5q218 0 325 -43.5t107 -132.5q0 -28 -12.5 -54t-32.5 -38q-30 -20 -70 -31.5t-42 -13.5q-10 -10 -18 -46q-2 -9 -3 -14q-19 -71 -45.5 -122
t-69.5 -101q-88 -105 -234 -158t-347 -53q-371 0 -597.5 217.5t-226.5 573.5zM870 1597q-129 0 -220 88t-91 203q0 25 9.5 38t29.5 13t34 -27q8 -16 15 -24q37 -45 93 -67.5t128 -22.5q74 0 131.5 22.5t91.5 65.5q6 7 14 21q16 28 35 28q23 0 30 -8.5t7 -38.5
q0 -125 -86 -208t-221 -83z" />
    <glyph glyph-name="gbreve" unicode="&#x11f;" horiz-adv-x="1243" 
d="M332 -22q-3 -9 -4.5 -16.5t-1.5 -16.5q0 -56 73 -100t174 -44q94 0 147.5 27t53.5 74q0 27 -16.5 42t-46.5 15q-18 0 -77.5 -5t-101.5 -5q-58 0 -107 7t-93 22zM483 784q0 -110 33 -171.5t92 -61.5q54 0 80.5 39.5t26.5 120.5q0 113 -32 172t-93 59q-52 0 -79.5 -40.5
t-27.5 -117.5zM221 463q-79 43 -121.5 114.5t-42.5 159.5q0 161 146.5 266t374.5 105q81 0 191 -24.5t138 -24.5q86 0 168.5 50t83.5 50q39 0 59.5 -27.5t20.5 -78.5q0 -58 -28 -108.5t-91 -105.5q3 -17 4.5 -35.5t1.5 -35.5q0 -167 -140.5 -271t-369.5 -104
q-40 0 -84.5 3.5t-93.5 10.5q-14 -7 -21 -18.5t-7 -28.5q0 -35 43.5 -58t113.5 -23q39 0 155.5 14t195.5 14q155 0 236 -68.5t81 -199.5q0 -191 -187 -312.5t-489 -121.5q-238 0 -392.5 87.5t-154.5 215.5q0 58 34 97t104 58q-66 35 -98 81.5t-32 107.5q0 71 51 124t150 87z
M629 1202q-129 0 -220 88t-91 203q0 25 9.5 38t29.5 13t34 -27q8 -16 15 -24q37 -45 93 -67.5t128 -22.5q74 0 131.5 22.5t91.5 65.5q6 7 14 21q16 28 35 28q23 0 30 -8.5t7 -38.5q0 -125 -86 -208t-221 -83z" />
    <glyph glyph-name="Idotaccent" unicode="&#x130;" horiz-adv-x="942" 
d="M53 141q0 62 79 109q28 17 40 26q29 22 40 123t11 379q0 48 1 122t1 101q0 108 -9.5 154.5t-32.5 64.5q-12 9 -37 24q-70 42 -70 97q0 77 101.5 114.5t307.5 37.5q203 0 297.5 -35.5t94.5 -111.5q0 -55 -54.5 -92.5t-56.5 -41.5q-20 -28 -28.5 -194.5t-8.5 -536.5
q0 -105 8 -148t27 -61q12 -11 40 -31q68 -49 68 -104q0 -76 -101 -112.5t-310 -36.5q-194 0 -301 40t-107 113zM306 1745q0 64 44 107.5t107 43.5q65 0 108.5 -43.5t43.5 -107.5t-44 -107t-108 -43q-63 0 -107 44t-44 106z" />
    <glyph glyph-name="dotlessi" unicode="&#x131;" horiz-adv-x="829" 
d="M678 344q0 -45 9 -63.5t33 -40.5q5 -4 15 -13q56 -46 56 -94q0 -75 -90 -113t-269 -38q-182 0 -280.5 40.5t-98.5 114.5q0 51 62 98h1q5 4 12 9q29 23 34 41q8 24 11 82t3 188v45q0 99 -12 135t-46 58q-3 2 -12 7q-61 36 -61 89q0 41 30 69t109 58q112 43 232.5 68.5
t193.5 25.5q41 0 54.5 -12t13.5 -58v-61v-635z" />
    <glyph glyph-name="Lslash" unicode="&#x141;" horiz-adv-x="1401" 
d="M893 0h-715q-60 0 -94.5 34t-34.5 93q0 60 72 105q33 21 45 34q26 29 38.5 88.5t12.5 151.5v22q-24 -16 -47.5 -24t-46.5 -8q-48 0 -79.5 29t-31.5 75q0 42 23.5 76.5t68.5 60.5l113 64q0 12 1 43.5t1 52.5q0 210 -9 265t-32 67q-12 6 -38 15q-87 30 -87 102
q0 75 115 116t328 41q207 0 313 -37t106 -110q0 -65 -80 -101q-27 -12 -38 -20q-33 -22 -44.5 -53t-11.5 -119v-43l66 37q32 18 57.5 26.5t50.5 8.5q42 0 72.5 -32.5t30.5 -78.5q0 -39 -28.5 -72.5t-90.5 -68.5l-159 -90q-2 -16 -2.5 -39t-0.5 -78q0 -155 3 -224.5t10 -93.5
q6 -26 41 -40.5t94 -14.5q112 0 168.5 30t89.5 105q6 15 16 43q32 88 88 88q59 0 100.5 -48t41.5 -120q0 -66 -31 -157.5t-76 -155.5q-26 -38 -56 -57t-65 -19q-3 0 -19 4q-112 27 -249 27z" />
    <glyph glyph-name="lslash" unicode="&#x142;" horiz-adv-x="844" 
d="M184 551q-32 -22 -53.5 -32.5t-34.5 -10.5q-25 0 -44 20.5t-19 46.5q0 29 20.5 54.5t75.5 62.5l61 41v62v43q0 149 -9.5 201t-33.5 75q-14 14 -75.5 43t-61.5 84q0 41 23 71.5t82 63.5q94 53 221.5 85t247.5 32q62 0 83 -18t21 -72q0 -9 -4 -121t-4 -213v-92q26 19 49 29
t41 10q26 0 46 -21t20 -49q0 -26 -20.5 -50.5t-78.5 -61.5l-59 -39q0 -256 8.5 -377.5t28.5 -153.5q7 -12 54.5 -47t47.5 -86q0 -75 -100.5 -113t-296.5 -38q-194 0 -288.5 36t-94.5 111q0 61 69 92q25 11 35 19q24 18 33.5 83.5t9.5 229.5z" />
    <glyph glyph-name="OE" unicode="&#x152;" horiz-adv-x="2372" 
d="M565 963q0 -124 26 -250t73 -228q53 -119 117.5 -179t140.5 -60q86 0 135 77t49 214q0 103 -24 216.5t-68 223.5q-54 132 -116.5 194t-141.5 62q-87 0 -139 -73t-52 -197zM854 -37q-154 0 -295.5 56t-251.5 161q-117 111 -180.5 257.5t-63.5 307.5q0 158 68 310t186 260
q108 99 250.5 151t304.5 52q42 0 225 -19.5t324 -19.5q117 0 223 1.5t200 4.5q111 3 219 19q21 3 26 3q82 0 132 -82t50 -219q0 -79 -34 -126.5t-89 -47.5q-57 0 -113 78q-18 25 -28 37q-45 49 -103 70.5t-149 21.5q-115 0 -149 -6.5t-47 -22.5q-13 -14 -20 -70.5t-7 -148.5
q0 -87 16.5 -105t81.5 -18q48 0 68.5 15.5t30.5 60.5q1 9 5 28q23 124 91 124q74 0 110.5 -75.5t36.5 -227.5q0 -186 -39.5 -280.5t-115.5 -94.5q-68 0 -86 115v2q-13 75 -31 92.5t-68 17.5q-56 0 -74 -23t-18 -108q0 -115 6 -164t21 -67q14 -19 49.5 -26t136.5 -7
q115 0 191.5 29t123.5 90q18 22 44 66q50 85 110 85q59 0 90 -36.5t31 -106.5t-21.5 -147t-60.5 -150q-38 -68 -66 -93.5t-63 -25.5q-4 0 -25 4q-94 19 -186 25q-82 5 -207 7.5t-334 2.5q-249 0 -484 -32q-35 -5 -42 -5z" />
    <glyph glyph-name="oe" unicode="&#x153;" horiz-adv-x="1876" 
d="M510 676q0 -201 49.5 -331t122.5 -130q47 0 71.5 46.5t24.5 133.5q0 211 -46.5 343t-117.5 132q-51 0 -77.5 -49.5t-26.5 -144.5zM987 72q-82 -51 -171.5 -76t-192.5 -25q-119 0 -220.5 38t-181.5 112q-89 83 -136.5 187t-47.5 214q0 127 51.5 234.5t153.5 193.5
q93 78 210 118t253 40q83 0 164 -21.5t161 -64.5q75 43 152 64.5t155 21.5q122 0 216.5 -36t168.5 -109q62 -62 95.5 -139.5t33.5 -157.5q0 -92 -25 -129t-89 -37h-463q-36 0 -50 -6.5t-14 -22.5q0 -76 77.5 -140.5t178.5 -64.5q76 0 162 45t103 45q36 0 61 -30t25 -76
q0 -41 -34.5 -87.5t-94.5 -86.5q-81 -54 -173 -79.5t-206 -25.5q-88 0 -167.5 25t-154.5 76zM1305 707h20q94 0 112.5 12t18.5 59q0 58 -34 93.5t-87 35.5q-54 0 -93.5 -42.5t-39.5 -102.5q0 -33 11.5 -44t56.5 -11h35z" />
    <glyph glyph-name="Scedilla" unicode="&#x15e;" horiz-adv-x="1425" 
d="M676 -41q-175 0 -332.5 46.5t-210.5 105.5q-45 51 -70.5 144t-25.5 208q0 66 24 97.5t76 31.5q65 0 128 -95q21 -32 34 -48q72 -94 154 -141.5t172 -47.5q67 0 109 27t42 69q0 56 -159 111q-71 24 -113 41q-218 84 -326 209.5t-108 294.5q0 217 169.5 358t434.5 141
q98 0 196.5 -21.5t100.5 -21.5q26 0 68 9.5t59 9.5q38 0 69.5 -17.5t65.5 -58.5q54 -64 84.5 -133t30.5 -127q0 -71 -42 -115.5t-108 -44.5q-61 0 -158 94q-31 30 -49 45q-44 41 -101 64t-116 23q-58 0 -90.5 -23t-32.5 -64q0 -79 234 -148q34 -10 50 -15
q238 -71 336.5 -177.5t98.5 -285.5q0 -242 -191.5 -393.5t-502.5 -151.5zM627 0h120q-3 -28 -4.5 -51.5t-1.5 -44.5q19 4 39 6t41 2q89 0 141 -44.5t52 -119.5q0 -96 -76 -152.5t-205 -56.5t-213 32.5t-84 80.5q0 29 18.5 48t47.5 19q19 0 87 -22.5t119 -22.5q50 0 74.5 16
t24.5 48t-30 44.5t-128 12.5q-26 0 -34.5 10.5t-8.5 40.5q0 13 5.5 54t15.5 100z" />
    <glyph glyph-name="scedilla" unicode="&#x15f;" horiz-adv-x="1012" 
d="M979 334q0 -158 -121 -258.5t-315 -100.5q-72 0 -146.5 18.5t-79.5 18.5q-15 0 -47 -12t-49 -12q-62 0 -130 94.5t-68 196.5q0 62 22 93t66 31q58 0 129 -75q9 -10 14 -15q49 -51 89 -76.5t73 -25.5q23 0 39 13.5t16 31.5q0 53 -101 98q-35 15 -55 25q-131 65 -199.5 158
t-68.5 204q0 148 123.5 254.5t296.5 106.5q42 0 102.5 -13.5t77.5 -13.5q22 0 59.5 16.5t53.5 16.5q63 0 130.5 -89t67.5 -181q0 -54 -32.5 -86.5t-85.5 -32.5q-30 0 -57 11.5t-56 37.5q-14 13 -39 38q-66 68 -115 68q-25 0 -43 -16t-18 -39q0 -43 122 -101q37 -17 58 -28
q157 -79 222 -161t65 -195zM445 0h120q-3 -28 -4.5 -51.5t-1.5 -44.5q19 4 39 6t41 2q89 0 141 -44.5t52 -119.5q0 -96 -76 -152.5t-205 -56.5t-213 32.5t-84 80.5q0 29 18.5 48t47.5 19q19 0 87 -22.5t119 -22.5q50 0 74.5 16t24.5 48t-30 44.5t-128 12.5q-26 0 -34.5 10.5
t-8.5 40.5q0 13 5.5 54t15.5 100z" />
    <glyph glyph-name="Scaron" unicode="&#x160;" horiz-adv-x="1425" 
d="M676 -41q-175 0 -332.5 46.5t-210.5 105.5q-45 51 -70.5 144t-25.5 208q0 66 24 97.5t76 31.5q65 0 128 -95q21 -32 34 -48q72 -94 154 -141.5t172 -47.5q67 0 109 27t42 69q0 56 -159 111q-71 24 -113 41q-218 84 -326 209.5t-108 294.5q0 217 169.5 358t434.5 141
q98 0 196.5 -21.5t100.5 -21.5q26 0 68 9.5t59 9.5q38 0 69.5 -17.5t65.5 -58.5q54 -64 84.5 -133t30.5 -127q0 -71 -42 -115.5t-108 -44.5q-61 0 -158 94q-31 30 -49 45q-44 41 -101 64t-116 23q-58 0 -90.5 -23t-32.5 -64q0 -79 234 -148q34 -10 50 -15
q238 -71 336.5 -177.5t98.5 -285.5q0 -242 -191.5 -393.5t-502.5 -151.5zM690 1777q23 25 60 66q80 86 94 92q9 4 35.5 6t62.5 2q58 0 79 -7t21 -25q0 -8 -3 -14.5t-13 -18.5l-189 -219q-37 -44 -60 -53t-87 -9q-57 0 -77.5 9t-45.5 38l-203 238q-6 8 -10 18t-4 19
q0 14 21 19t92 5h24q42 0 61 -8.5t35 -30.5z" />
    <glyph glyph-name="scaron" unicode="&#x161;" horiz-adv-x="1012" 
d="M979 334q0 -158 -121 -258.5t-315 -100.5q-72 0 -146.5 18.5t-79.5 18.5q-15 0 -47 -12t-49 -12q-62 0 -130 94.5t-68 196.5q0 62 22 93t66 31q58 0 129 -75q9 -10 14 -15q49 -51 89 -76.5t73 -25.5q23 0 39 13.5t16 31.5q0 53 -101 98q-35 15 -55 25q-131 65 -199.5 158
t-68.5 204q0 148 123.5 254.5t296.5 106.5q42 0 102.5 -13.5t77.5 -13.5q22 0 59.5 16.5t53.5 16.5q63 0 130.5 -89t67.5 -181q0 -54 -32.5 -86.5t-85.5 -32.5q-30 0 -57 11.5t-56 37.5q-14 13 -39 38q-66 68 -115 68q-25 0 -43 -16t-18 -39q0 -43 122 -101q37 -17 58 -28
q157 -79 222 -161t65 -195zM504 1382q23 25 60 66q80 86 94 92q9 4 35.5 6t62.5 2q58 0 79 -7t21 -25q0 -8 -3 -14.5t-13 -18.5l-189 -219q-37 -44 -60 -53t-87 -9q-57 0 -77.5 9t-45.5 38l-203 238q-6 8 -10 18t-4 19q0 14 21 19t92 5h24q42 0 61 -8.5t35 -30.5z" />
    <glyph glyph-name="Ydieresis" unicode="&#x178;" horiz-adv-x="1481" 
d="M1108 965q-6 -8 -20 -24q-56 -67 -72 -112q-11 -30 -16 -73t-5 -129v-49q0 -143 11.5 -214.5t36.5 -89.5q10 -7 33 -19q75 -38 75 -103q0 -89 -96.5 -128.5t-313.5 -39.5q-201 0 -307 41t-106 118q0 34 17.5 58t76.5 57q29 16 38 25.5t13 23.5q7 31 10.5 113t3.5 203
q0 63 -2 97.5t-8 54.5q-10 35 -66 106q-13 17 -20 26l-203 264q-38 50 -102 69q-23 6 -32 11q-32 18 -48 43.5t-16 59.5q0 82 84.5 114.5t316.5 32.5q233 0 323.5 -31t90.5 -106q0 -39 -25.5 -74t-25.5 -45q0 -13 11.5 -38t31.5 -54q24 -36 42 -52t33 -16q24 0 65.5 61.5
t41.5 96.5q0 9 -28.5 50.5t-28.5 76.5q0 63 76.5 96t222.5 33q163 0 232 -29t69 -96q0 -38 -20.5 -62.5t-61.5 -35.5q-8 -2 -24 -5q-50 -10 -73 -28q-40 -30 -121 -133l-2 -3zM811 1734q0 59 39.5 98.5t97.5 39.5q59 0 98.5 -39.5t39.5 -98.5q0 -58 -39.5 -97.5t-98.5 -39.5
q-57 0 -97 40t-40 97zM363 1734q0 58 40 99t97 41q59 0 98 -40t39 -100q0 -58 -39.5 -97.5t-97.5 -39.5q-57 0 -97 40.5t-40 96.5z" />
    <glyph glyph-name="Zcaron" unicode="&#x17d;" horiz-adv-x="1354" 
d="M223 489l414 623q17 26 26 45.5t9 30.5q0 21 -23.5 30t-89.5 9q-81 0 -123 -18t-67 -62q-9 -15 -23 -47q-48 -109 -137 -109q-55 0 -87 39.5t-32 106.5q0 70 28 145t77 137q37 47 71 68.5t70 21.5q24 0 55 -8t37 -8h727q102 0 143 -24.5t41 -82.5q0 -68 -190 -366
q-72 -113 -113 -178l-276 -445q-20 -30 -27.5 -47t-7.5 -31q0 -19 25.5 -27.5t80.5 -8.5q79 0 124.5 14t66.5 45q13 20 34 62q51 104 120 104q59 0 90.5 -42.5t31.5 -121.5q0 -138 -66 -254.5t-134 -116.5q-9 0 -58.5 13.5t-93.5 13.5h-727q-117 0 -166 27.5t-49 91.5
q0 44 181 314zM653 1777q23 25 60 66q80 86 94 92q9 4 35.5 6t62.5 2q58 0 79 -7t21 -25q0 -8 -3 -14.5t-13 -18.5l-189 -219q-37 -44 -60 -53t-87 -9q-57 0 -77.5 9t-45.5 38l-203 238q-6 8 -10 18t-4 19q0 14 21 19t92 5h24q42 0 61 -8.5t35 -30.5z" />
    <glyph glyph-name="zcaron" unicode="&#x17e;" horiz-adv-x="1159" 
d="M629 0h-277q-23 0 -73.5 -2t-77.5 -2q-70 0 -102.5 24t-32.5 76q0 32 15 70t50 92l219 352q11 18 30 49q79 128 79 150q0 19 -14 27t-50 8q-55 0 -85 -18.5t-60 -81.5l-5 -10q-34 -70 -98 -70q-44 0 -76 36t-32 86q0 51 17 109.5t48 112.5q30 53 60.5 76.5t68.5 23.5
q3 0 14 -3q93 -24 224 -24h223q109 0 220 2h28q72 0 106.5 -21.5t34.5 -66.5q0 -25 -19 -71.5t-56 -114.5l-240 -426q-22 -40 -30.5 -62t-8.5 -36q0 -19 14.5 -28t44.5 -9q46 0 76.5 16.5t57.5 54.5q8 12 21 37q36 68 81 68q54 0 86.5 -37t32.5 -100q0 -116 -68 -216
t-143 -100q-2 0 -12 3q-109 26 -291 26zM578 1382q23 25 60 66q80 86 94 92q9 4 35.5 6t62.5 2q58 0 79 -7t21 -25q0 -8 -3 -14.5t-13 -18.5l-189 -219q-37 -44 -60 -53t-87 -9q-57 0 -77.5 9t-45.5 38l-203 238q-6 8 -10 18t-4 19q0 14 21 19t92 5h24q42 0 61 -8.5
t35 -30.5z" />
    <glyph glyph-name="florin" unicode="&#x192;" horiz-adv-x="1276" 
d="M449 657h-168q-36 0 -47 10t-11 38q0 6 3 27q1 9 1 13l9 62q6 51 17 60.5t60 9.5h154q15 309 130 469.5t321 160.5q159 0 257.5 -62t98.5 -161q0 -72 -45 -122t-109 -50q-76 0 -162 67q-4 3 -6 5q-5 4 -16 13q-52 42 -78 42q-25 0 -39 -20t-14 -56q0 -73 46 -135.5
t140 -118.5q27 -16 71 -33q64 -27 64 -71v-100q0 -37 -17 -49.5t-73 -12.5q-10 0 -38 1t-46 1q-7 -52 -21 -151q-89 -636 -151 -773q-59 -131 -163 -191t-271 -60q-165 0 -261.5 66.5t-96.5 178.5q0 78 52 132.5t126 54.5q39 0 70 -17.5t81 -76.5q3 -3 8 -9q48 -55 78 -55
q28 0 43 20.5t15 57.5q0 35 -36 116t-36 144q0 49 15.5 201t44.5 374z" />
    <glyph glyph-name="circumflex" unicode="&#x2c6;" 
d="M524 1370q-28 -30 -71 -78q-70 -76 -83 -82q-8 -3 -35 -5.5t-63 -2.5q-59 0 -80.5 7.5t-21.5 25.5q0 11 15 29l3 3l189 220q37 43 60 52t87 9q56 0 75.5 -8.5t45.5 -38.5l205 -237q7 -9 10.5 -18t3.5 -17q0 -15 -23 -21t-89 -6h-25q-42 0 -60.5 9t-35.5 30z" />
    <glyph glyph-name="caron" unicode="&#x2c7;" 
d="M510 1382q23 25 60 66q80 86 94 92q9 4 35.5 6t62.5 2q58 0 79 -7t21 -25q0 -8 -3 -14.5t-13 -18.5l-189 -219q-37 -44 -60 -53t-87 -9q-57 0 -77.5 9t-45.5 38l-203 238q-6 8 -10 18t-4 19q0 14 21 19t92 5h24q42 0 61 -8.5t35 -30.5z" />
    <glyph glyph-name="breve" unicode="&#x2d8;" 
d="M518 1202q-129 0 -220 88t-91 203q0 25 9.5 38t29.5 13t34 -27q8 -16 15 -24q37 -45 93 -67.5t128 -22.5q74 0 131.5 22.5t91.5 65.5q6 7 14 21q16 28 35 28q23 0 30 -8.5t7 -38.5q0 -125 -86 -208t-221 -83z" />
    <glyph glyph-name="dotaccent" unicode="&#x2d9;" 
d="M367 1350q0 64 44 107.5t107 43.5q65 0 108.5 -43.5t43.5 -107.5t-44 -107t-108 -43q-63 0 -107 44t-44 106z" />
    <glyph glyph-name="ring" unicode="&#x2da;" 
d="M233 1460q0 120 82.5 202.5t200.5 82.5q120 0 203.5 -82.5t83.5 -202.5t-83 -202t-204 -82q-120 0 -201.5 82t-81.5 202zM403 1460q0 -48 33.5 -81t81.5 -33t81.5 33.5t33.5 80.5q0 48 -33.5 81.5t-81.5 33.5q-47 0 -81 -33.5t-34 -81.5z" />
    <glyph glyph-name="ogonek" unicode="&#x2db;" 
d="M647 31q-82 -69 -125 -136t-43 -126q0 -41 18.5 -62.5t53.5 -21.5q34 0 73 24.5t54 24.5q13 0 24 -9.5t11 -21.5q0 -56 -75 -113t-165 -57q-79 0 -123.5 41.5t-44.5 114.5q0 85 62 167t198 175h82z" />
    <glyph glyph-name="tilde" unicode="&#x2dc;" 
d="M659 1233q-63 0 -175 41t-158 41q-34 0 -55.5 -16.5t-43.5 -65.5q-8 -20 -16.5 -25.5t-26.5 -5.5q-24 0 -41.5 11.5t-17.5 27.5q0 22 16.5 64t42.5 84q41 63 83.5 93.5t90.5 30.5q43 0 157.5 -41.5t182.5 -41.5q43 0 66.5 15t42.5 60q7 18 16 24.5t25 6.5q36 0 47.5 -8.5
t11.5 -32.5q0 -94 -76 -178t-172 -84z" />
    <glyph glyph-name="hungarumlaut" unicode="&#x2dd;" 
d="M455 1253q-23 -24 -41 -36.5t-31 -12.5q-22 0 -54 27t-32 47q0 12 9.5 29.5t31.5 46.5l172 237q23 32 34.5 40.5t24.5 8.5q32 0 80.5 -41.5t48.5 -62.5q0 -8 -8 -21.5t-22 -29.5zM764 1251q-22 -22 -42 -35.5t-30 -13.5q-22 0 -54 29t-32 47q0 12 8 27t35 51l183 232l1 1
q34 43 58 43q30 0 77.5 -43t47.5 -61q0 -10 -8.5 -23.5t-24.5 -29.5z" />
    <glyph glyph-name="Omega" unicode="&#x3a9;" horiz-adv-x="1597" 
d="M1180 346v-18h272l29 96h86l-127 -424h-559q69 190 104 411.5t35 467.5q0 254 -56.5 386t-164.5 132q-111 0 -166 -135t-55 -408q0 -226 35.5 -443.5t105.5 -410.5h-561l-127 424h88l28 -96h273v18q-171 36 -275 170.5t-104 317.5q0 283 216 473t542 190
q323 0 541.5 -189.5t218.5 -465.5q0 -190 -103 -324.5t-276 -171.5z" />
    <glyph glyph-name="pi" unicode="&#x3c0;" horiz-adv-x="1561" 
d="M1528 887l-80 -375h-371q1 -84 15 -205.5t14 -159.5q0 -97 -38.5 -145.5t-115.5 -48.5q-68 0 -103.5 31t-35.5 92q0 72 61 216.5t82 219.5h-383q2 -85 15.5 -206t13.5 -159q0 -97 -38.5 -145.5t-114.5 -48.5q-69 0 -104.5 31t-35.5 92q0 72 61 216.5t83 219.5h-242
q-80 0 -103 -18.5t-36 -71.5h-82q50 265 152 365t325 100h1061z" />
    <glyph glyph-name="endash" unicode="&#x2013;" 
d="M948 709q43 0 59.5 -14.5t16.5 -49.5v-205q0 -37 -17.5 -53t-58.5 -16h-872q-42 0 -59 15t-17 50v203q0 38 17 54t59 16h872z" />
    <glyph glyph-name="emdash" unicode="&#x2014;" horiz-adv-x="2048" 
d="M2048 709v-338h-2048v338h2048z" />
    <glyph glyph-name="quoteleft" unicode="&#x2018;" horiz-adv-x="600" 
d="M68 971q0 107 39 219.5t112 212.5q44 60 80.5 87.5t73.5 27.5q39 0 69.5 -26t30.5 -60q0 -20 -53 -98t-53 -144q0 -35 42 -63q22 -15 33 -25q43 -39 65.5 -90t22.5 -111q0 -105 -60.5 -172t-156.5 -67q-110 0 -177.5 84t-67.5 225z" />
    <glyph glyph-name="quoteright" unicode="&#x2019;" horiz-adv-x="600" 
d="M233 987q0 35 -44 66q-21 15 -31 24q-44 39 -67 90.5t-23 110.5q0 105 61 172.5t158 67.5q110 0 176.5 -84.5t66.5 -225.5q0 -107 -39 -219.5t-112 -212.5q-45 -61 -80.5 -87.5t-71.5 -26.5q-39 0 -69.5 25.5t-30.5 60.5q0 19 53 96t53 143z" />
    <glyph glyph-name="quotesinglbase" unicode="&#x201a;" horiz-adv-x="600" 
d="M233 -31q0 35 -42 64q-22 14 -33 24q-44 39 -67 91.5t-23 111.5q0 105 61 171.5t158 66.5q110 0 176.5 -84.5t66.5 -225.5q0 -107 -39 -219.5t-112 -212.5q-45 -61 -80.5 -87.5t-71.5 -26.5q-39 0 -69.5 25.5t-30.5 60.5q0 20 53 97.5t53 143.5z" />
    <glyph glyph-name="quotedblleft" unicode="&#x201c;" horiz-adv-x="1165" 
d="M68 971q0 107 39 219.5t112 212.5q44 60 80.5 87.5t73.5 27.5q39 0 69.5 -26t30.5 -60q0 -20 -53 -98t-53 -144q0 -35 42 -63q22 -15 33 -25q43 -39 65.5 -90t22.5 -111q0 -105 -60.5 -172t-156.5 -67q-110 0 -177.5 84t-67.5 225zM635 971q0 108 38.5 220.5t110.5 211.5
q44 60 81 87.5t73 27.5q39 0 69.5 -26t30.5 -60q0 -20 -53 -98t-53 -144q0 -35 42 -63q22 -15 34 -25q44 -39 67 -90.5t23 -110.5q0 -105 -61.5 -172t-157.5 -67q-111 0 -177.5 84t-66.5 225z" />
    <glyph glyph-name="quotedblright" unicode="&#x201d;" horiz-adv-x="1165" 
d="M799 987q0 35 -44 66q-22 15 -33 25q-42 38 -64.5 89t-22.5 111q0 105 60.5 172.5t156.5 67.5q111 0 178.5 -84.5t67.5 -225.5q0 -107 -39.5 -219.5t-112.5 -212.5q-44 -60 -80.5 -87t-72.5 -27q-40 0 -70.5 25.5t-30.5 60.5q0 19 53.5 96t53.5 143zM233 987q0 35 -44 66
q-21 15 -31 24q-44 39 -67 90.5t-23 110.5q0 105 61 172.5t158 67.5q110 0 176.5 -84.5t66.5 -225.5q0 -107 -39 -219.5t-112 -212.5q-45 -61 -80.5 -87.5t-71.5 -26.5q-39 0 -69.5 25.5t-30.5 60.5q0 19 53 96t53 143z" />
    <glyph glyph-name="quotedblbase" unicode="&#x201e;" horiz-adv-x="1165" 
d="M799 -31q0 35 -43 64q-22 14 -33 24q-43 38 -65.5 90.5t-22.5 112.5q0 105 60.5 171.5t156.5 66.5q111 0 178.5 -84.5t67.5 -225.5q0 -107 -39.5 -219.5t-112.5 -212.5q-44 -60 -80.5 -87t-72.5 -27q-40 0 -70.5 25.5t-30.5 60.5q0 20 53.5 97.5t53.5 143.5zM233 -31
q0 35 -42 64q-22 14 -33 24q-44 39 -67 91.5t-23 111.5q0 105 61 171.5t158 66.5q110 0 176.5 -84.5t66.5 -225.5q0 -107 -39 -219.5t-112 -212.5q-45 -61 -80.5 -87.5t-71.5 -26.5q-39 0 -69.5 25.5t-30.5 60.5q0 20 53 97.5t53 143.5z" />
    <glyph glyph-name="dagger" unicode="&#x2020;" horiz-adv-x="1141" 
d="M483 884q-71 -11 -170.5 -52t-138.5 -41q-73 0 -110 41t-37 122t36.5 121.5t110.5 40.5q39 0 142 -42.5t177 -51.5q-5 74 -51.5 182t-46.5 158q0 73 46 114.5t126 41.5q81 0 127.5 -42t46.5 -114q0 -51 -47 -159.5t-47 -180.5q74 9 176.5 51.5t141.5 42.5
q74 0 111.5 -40.5t37.5 -121.5t-37.5 -122t-111.5 -41q-39 0 -138.5 41t-171.5 53v-8q0 -75 27.5 -168t85.5 -211q-47 -101 -74 -317.5t-39 -610.5h-174q-12 394 -38.5 610.5t-73.5 317.5q55 111 83 206.5t31 179.5z" />
    <glyph glyph-name="daggerdbl" unicode="&#x2021;" horiz-adv-x="1141" 
d="M483 201q-3 95 -30.5 179t-81.5 163q54 77 81.5 161t30.5 180q-71 -11 -170.5 -52t-138.5 -41q-73 0 -110 41t-37 122t36.5 121.5t110.5 40.5q39 0 142 -42.5t177 -51.5q-5 74 -51.5 182t-46.5 158q0 73 46 114.5t126 41.5q81 0 127.5 -42t46.5 -114q0 -51 -47 -159.5
t-47 -180.5q74 9 176.5 51.5t141.5 42.5q74 0 111.5 -40.5t37.5 -121.5t-37.5 -122t-111.5 -41q-39 0 -137.5 41t-169.5 53q3 -97 30.5 -181t81.5 -161q-55 -79 -83.5 -163.5t-30.5 -178.5q71 11 170.5 52.5t138.5 41.5q74 0 111.5 -41.5t37.5 -122.5t-37.5 -121.5
t-111.5 -40.5q-39 0 -141.5 42.5t-176.5 51.5q5 -72 50.5 -180.5t45.5 -158.5q0 -73 -45 -113.5t-127 -40.5q-81 0 -127.5 40.5t-46.5 113.5q0 50 48.5 158.5t48.5 180.5q-75 -9 -178 -51.5t-142 -42.5q-74 0 -110.5 40.5t-36.5 121.5q0 82 37 123t110 41q39 0 138.5 -41.5
t170.5 -52.5z" />
    <glyph glyph-name="bullet" unicode="&#x2022;" horiz-adv-x="1208" 
d="M307 762q0 123 87 209t210 86q122 0 208.5 -86.5t86.5 -208.5t-87.5 -209.5t-209.5 -87.5q-123 0 -209 87t-86 210z" />
    <glyph glyph-name="ellipsis" unicode="&#x2026;" horiz-adv-x="2048" 
d="M91 223q0 106 72.5 178t178.5 72t178 -72t72 -178t-72 -179t-178 -73q-105 0 -178 73t-73 179zM773 223q0 106 72.5 178t178.5 72t178 -72t72 -178t-72 -179t-178 -73q-105 0 -178 73t-73 179zM1457 223q0 106 72.5 178t178.5 72t178 -72t72 -178t-72 -179t-178 -73
q-105 0 -178 73t-73 179z" />
    <glyph glyph-name="perthousand" unicode="&#x2030;" horiz-adv-x="2765" 
d="M2245 461q0 -101 28.5 -170.5t67.5 -69.5q32 0 46.5 31.5t14.5 99.5q0 102 -27.5 172t-64.5 70q-32 0 -48.5 -33.5t-16.5 -99.5zM1939 420q0 169 110 281t271 112q170 0 277.5 -115.5t107.5 -300.5q0 -173 -103.5 -285t-264.5 -112q-171 0 -284.5 119.5t-113.5 300.5z
M1395 461q0 -101 28.5 -170.5t67.5 -69.5q32 0 46.5 31.5t14.5 99.5q0 101 -28.5 171.5t-65.5 70.5q-32 0 -47.5 -33t-15.5 -100zM1087 420q0 168 111 280.5t272 112.5q170 0 277.5 -115.5t107.5 -300.5q0 -173 -104.5 -285t-265.5 -112q-171 0 -284.5 119.5t-113.5 300.5z
M438 96q0 15 150 233t282 433q97 156 231 387q153 264 181 264q18 0 53 -17.5t137 -82.5q10 -7 15.5 -16.5t5.5 -18.5q0 -23 -61 -91q-11 -13 -17 -20q-88 -102 -222 -298.5t-290 -452.5q-130 -213 -212 -398q-6 -14 -7 -16q-12 -24 -21 -31.5t-24 -7.5q-17 0 -59.5 22.5
t-115.5 70.5q-10 6 -18 18t-8 22zM356 1030q0 -101 29 -170t68 -69q32 0 47.5 32t15.5 99q0 100 -28.5 170.5t-65.5 70.5q-32 0 -49 -33.5t-17 -99.5zM51 991q0 169 109.5 280t271.5 111q171 0 278 -114.5t107 -298.5q0 -175 -104 -287.5t-264 -112.5q-170 0 -284 120.5
t-114 301.5z" />
    <glyph glyph-name="guilsinglleft" unicode="&#x2039;" horiz-adv-x="616" 
d="M399 543q103 -181 143 -266.5t40 -122.5q0 -36 -17.5 -55t-50.5 -19q-42 0 -93.5 35.5t-184.5 173.5q-17 17 -48 49q-151 154 -151 207q0 45 187 237l18 19q110 114 172 159.5t104 45.5q30 0 48 -19t18 -51q0 -56 -148 -326q-24 -44 -37 -67z" />
    <glyph glyph-name="guilsinglright" unicode="&#x203a;" horiz-adv-x="616" 
d="M217 543q-103 180 -142.5 265.5t-39.5 123.5q0 35 17 53.5t50 18.5q43 0 94.5 -36t184.5 -173q17 -18 48 -49q151 -154 151 -207q0 -44 -174 -223l-31 -31q-111 -114 -173 -159.5t-104 -45.5q-30 0 -47.5 18t-17.5 49q0 58 155 342z" />
    <glyph glyph-name="franc" unicode="&#x20a3;" horiz-adv-x="2591" 
d="M39 139q0 72 81 112q21 11 32 17q27 17 38 103.5t11 324.5q0 235 -8 379t-21 164q-14 21 -50 33.5t-43 18.5q-24 20 -32 36t-8 39q0 63 50 94t151 31q9 0 118 -3t209 -3q334 0 636 29q40 4 46 4q68 0 123 -101.5t55 -232.5q0 -69 -30.5 -106.5t-85.5 -37.5q-50 0 -117 74
q-15 16 -23 25q-62 65 -131 90.5t-200 25.5q-56 0 -86.5 -9.5t-36.5 -28.5q-8 -27 -14.5 -102t-6.5 -165q0 -26 13 -33.5t79 -7.5q47 0 68 14.5t31 53.5q2 8 5 22q22 101 95 101t107 -80t34 -254q0 -179 -37 -264.5t-114 -85.5q-30 0 -54.5 20.5t-29.5 48.5q-2 11 -5 29
q-23 143 -118 143q-45 0 -58.5 -11t-13.5 -66v-11q0 -145 12 -219t38 -86q19 -9 54 -16t43 -12q29 -18 42.5 -40.5t13.5 -54.5q0 -87 -97.5 -125.5t-326.5 -38.5q-235 0 -336.5 38t-101.5 124zM1466 147q0 60 63 104q9 6 13 9q19 14 27.5 24t11.5 22q8 29 13 128.5t5 233.5
v32q0 44 -7 57t-34 27q-48 27 -67 49.5t-19 51.5q0 31 27.5 61t79.5 55q94 46 209 73.5t215 27.5q35 0 53 -12t22 -39q3 -20 6 -53q4 -54 23 -54q17 0 29 33q9 23 16 35q29 45 74.5 67.5t107.5 22.5q124 0 201.5 -73.5t77.5 -190.5q0 -119 -70.5 -196t-179.5 -77
q-55 0 -103 22t-79 60q-11 13 -24.5 44.5t-31.5 31.5q-21 0 -29.5 -48t-8.5 -183q0 -145 14 -186.5t54 -62.5q6 -3 19 -9q85 -42 85 -105q0 -78 -89.5 -111.5t-302.5 -33.5q-199 0 -300 41t-101 122z" />
    <glyph glyph-name="trademark" unicode="&#x2122;" horiz-adv-x="1683" 
d="M731 1468h236l120 -342l111 342h221v-28l-21 -9q-16 -5 -22 -14t-6 -33v-385q0 -23 6 -32t23 -15l20 -8v-37h-268v37l30 8q17 5 23 15.5t6 31.5v340l-135 -432h-53l-162 447v-355q0 -23 7 -33.5t22 -13.5l37 -8v-37h-195v37l34 8q17 4 24.5 15t7.5 32v377q0 21 -7.5 32.5
t-23.5 14.5l-35 9v36zM219 1468h461l12 -206h-39q-6 77 -35.5 114.5t-82.5 38.5v-416q0 -21 6 -32.5t19 -14.5l30 -8v-37h-281v37l33 8q12 3 18.5 14.5t6.5 32.5v416q-55 0 -85 -38.5t-36 -114.5h-39z" />
    <glyph glyph-name="partialdiff" unicode="&#x2202;" horiz-adv-x="1139" 
d="M770 715q25 127 35 210t10 150q0 105 -26.5 159t-77.5 54q-32 0 -57 -21t-52 -71q-44 -80 -91.5 -119t-100.5 -39q-62 0 -103 37.5t-41 95.5q0 87 102.5 148t249.5 61q224 0 352 -162.5t128 -449.5q0 -348 -167.5 -569.5t-432.5 -221.5q-215 0 -338 115.5t-123 317.5
q0 204 126 340.5t308 136.5q96 0 172 -43.5t127 -128.5zM694 553q0 114 -34 172.5t-99 58.5q-90 0 -150.5 -140.5t-60.5 -354.5q0 -115 34 -172.5t101 -57.5q90 0 149.5 140t59.5 354z" />
    <glyph glyph-name="Delta" unicode="&#x2206;" horiz-adv-x="1339" 
d="M504 1044l-324 -655h647zM631 1497h82l741 -1497h-1569z" />
    <glyph glyph-name="product" unicode="&#x220f;" horiz-adv-x="1841" 
d="M39 1473h1753v-97h-193v-1673h193v-96h-825v96h159v1673h-421v-1673h159v-96h-825v96h192v1673h-192v97z" />
    <glyph glyph-name="summation" unicode="&#x2211;" horiz-adv-x="1640" 
d="M33 1473h1327l174 -506h-100l-115 274q-31 74 -89.5 104.5t-176.5 30.5h-72h-391l491 -725v-43l-624 -614h829q5 0 15.5 1t15.5 1q54 0 71 12t27 49l70 232h100l-207 -682h-1351v110l696 682l-690 992v82z" />
    <glyph glyph-name="minus" unicode="&#x2212;" horiz-adv-x="1706" 
d="M254 750h1198v-277h-1198v277z" />
    <glyph glyph-name="fraction" unicode="&#x2215;" horiz-adv-x="342" 
d="M-352 41q0 15 149 233.5t281 432.5q93 151 225 378q160 273 189 273t179 -95q6 -4 8 -5q10 -7 15.5 -16.5t5.5 -18.5q0 -23 -55 -87q-13 -15 -20 -24q-89 -104 -223 -300t-291 -454q-130 -211 -210 -394q-5 -12 -7 -16q-13 -26 -22 -33t-24 -7q-16 0 -59 22.5t-113 68.5
q-13 8 -20.5 20t-7.5 22z" />
    <glyph glyph-name="periodcentered" unicode="&#x2219;" horiz-adv-x="637" 
d="M68 647q0 106 73 179t178 73q106 0 178 -72.5t72 -179.5q0 -106 -72 -179t-178 -73q-105 0 -178 73t-73 179z" />
    <glyph glyph-name="radical" unicode="&#x221a;" horiz-adv-x="1395" 
d="M1171 1737h228v-172h-86l-588 -1606h-143l-301 827l-156 -59l-41 154l395 139l209 -600z" />
    <glyph glyph-name="infinity" unicode="&#x221e;" horiz-adv-x="1706" 
d="M975 561q40 -57 95 -86t124 -29q84 0 137 43t53 109q0 65 -48 109.5t-117 44.5q-66 0 -122.5 -44t-121.5 -147zM731 653q-41 58 -95 86.5t-124 28.5q-84 0 -136 -43t-52 -111q0 -64 47.5 -107.5t117.5 -43.5q67 0 123 44t119 146zM850 424q-67 -129 -146.5 -191.5
t-175.5 -62.5q-144 0 -245 126t-101 312q0 195 89.5 315.5t232.5 120.5q85 0 161 -53t191 -200q69 128 149 190.5t175 62.5q143 0 244.5 -126t101.5 -312q0 -194 -90.5 -315t-233.5 -121q-88 0 -164 53t-188 201z" />
    <glyph glyph-name="integral" unicode="&#x222b;" horiz-adv-x="1331" 
d="M379 -244q28 0 54 42t42 114q19 92 26 385q4 185 9 293q23 515 144 742t368 227q118 0 190 -58.5t72 -150.5q0 -69 -46 -112.5t-116 -43.5q-67 0 -101 40.5t-34 119.5q0 2 1 10.5t1 15.5q0 26 -8.5 38t-26.5 12q-103 0 -126 -661q-2 -58 -3 -88q-11 -334 -36 -484.5
t-74 -266.5q-65 -150 -166.5 -226.5t-237.5 -76.5q-118 0 -189 57t-71 152q0 72 45 114t121 42q62 0 96.5 -37.5t34.5 -104.5q0 -12 -1 -30t-1 -23q0 -20 8.5 -30.5t24.5 -10.5z" />
    <glyph glyph-name="approxequal" unicode="&#x2248;" horiz-adv-x="1706" 
d="M1530 608v-299q-106 -69 -195.5 -101t-177.5 -32q-87 0 -280 64.5t-316 64.5q-82 0 -172.5 -37t-210.5 -121v299q115 74 213 108t197 34q119 0 308.5 -64.5t268.5 -64.5q83 0 169 34.5t196 114.5zM1530 1073v-299q-106 -70 -195 -101.5t-176 -31.5q-88 0 -281 64.5
t-317 64.5q-85 0 -174.5 -36.5t-208.5 -121.5v299q115 74 213 108t197 34q119 0 308.5 -63.5t268.5 -63.5q85 0 171 34.5t194 112.5z" />
    <glyph glyph-name="notequal" unicode="&#x2260;" horiz-adv-x="1706" 
d="M1188 1278l196 -162l-112 -139h180v-260h-358l-172 -211h530v-262h-704l-242 -299l-199 159l113 140h-166v262h340l170 211h-510v260h690z" />
    <glyph glyph-name="lessequal" unicode="&#x2264;" horiz-adv-x="1706" 
d="M254 236h1200v-271h-1200v271zM1452 1282v-283l-704 -208l704 -209v-281l-1198 371v237z" />
    <glyph glyph-name="greaterequal" unicode="&#x2265;" horiz-adv-x="1706" 
d="M254 236h1200v-271h-1200v271zM256 1282l1196 -373v-237l-1196 -371v281l705 209l-705 208v283z" />
    <glyph glyph-name="lozenge" unicode="&#x25ca;" horiz-adv-x="1012" 
d="M506 1409l-385 -817l385 -825l385 825zM506 1653l500 -1061l-500 -1069l-500 1069z" />
    <glyph glyph-name="apple" unicode="&#xf000;" horiz-adv-x="1618" 
d="M836 1216q-1 6 -1.5 14t-0.5 23q0 124 95 229.5t236 131.5q1 -10 1.5 -23t0.5 -39q0 -131 -103.5 -234.5t-203.5 -103.5h-8q-3 0 -7.5 1t-8.5 1zM1505 403q-114 -247 -205 -342.5t-204 -95.5q-50 0 -131.5 33t-122.5 33q-45 0 -131 -33t-127 -33q-64 0 -128.5 44
t-129.5 132q-102 140 -157.5 295.5t-55.5 300.5q0 219 125 356.5t323 137.5q68 0 155 -34t124 -34q34 0 121.5 35t152.5 35q110 0 198 -40t161 -124q-102 -65 -151.5 -145.5t-49.5 -182.5q0 -113 60 -200t173 -138z" />
    <glyph glyph-name="fi" unicode="&#xf001;" horiz-adv-x="1683" 
d="M1536 920v-576q0 -46 9 -64t35 -41q3 -3 11 -10q56 -47 56 -96q0 -76 -89 -114.5t-264 -38.5q-179 0 -274.5 40.5t-95.5 116.5q0 49 54 95l8 6q1 1 4 3q33 22 38 42q8 25 11 74t3 151v43q0 93 -11.5 127t-43.5 55q-4 3 -12 8q-62 38 -62 84q0 34 30.5 62t100.5 59
q102 46 225 75.5t199 29.5q42 0 55 -13t13 -63v-55zM1171 1143q-101 0 -154.5 39.5t-53.5 113.5q0 84 98 140.5t250 56.5q95 0 148.5 -39.5t53.5 -107.5q0 -84 -98 -143.5t-244 -59.5zM457 -20q-184 0 -280.5 38.5t-96.5 112.5q0 51 77 102l7 5q2 1 5 3q36 23 44 45
q10 32 16.5 108.5t6.5 172.5q0 68 -59 74q-15 1 -23 2q-10 1 -27 3q-66 5 -66 63q0 77 7.5 115.5t24.5 48.5q16 9 51.5 12t35.5 14q0 2 -42 85.5t-42 164.5q0 152 128 248t337 96q169 0 259.5 -67t90.5 -191q0 -78 -42.5 -122t-116.5 -44q-31 0 -59.5 12.5t-45.5 32.5
q-9 10 -26 30q-80 93 -127 93q-31 0 -48.5 -19t-17.5 -53q0 -41 32 -80t105 -86q11 -6 30 -18q49 -29 63 -46q6 -7 11.5 -21.5t8.5 -16.5q10 -6 26 -9t44 -3h40q27 0 40.5 -0.5t25.5 -1.5q17 -2 22 -12t5 -60q0 -107 -13 -137.5t-71 -30.5h-33q-67 0 -79.5 -13.5
t-12.5 -58.5q0 -124 17 -205t48 -102q13 -8 39 -22q78 -44 78 -99q0 -84 -96.5 -123.5t-300.5 -39.5z" />
    <glyph glyph-name="fl" unicode="&#xf002;" horiz-adv-x="1690" 
d="M459 -20q-184 0 -280.5 38.5t-96.5 112.5q0 51 77 102l7 5l4 2q37 24 45 47q10 31 16.5 107.5t6.5 172.5q0 68 -59 74q-15 1 -23 2q-10 1 -27 3q-66 5 -66 63q0 77 7.5 115.5t24.5 48.5q16 9 51.5 12t35.5 14q0 2 -42 85.5t-42 164.5q0 153 128 249.5t337 96.5
q168 0 259 -68t91 -192q0 -78 -42.5 -122t-116.5 -44q-30 0 -59 12.5t-46 32.5q-7 8 -22 25q-85 98 -133 98q-31 0 -47.5 -18.5t-16.5 -53.5q0 -41 32 -80t105 -86q11 -6 30 -18q49 -29 63 -46q6 -7 11.5 -21.5t8.5 -16.5q10 -6 25.5 -9t44.5 -3h41q26 0 39.5 -0.5
t25.5 -1.5q17 -2 22 -12t5 -60q0 -107 -13 -137.5t-71 -30.5h-33q-66 0 -79 -13.5t-13 -58.5q0 -124 17.5 -205t47.5 -102q13 -8 39 -22q78 -44 78 -99q0 -84 -96.5 -123.5t-300.5 -39.5zM907 127q0 60 65 90q25 12 36 21q26 20 36.5 114.5t10.5 452.5q0 35 1 91t1 77
q0 81 -8 119.5t-27 56.5q-6 5 -22 13q-56 27 -56 79q0 35 23 65t71 58q100 59 216 95t200 36q51 0 67.5 -18t16.5 -95v-24q0 -10 -1 -61q-7 -304 -7 -621q0 -198 11 -299t36 -127q9 -9 30 -24q58 -40 58 -95q0 -74 -98.5 -112.5t-288.5 -38.5q-187 0 -279 36t-92 111z" />
    </font>
</defs>
</svg>
